<?xml version="1.0" encoding="utf-8"?>
<svg xmlns="http://www.w3.org/2000/svg" xmlns:xlink="http://www.w3.org/1999/xlink" width="600" height="400" viewBox="0 0 2400 1600">
<defs>
  <clipPath id="clip080">
    <rect x="0" y="0" width="2400" height="1600"/>
  </clipPath>
</defs>
<path clip-path="url(#clip080)" d="M0 1600 L2400 1600 L2400 0 L0 0  Z" fill="#ffffff" fill-rule="evenodd" fill-opacity="1"/>
<defs>
  <clipPath id="clip081">
    <rect x="480" y="0" width="1681" height="1600"/>
  </clipPath>
</defs>
<path clip-path="url(#clip080)" d="M112.177 1486.45 L2352.76 1486.45 L2352.76 47.2441 L112.177 47.2441  Z" fill="#ffffff" fill-rule="evenodd" fill-opacity="1"/>
<defs>
  <clipPath id="clip082">
    <rect x="112" y="47" width="2242" height="1440"/>
  </clipPath>
</defs>
<polyline clip-path="url(#clip082)" style="stroke:#000000; stroke-linecap:round; stroke-linejoin:round; stroke-width:2; stroke-opacity:0.1; fill:none" points="1062.75,1486.45 1062.75,47.2441 "/>
<polyline clip-path="url(#clip082)" style="stroke:#000000; stroke-linecap:round; stroke-linejoin:round; stroke-width:2; stroke-opacity:0.1; fill:none" points="1402.18,1486.45 1402.18,47.2441 "/>
<polyline clip-path="url(#clip080)" style="stroke:#000000; stroke-linecap:round; stroke-linejoin:round; stroke-width:4; stroke-opacity:1; fill:none" points="112.177,1486.45 2352.76,1486.45 "/>
<polyline clip-path="url(#clip080)" style="stroke:#000000; stroke-linecap:round; stroke-linejoin:round; stroke-width:4; stroke-opacity:1; fill:none" points="1062.75,1486.45 1062.75,1467.55 "/>
<polyline clip-path="url(#clip080)" style="stroke:#000000; stroke-linecap:round; stroke-linejoin:round; stroke-width:4; stroke-opacity:1; fill:none" points="1402.18,1486.45 1402.18,1467.55 "/>
<path clip-path="url(#clip080)" d="M1062.75 1517.37 Q1059.14 1517.37 1057.31 1520.93 Q1055.5 1524.47 1055.5 1531.6 Q1055.5 1538.71 1057.31 1542.27 Q1059.14 1545.82 1062.75 1545.82 Q1066.38 1545.82 1068.19 1542.27 Q1070.02 1538.71 1070.02 1531.6 Q1070.02 1524.47 1068.19 1520.93 Q1066.38 1517.37 1062.75 1517.37 M1062.75 1513.66 Q1068.56 1513.66 1071.61 1518.27 Q1074.69 1522.85 1074.69 1531.6 Q1074.69 1540.33 1071.61 1544.94 Q1068.56 1549.52 1062.75 1549.52 Q1056.94 1549.52 1053.86 1544.94 Q1050.8 1540.33 1050.8 1531.6 Q1050.8 1522.85 1053.86 1518.27 Q1056.94 1513.66 1062.75 1513.66 Z" fill="#000000" fill-rule="nonzero" fill-opacity="1" /><path clip-path="url(#clip080)" d="M1392.57 1544.91 L1400.2 1544.91 L1400.2 1518.55 L1391.89 1520.21 L1391.89 1515.95 L1400.16 1514.29 L1404.83 1514.29 L1404.83 1544.91 L1412.47 1544.91 L1412.47 1548.85 L1392.57 1548.85 L1392.57 1544.91 Z" fill="#000000" fill-rule="nonzero" fill-opacity="1" /><polyline clip-path="url(#clip082)" style="stroke:#000000; stroke-linecap:round; stroke-linejoin:round; stroke-width:2; stroke-opacity:0.1; fill:none" points="112.177,1445.72 2352.76,1445.72 "/>
<polyline clip-path="url(#clip082)" style="stroke:#000000; stroke-linecap:round; stroke-linejoin:round; stroke-width:2; stroke-opacity:0.1; fill:none" points="112.177,1106.28 2352.76,1106.28 "/>
<polyline clip-path="url(#clip082)" style="stroke:#000000; stroke-linecap:round; stroke-linejoin:round; stroke-width:2; stroke-opacity:0.1; fill:none" points="112.177,766.846 2352.76,766.846 "/>
<polyline clip-path="url(#clip082)" style="stroke:#000000; stroke-linecap:round; stroke-linejoin:round; stroke-width:2; stroke-opacity:0.1; fill:none" points="112.177,427.411 2352.76,427.411 "/>
<polyline clip-path="url(#clip082)" style="stroke:#000000; stroke-linecap:round; stroke-linejoin:round; stroke-width:2; stroke-opacity:0.1; fill:none" points="112.177,87.9763 2352.76,87.9763 "/>
<polyline clip-path="url(#clip080)" style="stroke:#000000; stroke-linecap:round; stroke-linejoin:round; stroke-width:4; stroke-opacity:1; fill:none" points="112.177,1486.45 112.177,47.2441 "/>
<polyline clip-path="url(#clip080)" style="stroke:#000000; stroke-linecap:round; stroke-linejoin:round; stroke-width:4; stroke-opacity:1; fill:none" points="112.177,1445.72 131.075,1445.72 "/>
<polyline clip-path="url(#clip080)" style="stroke:#000000; stroke-linecap:round; stroke-linejoin:round; stroke-width:4; stroke-opacity:1; fill:none" points="112.177,1106.28 131.075,1106.28 "/>
<polyline clip-path="url(#clip080)" style="stroke:#000000; stroke-linecap:round; stroke-linejoin:round; stroke-width:4; stroke-opacity:1; fill:none" points="112.177,766.846 131.075,766.846 "/>
<polyline clip-path="url(#clip080)" style="stroke:#000000; stroke-linecap:round; stroke-linejoin:round; stroke-width:4; stroke-opacity:1; fill:none" points="112.177,427.411 131.075,427.411 "/>
<polyline clip-path="url(#clip080)" style="stroke:#000000; stroke-linecap:round; stroke-linejoin:round; stroke-width:4; stroke-opacity:1; fill:none" points="112.177,87.9763 131.075,87.9763 "/>
<path clip-path="url(#clip080)" d="M64.2328 1431.51 Q60.6217 1431.51 58.793 1435.08 Q56.9875 1438.62 56.9875 1445.75 Q56.9875 1452.86 58.793 1456.42 Q60.6217 1459.96 64.2328 1459.96 Q67.867 1459.96 69.6726 1456.42 Q71.5013 1452.86 71.5013 1445.75 Q71.5013 1438.62 69.6726 1435.08 Q67.867 1431.51 64.2328 1431.51 M64.2328 1427.81 Q70.0429 1427.81 73.0985 1432.42 Q76.1772 1437 76.1772 1445.75 Q76.1772 1454.48 73.0985 1459.08 Q70.0429 1463.67 64.2328 1463.67 Q58.4226 1463.67 55.344 1459.08 Q52.2884 1454.48 52.2884 1445.75 Q52.2884 1437 55.344 1432.42 Q58.4226 1427.81 64.2328 1427.81 Z" fill="#000000" fill-rule="nonzero" fill-opacity="1" /><path clip-path="url(#clip080)" d="M56.2699 1119.63 L63.9087 1119.63 L63.9087 1093.26 L55.5986 1094.93 L55.5986 1090.67 L63.8624 1089 L68.5383 1089 L68.5383 1119.63 L76.1772 1119.63 L76.1772 1123.56 L56.2699 1123.56 L56.2699 1119.63 Z" fill="#000000" fill-rule="nonzero" fill-opacity="1" /><path clip-path="url(#clip080)" d="M59.8578 780.191 L76.1772 780.191 L76.1772 784.126 L54.2328 784.126 L54.2328 780.191 Q56.8949 777.436 61.4782 772.807 Q66.0846 768.154 67.2652 766.811 Q69.5105 764.288 70.3902 762.552 Q71.2929 760.793 71.2929 759.103 Q71.2929 756.348 69.3485 754.612 Q67.4272 752.876 64.3254 752.876 Q62.1263 752.876 59.6726 753.64 Q57.2421 754.404 54.4643 755.955 L54.4643 751.233 Q57.2884 750.098 59.7421 749.52 Q62.1958 748.941 64.2328 748.941 Q69.6031 748.941 72.7976 751.626 Q75.992 754.311 75.992 758.802 Q75.992 760.932 75.1818 762.853 Q74.3948 764.751 72.2883 767.344 Q71.7096 768.015 68.6078 771.233 Q65.5059 774.427 59.8578 780.191 Z" fill="#000000" fill-rule="nonzero" fill-opacity="1" /><path clip-path="url(#clip080)" d="M69.0476 426.057 Q72.404 426.775 74.279 429.043 Q76.1772 431.312 76.1772 434.645 Q76.1772 439.761 72.6587 442.562 Q69.1402 445.362 62.6587 445.362 Q60.4828 445.362 58.168 444.923 Q55.8764 444.506 53.4227 443.649 L53.4227 439.136 Q55.3671 440.27 57.6819 440.849 Q59.9967 441.427 62.5198 441.427 Q66.918 441.427 69.2096 439.691 Q71.5244 437.955 71.5244 434.645 Q71.5244 431.589 69.3717 429.876 Q67.242 428.14 63.4226 428.14 L59.3949 428.14 L59.3949 424.298 L63.6078 424.298 Q67.0569 424.298 68.8855 422.932 Q70.7142 421.543 70.7142 418.951 Q70.7142 416.289 68.8161 414.876 Q66.9411 413.441 63.4226 413.441 Q61.5013 413.441 59.3023 413.858 Q57.1032 414.275 54.4643 415.154 L54.4643 410.988 Q57.1264 410.247 59.4412 409.877 Q61.7791 409.506 63.8393 409.506 Q69.1633 409.506 72.2652 411.937 Q75.367 414.344 75.367 418.464 Q75.367 421.335 73.7235 423.326 Q72.08 425.293 69.0476 426.057 Z" fill="#000000" fill-rule="nonzero" fill-opacity="1" /><path clip-path="url(#clip080)" d="M66.5939 74.7703 L54.7884 93.2193 L66.5939 93.2193 L66.5939 74.7703 M65.367 70.6963 L71.2466 70.6963 L71.2466 93.2193 L76.1772 93.2193 L76.1772 97.1082 L71.2466 97.1082 L71.2466 105.256 L66.5939 105.256 L66.5939 97.1082 L50.9921 97.1082 L50.9921 92.5943 L65.367 70.6963 Z" fill="#000000" fill-rule="nonzero" fill-opacity="1" /><circle clip-path="url(#clip082)" cx="1062.75" cy="1445.72" r="14.4" fill="#cb3c33" fill-rule="evenodd" fill-opacity="1" stroke="none"/>
<circle clip-path="url(#clip082)" cx="1062.75" cy="1106.28" r="14.4" fill="#cb3c33" fill-rule="evenodd" fill-opacity="1" stroke="none"/>
<circle clip-path="url(#clip082)" cx="1062.75" cy="766.846" r="14.4" fill="#cb3c33" fill-rule="evenodd" fill-opacity="1" stroke="none"/>
<circle clip-path="url(#clip082)" cx="1062.75" cy="427.411" r="14.4" fill="#cb3c33" fill-rule="evenodd" fill-opacity="1" stroke="none"/>
<path clip-path="url(#clip082)" d="M1402.18 1429.72 L1386.18 1445.72 L1402.18 1461.72 L1418.18 1445.72 L1402.18 1429.72 Z" fill="#389826" fill-rule="evenodd" fill-opacity="1" stroke="none"/>
<path clip-path="url(#clip082)" d="M1062.75 71.9763 L1046.75 87.9763 L1062.75 103.976 L1078.75 87.9763 L1062.75 71.9763 Z" fill="#389826" fill-rule="evenodd" fill-opacity="1" stroke="none"/>
<path clip-path="url(#clip082)" d="M1386.18 1090.28 L1386.18 1122.28 L1418.18 1122.28 L1418.18 1090.28 L1386.18 1090.28 Z" fill="#cb3c33" fill-rule="evenodd" fill-opacity="1" stroke="#000000" stroke-opacity="1" stroke-width="3.2"/>
<path clip-path="url(#clip082)" d="M1386.18 750.846 L1386.18 782.846 L1418.18 782.846 L1418.18 750.846 L1386.18 750.846 Z" fill="#cb3c33" fill-rule="evenodd" fill-opacity="1" stroke="#000000" stroke-opacity="1" stroke-width="3.2"/>
<path clip-path="url(#clip082)" d="M1386.18 411.411 L1386.18 443.411 L1418.18 443.411 L1418.18 411.411 L1386.18 411.411 Z" fill="#cb3c33" fill-rule="evenodd" fill-opacity="1" stroke="#000000" stroke-opacity="1" stroke-width="3.2"/>
<path clip-path="url(#clip080)" d="M1584.18 302.578 L2278.07 302.578 L2278.07 95.2176 L1584.18 95.2176  Z" fill="#ffffff" fill-rule="evenodd" fill-opacity="1"/>
<polyline clip-path="url(#clip080)" style="stroke:#000000; stroke-linecap:round; stroke-linejoin:round; stroke-width:4; stroke-opacity:1; fill:none" points="1584.18,302.578 2278.07,302.578 2278.07,95.2176 1584.18,95.2176 1584.18,302.578 "/>
<circle clip-path="url(#clip080)" cx="1683.76" cy="147.058" r="23.04" fill="#cb3c33" fill-rule="evenodd" fill-opacity="1" stroke="none"/>
<path clip-path="url(#clip080)" d="M1805.58 130.912 L1805.58 135.472 Q1802.92 134.199 1800.56 133.574 Q1798.2 132.949 1796 132.949 Q1792.18 132.949 1790.1 134.43 Q1788.04 135.912 1788.04 138.643 Q1788.04 140.935 1789.4 142.115 Q1790.79 143.273 1794.64 143.99 L1797.46 144.569 Q1802.69 145.565 1805.17 148.088 Q1807.67 150.588 1807.67 154.801 Q1807.67 159.824 1804.29 162.416 Q1800.93 165.009 1794.43 165.009 Q1791.97 165.009 1789.2 164.453 Q1786.44 163.898 1783.48 162.81 L1783.48 157.995 Q1786.33 159.592 1789.06 160.402 Q1791.79 161.213 1794.43 161.213 Q1798.43 161.213 1800.61 159.639 Q1802.78 158.064 1802.78 155.148 Q1802.78 152.602 1801.21 151.166 Q1799.66 149.731 1796.09 149.014 L1793.25 148.458 Q1788.02 147.416 1785.68 145.194 Q1783.34 142.972 1783.34 139.014 Q1783.34 134.43 1786.56 131.791 Q1789.8 129.153 1795.47 129.153 Q1797.9 129.153 1800.42 129.592 Q1802.95 130.032 1805.58 130.912 Z" fill="#000000" fill-rule="nonzero" fill-opacity="1" /><path clip-path="url(#clip080)" d="M1826.56 151.305 Q1821.39 151.305 1819.4 152.486 Q1817.41 153.666 1817.41 156.514 Q1817.41 158.782 1818.89 160.125 Q1820.4 161.444 1822.97 161.444 Q1826.51 161.444 1828.64 158.944 Q1830.79 156.421 1830.79 152.254 L1830.79 151.305 L1826.56 151.305 M1835.05 149.546 L1835.05 164.338 L1830.79 164.338 L1830.79 160.402 Q1829.33 162.763 1827.16 163.898 Q1824.98 165.009 1821.83 165.009 Q1817.85 165.009 1815.49 162.787 Q1813.15 160.541 1813.15 156.791 Q1813.15 152.416 1816.07 150.194 Q1819.01 147.972 1824.82 147.972 L1830.79 147.972 L1830.79 147.555 Q1830.79 144.615 1828.85 143.018 Q1826.93 141.398 1823.43 141.398 Q1821.21 141.398 1819.1 141.93 Q1817 142.463 1815.05 143.527 L1815.05 139.592 Q1817.39 138.69 1819.59 138.25 Q1821.79 137.787 1823.87 137.787 Q1829.5 137.787 1832.27 140.703 Q1835.05 143.62 1835.05 149.546 Z" fill="#000000" fill-rule="nonzero" fill-opacity="1" /><path clip-path="url(#clip080)" d="M1848.04 131.051 L1848.04 138.412 L1856.81 138.412 L1856.81 141.722 L1848.04 141.722 L1848.04 155.796 Q1848.04 158.967 1848.89 159.87 Q1849.77 160.773 1852.44 160.773 L1856.81 160.773 L1856.81 164.338 L1852.44 164.338 Q1847.51 164.338 1845.63 162.509 Q1843.76 160.657 1843.76 155.796 L1843.76 141.722 L1840.63 141.722 L1840.63 138.412 L1843.76 138.412 L1843.76 131.051 L1848.04 131.051 Z" fill="#000000" fill-rule="nonzero" fill-opacity="1" /><path clip-path="url(#clip080)" d="M1861.97 154.106 L1861.97 138.412 L1866.23 138.412 L1866.23 153.944 Q1866.23 157.625 1867.67 159.476 Q1869.1 161.305 1871.97 161.305 Q1875.42 161.305 1877.41 159.106 Q1879.43 156.907 1879.43 153.111 L1879.43 138.412 L1883.69 138.412 L1883.69 164.338 L1879.43 164.338 L1879.43 160.356 Q1877.88 162.717 1875.82 163.875 Q1873.78 165.009 1871.07 165.009 Q1866.6 165.009 1864.29 162.231 Q1861.97 159.453 1861.97 154.106 M1872.69 137.787 L1872.69 137.787 Z" fill="#000000" fill-rule="nonzero" fill-opacity="1" /><path clip-path="url(#clip080)" d="M1907.48 142.393 Q1906.76 141.977 1905.91 141.791 Q1905.07 141.583 1904.06 141.583 Q1900.45 141.583 1898.5 143.944 Q1896.58 146.282 1896.58 150.68 L1896.58 164.338 L1892.3 164.338 L1892.3 138.412 L1896.58 138.412 L1896.58 142.44 Q1897.92 140.078 1900.07 138.944 Q1902.23 137.787 1905.31 137.787 Q1905.75 137.787 1906.28 137.856 Q1906.81 137.903 1907.46 138.018 L1907.48 142.393 Z" fill="#000000" fill-rule="nonzero" fill-opacity="1" /><path clip-path="url(#clip080)" d="M1923.73 151.305 Q1918.57 151.305 1916.58 152.486 Q1914.59 153.666 1914.59 156.514 Q1914.59 158.782 1916.07 160.125 Q1917.57 161.444 1920.14 161.444 Q1923.69 161.444 1925.82 158.944 Q1927.97 156.421 1927.97 152.254 L1927.97 151.305 L1923.73 151.305 M1932.23 149.546 L1932.23 164.338 L1927.97 164.338 L1927.97 160.402 Q1926.51 162.763 1924.33 163.898 Q1922.16 165.009 1919.01 165.009 Q1915.03 165.009 1912.67 162.787 Q1910.33 160.541 1910.33 156.791 Q1910.33 152.416 1913.25 150.194 Q1916.19 147.972 1922 147.972 L1927.97 147.972 L1927.97 147.555 Q1927.97 144.615 1926.02 143.018 Q1924.1 141.398 1920.61 141.398 Q1918.38 141.398 1916.28 141.93 Q1914.17 142.463 1912.23 143.527 L1912.23 139.592 Q1914.57 138.69 1916.76 138.25 Q1918.96 137.787 1921.05 137.787 Q1926.67 137.787 1929.45 140.703 Q1932.23 143.62 1932.23 149.546 Z" fill="#000000" fill-rule="nonzero" fill-opacity="1" /><path clip-path="url(#clip080)" d="M1945.21 131.051 L1945.21 138.412 L1953.99 138.412 L1953.99 141.722 L1945.21 141.722 L1945.21 155.796 Q1945.21 158.967 1946.07 159.87 Q1946.95 160.773 1949.61 160.773 L1953.99 160.773 L1953.99 164.338 L1949.61 164.338 Q1944.68 164.338 1942.81 162.509 Q1940.93 160.657 1940.93 155.796 L1940.93 141.722 L1937.81 141.722 L1937.81 138.412 L1940.93 138.412 L1940.93 131.051 L1945.21 131.051 Z" fill="#000000" fill-rule="nonzero" fill-opacity="1" /><path clip-path="url(#clip080)" d="M1981.76 150.31 L1981.76 152.393 L1962.18 152.393 Q1962.46 156.791 1964.82 159.106 Q1967.2 161.398 1971.44 161.398 Q1973.89 161.398 1976.19 160.796 Q1978.5 160.194 1980.77 158.99 L1980.77 163.018 Q1978.48 163.99 1976.07 164.5 Q1973.66 165.009 1971.19 165.009 Q1964.98 165.009 1961.35 161.398 Q1957.74 157.787 1957.74 151.629 Q1957.74 145.264 1961.16 141.537 Q1964.61 137.787 1970.44 137.787 Q1975.68 137.787 1978.71 141.166 Q1981.76 144.523 1981.76 150.31 M1977.5 149.06 Q1977.46 145.565 1975.54 143.481 Q1973.64 141.398 1970.49 141.398 Q1966.93 141.398 1964.77 143.412 Q1962.64 145.426 1962.32 149.083 L1977.5 149.06 Z" fill="#000000" fill-rule="nonzero" fill-opacity="1" /><path clip-path="url(#clip080)" d="M2005.81 142.347 L2005.81 128.319 L2010.07 128.319 L2010.07 164.338 L2005.81 164.338 L2005.81 160.449 Q2004.47 162.763 2002.41 163.898 Q2000.38 165.009 1997.5 165.009 Q1992.81 165.009 1989.84 161.259 Q1986.9 157.509 1986.9 151.398 Q1986.9 145.287 1989.84 141.537 Q1992.81 137.787 1997.5 137.787 Q2000.38 137.787 2002.41 138.921 Q2004.47 140.032 2005.81 142.347 M1991.3 151.398 Q1991.3 156.097 1993.22 158.782 Q1995.17 161.444 1998.55 161.444 Q2001.93 161.444 2003.87 158.782 Q2005.81 156.097 2005.81 151.398 Q2005.81 146.699 2003.87 144.037 Q2001.93 141.352 1998.55 141.352 Q1995.17 141.352 1993.22 144.037 Q1991.3 146.699 1991.3 151.398 Z" fill="#000000" fill-rule="nonzero" fill-opacity="1" /><path clip-path="url(#clip080)" d="M2054.82 130.912 L2054.82 135.472 Q2052.16 134.199 2049.8 133.574 Q2047.43 132.949 2045.24 132.949 Q2041.42 132.949 2039.33 134.43 Q2037.27 135.912 2037.27 138.643 Q2037.27 140.935 2038.64 142.115 Q2040.03 143.273 2043.87 143.99 L2046.69 144.569 Q2051.93 145.565 2054.4 148.088 Q2056.9 150.588 2056.9 154.801 Q2056.9 159.824 2053.52 162.416 Q2050.17 165.009 2043.66 165.009 Q2041.21 165.009 2038.43 164.453 Q2035.68 163.898 2032.71 162.81 L2032.71 157.995 Q2035.56 159.592 2038.29 160.402 Q2041.02 161.213 2043.66 161.213 Q2047.67 161.213 2049.84 159.639 Q2052.02 158.064 2052.02 155.148 Q2052.02 152.602 2050.44 151.166 Q2048.89 149.731 2045.33 149.014 L2042.48 148.458 Q2037.25 147.416 2034.91 145.194 Q2032.57 142.972 2032.57 139.014 Q2032.57 134.43 2035.79 131.791 Q2039.03 129.153 2044.7 129.153 Q2047.13 129.153 2049.66 129.592 Q2052.18 130.032 2054.82 130.912 Z" fill="#000000" fill-rule="nonzero" fill-opacity="1" /><path clip-path="url(#clip080)" d="M2068.22 131.051 L2068.22 138.412 L2077 138.412 L2077 141.722 L2068.22 141.722 L2068.22 155.796 Q2068.22 158.967 2069.08 159.87 Q2069.96 160.773 2072.62 160.773 L2077 160.773 L2077 164.338 L2072.62 164.338 Q2067.69 164.338 2065.81 162.509 Q2063.94 160.657 2063.94 155.796 L2063.94 141.722 L2060.81 141.722 L2060.81 138.412 L2063.94 138.412 L2063.94 131.051 L2068.22 131.051 Z" fill="#000000" fill-rule="nonzero" fill-opacity="1" /><path clip-path="url(#clip080)" d="M2094.38 151.305 Q2089.22 151.305 2087.23 152.486 Q2085.24 153.666 2085.24 156.514 Q2085.24 158.782 2086.72 160.125 Q2088.22 161.444 2090.79 161.444 Q2094.33 161.444 2096.46 158.944 Q2098.62 156.421 2098.62 152.254 L2098.62 151.305 L2094.38 151.305 M2102.87 149.546 L2102.87 164.338 L2098.62 164.338 L2098.62 160.402 Q2097.16 162.763 2094.98 163.898 Q2092.81 165.009 2089.66 165.009 Q2085.68 165.009 2083.31 162.787 Q2080.98 160.541 2080.98 156.791 Q2080.98 152.416 2083.89 150.194 Q2086.83 147.972 2092.64 147.972 L2098.62 147.972 L2098.62 147.555 Q2098.62 144.615 2096.67 143.018 Q2094.75 141.398 2091.25 141.398 Q2089.03 141.398 2086.93 141.93 Q2084.82 142.463 2082.87 143.527 L2082.87 139.592 Q2085.21 138.69 2087.41 138.25 Q2089.61 137.787 2091.69 137.787 Q2097.32 137.787 2100.1 140.703 Q2102.87 143.62 2102.87 149.546 Z" fill="#000000" fill-rule="nonzero" fill-opacity="1" /><path clip-path="url(#clip080)" d="M2133.2 148.689 L2133.2 164.338 L2128.94 164.338 L2128.94 148.828 Q2128.94 145.148 2127.5 143.319 Q2126.07 141.49 2123.2 141.49 Q2119.75 141.49 2117.76 143.69 Q2115.77 145.889 2115.77 149.685 L2115.77 164.338 L2111.49 164.338 L2111.49 138.412 L2115.77 138.412 L2115.77 142.44 Q2117.3 140.102 2119.36 138.944 Q2121.44 137.787 2124.15 137.787 Q2128.62 137.787 2130.91 140.565 Q2133.2 143.319 2133.2 148.689 Z" fill="#000000" fill-rule="nonzero" fill-opacity="1" /><path clip-path="url(#clip080)" d="M2158.75 142.347 L2158.75 128.319 L2163.01 128.319 L2163.01 164.338 L2158.75 164.338 L2158.75 160.449 Q2157.41 162.763 2155.35 163.898 Q2153.31 165.009 2150.44 165.009 Q2145.74 165.009 2142.78 161.259 Q2139.84 157.509 2139.84 151.398 Q2139.84 145.287 2142.78 141.537 Q2145.74 137.787 2150.44 137.787 Q2153.31 137.787 2155.35 138.921 Q2157.41 140.032 2158.75 142.347 M2144.24 151.398 Q2144.24 156.097 2146.16 158.782 Q2148.11 161.444 2151.49 161.444 Q2154.86 161.444 2156.81 158.782 Q2158.75 156.097 2158.75 151.398 Q2158.75 146.699 2156.81 144.037 Q2154.86 141.352 2151.49 141.352 Q2148.11 141.352 2146.16 144.037 Q2144.24 146.699 2144.24 151.398 Z" fill="#000000" fill-rule="nonzero" fill-opacity="1" /><path clip-path="url(#clip080)" d="M2183.57 151.305 Q2178.41 151.305 2176.42 152.486 Q2174.43 153.666 2174.43 156.514 Q2174.43 158.782 2175.91 160.125 Q2177.41 161.444 2179.98 161.444 Q2183.52 161.444 2185.65 158.944 Q2187.8 156.421 2187.8 152.254 L2187.8 151.305 L2183.57 151.305 M2192.06 149.546 L2192.06 164.338 L2187.8 164.338 L2187.8 160.402 Q2186.35 162.763 2184.17 163.898 Q2181.99 165.009 2178.85 165.009 Q2174.86 165.009 2172.5 162.787 Q2170.17 160.541 2170.17 156.791 Q2170.17 152.416 2173.08 150.194 Q2176.02 147.972 2181.83 147.972 L2187.8 147.972 L2187.8 147.555 Q2187.8 144.615 2185.86 143.018 Q2183.94 141.398 2180.44 141.398 Q2178.22 141.398 2176.11 141.93 Q2174.01 142.463 2172.06 143.527 L2172.06 139.592 Q2174.4 138.69 2176.6 138.25 Q2178.8 137.787 2180.88 137.787 Q2186.51 137.787 2189.29 140.703 Q2192.06 143.62 2192.06 149.546 Z" fill="#000000" fill-rule="nonzero" fill-opacity="1" /><path clip-path="url(#clip080)" d="M2215.86 142.393 Q2215.14 141.977 2214.29 141.791 Q2213.45 141.583 2212.43 141.583 Q2208.82 141.583 2206.88 143.944 Q2204.96 146.282 2204.96 150.68 L2204.96 164.338 L2200.67 164.338 L2200.67 138.412 L2204.96 138.412 L2204.96 142.44 Q2206.3 140.078 2208.45 138.944 Q2210.61 137.787 2213.68 137.787 Q2214.12 137.787 2214.66 137.856 Q2215.19 137.903 2215.84 138.018 L2215.86 142.393 Z" fill="#000000" fill-rule="nonzero" fill-opacity="1" /><path clip-path="url(#clip080)" d="M2236.55 142.347 L2236.55 128.319 L2240.81 128.319 L2240.81 164.338 L2236.55 164.338 L2236.55 160.449 Q2235.21 162.763 2233.15 163.898 Q2231.11 165.009 2228.24 165.009 Q2223.55 165.009 2220.58 161.259 Q2217.64 157.509 2217.64 151.398 Q2217.64 145.287 2220.58 141.537 Q2223.55 137.787 2228.24 137.787 Q2231.11 137.787 2233.15 138.921 Q2235.21 140.032 2236.55 142.347 M2222.04 151.398 Q2222.04 156.097 2223.96 158.782 Q2225.91 161.444 2229.29 161.444 Q2232.67 161.444 2234.61 158.782 Q2236.55 156.097 2236.55 151.398 Q2236.55 146.699 2234.61 144.037 Q2232.67 141.352 2229.29 141.352 Q2225.91 141.352 2223.96 144.037 Q2222.04 146.699 2222.04 151.398 Z" fill="#000000" fill-rule="nonzero" fill-opacity="1" /><path clip-path="url(#clip080)" d="M1683.76 173.298 L1658.16 198.898 L1683.76 224.498 L1709.36 198.898 L1683.76 173.298 Z" fill="#389826" fill-rule="evenodd" fill-opacity="1" stroke="none"/>
<path clip-path="url(#clip080)" d="M1805.58 182.752 L1805.58 187.312 Q1802.92 186.039 1800.56 185.414 Q1798.2 184.789 1796 184.789 Q1792.18 184.789 1790.1 186.27 Q1788.04 187.752 1788.04 190.483 Q1788.04 192.775 1789.4 193.955 Q1790.79 195.113 1794.64 195.83 L1797.46 196.409 Q1802.69 197.405 1805.17 199.928 Q1807.67 202.428 1807.67 206.641 Q1807.67 211.664 1804.29 214.256 Q1800.93 216.849 1794.43 216.849 Q1791.97 216.849 1789.2 216.293 Q1786.44 215.738 1783.48 214.65 L1783.48 209.835 Q1786.33 211.432 1789.06 212.242 Q1791.79 213.053 1794.43 213.053 Q1798.43 213.053 1800.61 211.479 Q1802.78 209.904 1802.78 206.988 Q1802.78 204.442 1801.21 203.006 Q1799.66 201.571 1796.09 200.854 L1793.25 200.298 Q1788.02 199.256 1785.68 197.034 Q1783.34 194.812 1783.34 190.854 Q1783.34 186.27 1786.56 183.631 Q1789.8 180.993 1795.47 180.993 Q1797.9 180.993 1800.42 181.432 Q1802.95 181.872 1805.58 182.752 Z" fill="#000000" fill-rule="nonzero" fill-opacity="1" /><path clip-path="url(#clip080)" d="M1826.56 203.145 Q1821.39 203.145 1819.4 204.326 Q1817.41 205.506 1817.41 208.354 Q1817.41 210.622 1818.89 211.965 Q1820.4 213.284 1822.97 213.284 Q1826.51 213.284 1828.64 210.784 Q1830.79 208.261 1830.79 204.094 L1830.79 203.145 L1826.56 203.145 M1835.05 201.386 L1835.05 216.178 L1830.79 216.178 L1830.79 212.242 Q1829.33 214.603 1827.16 215.738 Q1824.98 216.849 1821.83 216.849 Q1817.85 216.849 1815.49 214.627 Q1813.15 212.381 1813.15 208.631 Q1813.15 204.256 1816.07 202.034 Q1819.01 199.812 1824.82 199.812 L1830.79 199.812 L1830.79 199.395 Q1830.79 196.455 1828.85 194.858 Q1826.93 193.238 1823.43 193.238 Q1821.21 193.238 1819.1 193.77 Q1817 194.303 1815.05 195.367 L1815.05 191.432 Q1817.39 190.53 1819.59 190.09 Q1821.79 189.627 1823.87 189.627 Q1829.5 189.627 1832.27 192.543 Q1835.05 195.46 1835.05 201.386 Z" fill="#000000" fill-rule="nonzero" fill-opacity="1" /><path clip-path="url(#clip080)" d="M1848.04 182.891 L1848.04 190.252 L1856.81 190.252 L1856.81 193.562 L1848.04 193.562 L1848.04 207.636 Q1848.04 210.807 1848.89 211.71 Q1849.77 212.613 1852.44 212.613 L1856.81 212.613 L1856.81 216.178 L1852.44 216.178 Q1847.51 216.178 1845.63 214.349 Q1843.76 212.497 1843.76 207.636 L1843.76 193.562 L1840.63 193.562 L1840.63 190.252 L1843.76 190.252 L1843.76 182.891 L1848.04 182.891 Z" fill="#000000" fill-rule="nonzero" fill-opacity="1" /><path clip-path="url(#clip080)" d="M1861.97 205.946 L1861.97 190.252 L1866.23 190.252 L1866.23 205.784 Q1866.23 209.465 1867.67 211.316 Q1869.1 213.145 1871.97 213.145 Q1875.42 213.145 1877.41 210.946 Q1879.43 208.747 1879.43 204.951 L1879.43 190.252 L1883.69 190.252 L1883.69 216.178 L1879.43 216.178 L1879.43 212.196 Q1877.88 214.557 1875.82 215.715 Q1873.78 216.849 1871.07 216.849 Q1866.6 216.849 1864.29 214.071 Q1861.97 211.293 1861.97 205.946 M1872.69 189.627 L1872.69 189.627 Z" fill="#000000" fill-rule="nonzero" fill-opacity="1" /><path clip-path="url(#clip080)" d="M1907.48 194.233 Q1906.76 193.817 1905.91 193.631 Q1905.07 193.423 1904.06 193.423 Q1900.45 193.423 1898.5 195.784 Q1896.58 198.122 1896.58 202.52 L1896.58 216.178 L1892.3 216.178 L1892.3 190.252 L1896.58 190.252 L1896.58 194.28 Q1897.92 191.918 1900.07 190.784 Q1902.23 189.627 1905.31 189.627 Q1905.75 189.627 1906.28 189.696 Q1906.81 189.743 1907.46 189.858 L1907.48 194.233 Z" fill="#000000" fill-rule="nonzero" fill-opacity="1" /><path clip-path="url(#clip080)" d="M1923.73 203.145 Q1918.57 203.145 1916.58 204.326 Q1914.59 205.506 1914.59 208.354 Q1914.59 210.622 1916.07 211.965 Q1917.57 213.284 1920.14 213.284 Q1923.69 213.284 1925.82 210.784 Q1927.97 208.261 1927.97 204.094 L1927.97 203.145 L1923.73 203.145 M1932.23 201.386 L1932.23 216.178 L1927.97 216.178 L1927.97 212.242 Q1926.51 214.603 1924.33 215.738 Q1922.16 216.849 1919.01 216.849 Q1915.03 216.849 1912.67 214.627 Q1910.33 212.381 1910.33 208.631 Q1910.33 204.256 1913.25 202.034 Q1916.19 199.812 1922 199.812 L1927.97 199.812 L1927.97 199.395 Q1927.97 196.455 1926.02 194.858 Q1924.1 193.238 1920.61 193.238 Q1918.38 193.238 1916.28 193.77 Q1914.17 194.303 1912.23 195.367 L1912.23 191.432 Q1914.57 190.53 1916.76 190.09 Q1918.96 189.627 1921.05 189.627 Q1926.67 189.627 1929.45 192.543 Q1932.23 195.46 1932.23 201.386 Z" fill="#000000" fill-rule="nonzero" fill-opacity="1" /><path clip-path="url(#clip080)" d="M1945.21 182.891 L1945.21 190.252 L1953.99 190.252 L1953.99 193.562 L1945.21 193.562 L1945.21 207.636 Q1945.21 210.807 1946.07 211.71 Q1946.95 212.613 1949.61 212.613 L1953.99 212.613 L1953.99 216.178 L1949.61 216.178 Q1944.68 216.178 1942.81 214.349 Q1940.93 212.497 1940.93 207.636 L1940.93 193.562 L1937.81 193.562 L1937.81 190.252 L1940.93 190.252 L1940.93 182.891 L1945.21 182.891 Z" fill="#000000" fill-rule="nonzero" fill-opacity="1" /><path clip-path="url(#clip080)" d="M1981.76 202.15 L1981.76 204.233 L1962.18 204.233 Q1962.46 208.631 1964.82 210.946 Q1967.2 213.238 1971.44 213.238 Q1973.89 213.238 1976.19 212.636 Q1978.5 212.034 1980.77 210.83 L1980.77 214.858 Q1978.48 215.83 1976.07 216.34 Q1973.66 216.849 1971.19 216.849 Q1964.98 216.849 1961.35 213.238 Q1957.74 209.627 1957.74 203.469 Q1957.74 197.104 1961.16 193.377 Q1964.61 189.627 1970.44 189.627 Q1975.68 189.627 1978.71 193.006 Q1981.76 196.363 1981.76 202.15 M1977.5 200.9 Q1977.46 197.405 1975.54 195.321 Q1973.64 193.238 1970.49 193.238 Q1966.93 193.238 1964.77 195.252 Q1962.64 197.266 1962.32 200.923 L1977.5 200.9 Z" fill="#000000" fill-rule="nonzero" fill-opacity="1" /><path clip-path="url(#clip080)" d="M2005.81 194.187 L2005.81 180.159 L2010.07 180.159 L2010.07 216.178 L2005.81 216.178 L2005.81 212.289 Q2004.47 214.603 2002.41 215.738 Q2000.38 216.849 1997.5 216.849 Q1992.81 216.849 1989.84 213.099 Q1986.9 209.349 1986.9 203.238 Q1986.9 197.127 1989.84 193.377 Q1992.81 189.627 1997.5 189.627 Q2000.38 189.627 2002.41 190.761 Q2004.47 191.872 2005.81 194.187 M1991.3 203.238 Q1991.3 207.937 1993.22 210.622 Q1995.17 213.284 1998.55 213.284 Q2001.93 213.284 2003.87 210.622 Q2005.81 207.937 2005.81 203.238 Q2005.81 198.539 2003.87 195.877 Q2001.93 193.192 1998.55 193.192 Q1995.17 193.192 1993.22 195.877 Q1991.3 198.539 1991.3 203.238 Z" fill="#000000" fill-rule="nonzero" fill-opacity="1" /><path clip-path="url(#clip080)" d="M2059.98 184.28 L2059.98 189.21 Q2057.62 187.011 2054.93 185.923 Q2052.27 184.835 2049.26 184.835 Q2043.34 184.835 2040.19 188.469 Q2037.04 192.08 2037.04 198.932 Q2037.04 205.761 2040.19 209.395 Q2043.34 213.006 2049.26 213.006 Q2052.27 213.006 2054.93 211.918 Q2057.62 210.83 2059.98 208.631 L2059.98 213.516 Q2057.53 215.182 2054.77 216.016 Q2052.04 216.849 2048.99 216.849 Q2041.14 216.849 2036.62 212.057 Q2032.11 207.242 2032.11 198.932 Q2032.11 190.599 2036.62 185.807 Q2041.14 180.993 2048.99 180.993 Q2052.09 180.993 2054.82 181.826 Q2057.57 182.636 2059.98 184.28 Z" fill="#000000" fill-rule="nonzero" fill-opacity="1" /><path clip-path="url(#clip080)" d="M2077.06 193.238 Q2073.64 193.238 2071.65 195.923 Q2069.66 198.585 2069.66 203.238 Q2069.66 207.891 2071.62 210.576 Q2073.62 213.238 2077.06 213.238 Q2080.47 213.238 2082.46 210.553 Q2084.45 207.867 2084.45 203.238 Q2084.45 198.631 2082.46 195.946 Q2080.47 193.238 2077.06 193.238 M2077.06 189.627 Q2082.62 189.627 2085.79 193.238 Q2088.96 196.849 2088.96 203.238 Q2088.96 209.604 2085.79 213.238 Q2082.62 216.849 2077.06 216.849 Q2071.49 216.849 2068.31 213.238 Q2065.17 209.604 2065.17 203.238 Q2065.17 196.849 2068.31 193.238 Q2071.49 189.627 2077.06 189.627 Z" fill="#000000" fill-rule="nonzero" fill-opacity="1" /><path clip-path="url(#clip080)" d="M2111.05 194.233 Q2110.33 193.817 2109.47 193.631 Q2108.64 193.423 2107.62 193.423 Q2104.01 193.423 2102.06 195.784 Q2100.14 198.122 2100.14 202.52 L2100.14 216.178 L2095.86 216.178 L2095.86 190.252 L2100.14 190.252 L2100.14 194.28 Q2101.49 191.918 2103.64 190.784 Q2105.79 189.627 2108.87 189.627 Q2109.31 189.627 2109.84 189.696 Q2110.37 189.743 2111.02 189.858 L2111.05 194.233 Z" fill="#000000" fill-rule="nonzero" fill-opacity="1" /><path clip-path="url(#clip080)" d="M2136.23 200.529 L2136.23 216.178 L2131.97 216.178 L2131.97 200.668 Q2131.97 196.988 2130.54 195.159 Q2129.1 193.33 2126.23 193.33 Q2122.78 193.33 2120.79 195.53 Q2118.8 197.729 2118.8 201.525 L2118.8 216.178 L2114.52 216.178 L2114.52 190.252 L2118.8 190.252 L2118.8 194.28 Q2120.33 191.942 2122.39 190.784 Q2124.47 189.627 2127.18 189.627 Q2131.65 189.627 2133.94 192.405 Q2136.23 195.159 2136.23 200.529 Z" fill="#000000" fill-rule="nonzero" fill-opacity="1" /><path clip-path="url(#clip080)" d="M2166.9 202.15 L2166.9 204.233 L2147.32 204.233 Q2147.6 208.631 2149.96 210.946 Q2152.34 213.238 2156.58 213.238 Q2159.03 213.238 2161.32 212.636 Q2163.64 212.034 2165.91 210.83 L2165.91 214.858 Q2163.61 215.83 2161.21 216.34 Q2158.8 216.849 2156.32 216.849 Q2150.12 216.849 2146.49 213.238 Q2142.87 209.627 2142.87 203.469 Q2142.87 197.104 2146.3 193.377 Q2149.75 189.627 2155.58 189.627 Q2160.81 189.627 2163.85 193.006 Q2166.9 196.363 2166.9 202.15 M2162.64 200.9 Q2162.6 197.405 2160.68 195.321 Q2158.78 193.238 2155.63 193.238 Q2152.06 193.238 2149.91 195.252 Q2147.78 197.266 2147.46 200.923 L2162.64 200.9 Z" fill="#000000" fill-rule="nonzero" fill-opacity="1" /><path clip-path="url(#clip080)" d="M2188.92 194.233 Q2188.2 193.817 2187.34 193.631 Q2186.51 193.423 2185.49 193.423 Q2181.88 193.423 2179.93 195.784 Q2178.01 198.122 2178.01 202.52 L2178.01 216.178 L2173.73 216.178 L2173.73 190.252 L2178.01 190.252 L2178.01 194.28 Q2179.36 191.918 2181.51 190.784 Q2183.66 189.627 2186.74 189.627 Q2187.18 189.627 2187.71 189.696 Q2188.24 189.743 2188.89 189.858 L2188.92 194.233 Z" fill="#000000" fill-rule="nonzero" fill-opacity="1" /><path clip-path="url(#clip080)" d="M2209.91 191.016 L2209.91 195.043 Q2208.11 194.117 2206.16 193.655 Q2204.22 193.192 2202.13 193.192 Q2198.96 193.192 2197.36 194.164 Q2195.79 195.136 2195.79 197.08 Q2195.79 198.562 2196.92 199.418 Q2198.06 200.252 2201.49 201.016 L2202.94 201.34 Q2207.48 202.312 2209.38 204.094 Q2211.3 205.854 2211.3 209.025 Q2211.3 212.636 2208.43 214.742 Q2205.58 216.849 2200.58 216.849 Q2198.5 216.849 2196.23 216.432 Q2193.99 216.039 2191.49 215.228 L2191.49 210.83 Q2193.85 212.057 2196.14 212.682 Q2198.43 213.284 2200.67 213.284 Q2203.68 213.284 2205.3 212.266 Q2206.92 211.224 2206.92 209.349 Q2206.92 207.613 2205.74 206.687 Q2204.59 205.761 2200.63 204.904 L2199.15 204.557 Q2195.19 203.724 2193.43 202.011 Q2191.67 200.275 2191.67 197.266 Q2191.67 193.608 2194.26 191.618 Q2196.86 189.627 2201.62 189.627 Q2203.99 189.627 2206.07 189.974 Q2208.15 190.321 2209.91 191.016 Z" fill="#000000" fill-rule="nonzero" fill-opacity="1" /><path clip-path="url(#clip080)" d="M1661 227.982 L1661 273.493 L1706.51 273.493 L1706.51 227.982 L1661 227.982 Z" fill="#cb3c33" fill-rule="evenodd" fill-opacity="1" stroke="#000000" stroke-opacity="1" stroke-width="4.55111"/>
<path clip-path="url(#clip080)" d="M1783.34 233.458 L1788.02 233.458 L1788.02 268.018 L1783.34 268.018 L1783.34 233.458 Z" fill="#000000" fill-rule="nonzero" fill-opacity="1" /><path clip-path="url(#clip080)" d="M1818.69 252.369 L1818.69 268.018 L1814.43 268.018 L1814.43 252.508 Q1814.43 248.828 1812.99 246.999 Q1811.56 245.17 1808.69 245.17 Q1805.24 245.17 1803.25 247.37 Q1801.26 249.569 1801.26 253.365 L1801.26 268.018 L1796.97 268.018 L1796.97 242.092 L1801.26 242.092 L1801.26 246.12 Q1802.78 243.782 1804.84 242.624 Q1806.93 241.467 1809.64 241.467 Q1814.1 241.467 1816.39 244.245 Q1818.69 246.999 1818.69 252.369 Z" fill="#000000" fill-rule="nonzero" fill-opacity="1" /><path clip-path="url(#clip080)" d="M1844.24 246.027 L1844.24 231.999 L1848.5 231.999 L1848.5 268.018 L1844.24 268.018 L1844.24 264.129 Q1842.9 266.443 1840.84 267.578 Q1838.8 268.689 1835.93 268.689 Q1831.23 268.689 1828.27 264.939 Q1825.33 261.189 1825.33 255.078 Q1825.33 248.967 1828.27 245.217 Q1831.23 241.467 1835.93 241.467 Q1838.8 241.467 1840.84 242.601 Q1842.9 243.712 1844.24 246.027 M1829.73 255.078 Q1829.73 259.777 1831.65 262.462 Q1833.59 265.124 1836.97 265.124 Q1840.35 265.124 1842.3 262.462 Q1844.24 259.777 1844.24 255.078 Q1844.24 250.379 1842.3 247.717 Q1840.35 245.032 1836.97 245.032 Q1833.59 245.032 1831.65 247.717 Q1829.73 250.379 1829.73 255.078 Z" fill="#000000" fill-rule="nonzero" fill-opacity="1" /><path clip-path="url(#clip080)" d="M1879.45 253.99 L1879.45 256.073 L1859.87 256.073 Q1860.14 260.471 1862.51 262.786 Q1864.89 265.078 1869.13 265.078 Q1871.58 265.078 1873.87 264.476 Q1876.19 263.874 1878.45 262.67 L1878.45 266.698 Q1876.16 267.67 1873.76 268.18 Q1871.35 268.689 1868.87 268.689 Q1862.67 268.689 1859.03 265.078 Q1855.42 261.467 1855.42 255.309 Q1855.42 248.944 1858.85 245.217 Q1862.3 241.467 1868.13 241.467 Q1873.36 241.467 1876.39 244.846 Q1879.45 248.203 1879.45 253.99 M1875.19 252.74 Q1875.14 249.245 1873.22 247.161 Q1871.32 245.078 1868.18 245.078 Q1864.61 245.078 1862.46 247.092 Q1860.33 249.106 1860.01 252.763 L1875.19 252.74 Z" fill="#000000" fill-rule="nonzero" fill-opacity="1" /><path clip-path="url(#clip080)" d="M1890.56 264.129 L1890.56 277.879 L1886.28 277.879 L1886.28 242.092 L1890.56 242.092 L1890.56 246.027 Q1891.9 243.712 1893.94 242.601 Q1896 241.467 1898.85 241.467 Q1903.57 241.467 1906.51 245.217 Q1909.47 248.967 1909.47 255.078 Q1909.47 261.189 1906.51 264.939 Q1903.57 268.689 1898.85 268.689 Q1896 268.689 1893.94 267.578 Q1891.9 266.443 1890.56 264.129 M1905.05 255.078 Q1905.05 250.379 1903.11 247.717 Q1901.19 245.032 1897.81 245.032 Q1894.43 245.032 1892.48 247.717 Q1890.56 250.379 1890.56 255.078 Q1890.56 259.777 1892.48 262.462 Q1894.43 265.124 1897.81 265.124 Q1901.19 265.124 1903.11 262.462 Q1905.05 259.777 1905.05 255.078 Z" fill="#000000" fill-rule="nonzero" fill-opacity="1" /><path clip-path="url(#clip080)" d="M1938.71 253.99 L1938.71 256.073 L1919.13 256.073 Q1919.4 260.471 1921.76 262.786 Q1924.15 265.078 1928.38 265.078 Q1930.84 265.078 1933.13 264.476 Q1935.44 263.874 1937.71 262.67 L1937.71 266.698 Q1935.42 267.67 1933.01 268.18 Q1930.61 268.689 1928.13 268.689 Q1921.93 268.689 1918.29 265.078 Q1914.68 261.467 1914.68 255.309 Q1914.68 248.944 1918.11 245.217 Q1921.56 241.467 1927.39 241.467 Q1932.62 241.467 1935.65 244.846 Q1938.71 248.203 1938.71 253.99 M1934.45 252.74 Q1934.4 249.245 1932.48 247.161 Q1930.58 245.078 1927.44 245.078 Q1923.87 245.078 1921.72 247.092 Q1919.59 249.106 1919.26 252.763 L1934.45 252.74 Z" fill="#000000" fill-rule="nonzero" fill-opacity="1" /><path clip-path="url(#clip080)" d="M1967.25 252.369 L1967.25 268.018 L1962.99 268.018 L1962.99 252.508 Q1962.99 248.828 1961.56 246.999 Q1960.12 245.17 1957.25 245.17 Q1953.8 245.17 1951.81 247.37 Q1949.82 249.569 1949.82 253.365 L1949.82 268.018 L1945.54 268.018 L1945.54 242.092 L1949.82 242.092 L1949.82 246.12 Q1951.35 243.782 1953.41 242.624 Q1955.49 241.467 1958.2 241.467 Q1962.67 241.467 1964.96 244.245 Q1967.25 246.999 1967.25 252.369 Z" fill="#000000" fill-rule="nonzero" fill-opacity="1" /><path clip-path="url(#clip080)" d="M1992.81 246.027 L1992.81 231.999 L1997.06 231.999 L1997.06 268.018 L1992.81 268.018 L1992.81 264.129 Q1991.46 266.443 1989.4 267.578 Q1987.37 268.689 1984.5 268.689 Q1979.8 268.689 1976.83 264.939 Q1973.89 261.189 1973.89 255.078 Q1973.89 248.967 1976.83 245.217 Q1979.8 241.467 1984.5 241.467 Q1987.37 241.467 1989.4 242.601 Q1991.46 243.712 1992.81 246.027 M1978.29 255.078 Q1978.29 259.777 1980.21 262.462 Q1982.16 265.124 1985.54 265.124 Q1988.92 265.124 1990.86 262.462 Q1992.81 259.777 1992.81 255.078 Q1992.81 250.379 1990.86 247.717 Q1988.92 245.032 1985.54 245.032 Q1982.16 245.032 1980.21 247.717 Q1978.29 250.379 1978.29 255.078 Z" fill="#000000" fill-rule="nonzero" fill-opacity="1" /><path clip-path="url(#clip080)" d="M2028.01 253.99 L2028.01 256.073 L2008.43 256.073 Q2008.71 260.471 2011.07 262.786 Q2013.45 265.078 2017.69 265.078 Q2020.14 265.078 2022.44 264.476 Q2024.75 263.874 2027.02 262.67 L2027.02 266.698 Q2024.73 267.67 2022.32 268.18 Q2019.91 268.689 2017.44 268.689 Q2011.23 268.689 2007.6 265.078 Q2003.99 261.467 2003.99 255.309 Q2003.99 248.944 2007.41 245.217 Q2010.86 241.467 2016.69 241.467 Q2021.93 241.467 2024.96 244.846 Q2028.01 248.203 2028.01 253.99 M2023.75 252.74 Q2023.71 249.245 2021.79 247.161 Q2019.89 245.078 2016.74 245.078 Q2013.18 245.078 2011.02 247.092 Q2008.89 249.106 2008.57 252.763 L2023.75 252.74 Z" fill="#000000" fill-rule="nonzero" fill-opacity="1" /><path clip-path="url(#clip080)" d="M2056.56 252.369 L2056.56 268.018 L2052.3 268.018 L2052.3 252.508 Q2052.3 248.828 2050.86 246.999 Q2049.43 245.17 2046.56 245.17 Q2043.11 245.17 2041.12 247.37 Q2039.12 249.569 2039.12 253.365 L2039.12 268.018 L2034.84 268.018 L2034.84 242.092 L2039.12 242.092 L2039.12 246.12 Q2040.65 243.782 2042.71 242.624 Q2044.8 241.467 2047.5 241.467 Q2051.97 241.467 2054.26 244.245 Q2056.56 246.999 2056.56 252.369 Z" fill="#000000" fill-rule="nonzero" fill-opacity="1" /><path clip-path="url(#clip080)" d="M2069.26 234.731 L2069.26 242.092 L2078.04 242.092 L2078.04 245.402 L2069.26 245.402 L2069.26 259.476 Q2069.26 262.647 2070.12 263.55 Q2071 264.453 2073.66 264.453 L2078.04 264.453 L2078.04 268.018 L2073.66 268.018 Q2068.73 268.018 2066.86 266.189 Q2064.98 264.337 2064.98 259.476 L2064.98 245.402 L2061.86 245.402 L2061.86 242.092 L2064.98 242.092 L2064.98 234.731 L2069.26 234.731 Z" fill="#000000" fill-rule="nonzero" fill-opacity="1" /><path clip-path="url(#clip080)" d="M2103.57 251.513 L2103.57 264.175 L2111.07 264.175 Q2114.84 264.175 2116.65 262.624 Q2118.48 261.05 2118.48 257.832 Q2118.48 254.592 2116.65 253.064 Q2114.84 251.513 2111.07 251.513 L2103.57 251.513 M2103.57 237.3 L2103.57 247.717 L2110.49 247.717 Q2113.92 247.717 2115.58 246.444 Q2117.27 245.147 2117.27 242.508 Q2117.27 239.893 2115.58 238.596 Q2113.92 237.3 2110.49 237.3 L2103.57 237.3 M2098.89 233.458 L2110.84 233.458 Q2116.18 233.458 2119.08 235.68 Q2121.97 237.902 2121.97 241.999 Q2121.97 245.17 2120.49 247.045 Q2119.01 248.92 2116.14 249.383 Q2119.59 250.124 2121.49 252.485 Q2123.41 254.823 2123.41 258.342 Q2123.41 262.971 2120.26 265.494 Q2117.11 268.018 2111.3 268.018 L2098.89 268.018 L2098.89 233.458 Z" fill="#000000" fill-rule="nonzero" fill-opacity="1" /><path clip-path="url(#clip080)" d="M2141.28 245.078 Q2137.85 245.078 2135.86 247.763 Q2133.87 250.425 2133.87 255.078 Q2133.87 259.731 2135.84 262.416 Q2137.83 265.078 2141.28 265.078 Q2144.68 265.078 2146.67 262.393 Q2148.66 259.707 2148.66 255.078 Q2148.66 250.471 2146.67 247.786 Q2144.68 245.078 2141.28 245.078 M2141.28 241.467 Q2146.83 241.467 2150 245.078 Q2153.18 248.689 2153.18 255.078 Q2153.18 261.444 2150 265.078 Q2146.83 268.689 2141.28 268.689 Q2135.7 268.689 2132.53 265.078 Q2129.38 261.444 2129.38 255.078 Q2129.38 248.689 2132.53 245.078 Q2135.7 241.467 2141.28 241.467 Z" fill="#000000" fill-rule="nonzero" fill-opacity="1" /><path clip-path="url(#clip080)" d="M2175.26 246.073 Q2174.54 245.657 2173.68 245.471 Q2172.85 245.263 2171.83 245.263 Q2168.22 245.263 2166.28 247.624 Q2164.36 249.962 2164.36 254.36 L2164.36 268.018 L2160.07 268.018 L2160.07 242.092 L2164.36 242.092 L2164.36 246.12 Q2165.7 243.758 2167.85 242.624 Q2170 241.467 2173.08 241.467 Q2173.52 241.467 2174.05 241.536 Q2174.59 241.583 2175.24 241.698 L2175.26 246.073 Z" fill="#000000" fill-rule="nonzero" fill-opacity="1" /><path clip-path="url(#clip080)" d="M2195.95 246.027 L2195.95 231.999 L2200.21 231.999 L2200.21 268.018 L2195.95 268.018 L2195.95 264.129 Q2194.61 266.443 2192.55 267.578 Q2190.51 268.689 2187.64 268.689 Q2182.94 268.689 2179.98 264.939 Q2177.04 261.189 2177.04 255.078 Q2177.04 248.967 2179.98 245.217 Q2182.94 241.467 2187.64 241.467 Q2190.51 241.467 2192.55 242.601 Q2194.61 243.712 2195.95 246.027 M2181.44 255.078 Q2181.44 259.777 2183.36 262.462 Q2185.3 265.124 2188.68 265.124 Q2192.06 265.124 2194.01 262.462 Q2195.95 259.777 2195.95 255.078 Q2195.95 250.379 2194.01 247.717 Q2192.06 245.032 2188.68 245.032 Q2185.3 245.032 2183.36 247.717 Q2181.44 250.379 2181.44 255.078 Z" fill="#000000" fill-rule="nonzero" fill-opacity="1" /><path clip-path="url(#clip080)" d="M2231.16 253.99 L2231.16 256.073 L2211.58 256.073 Q2211.86 260.471 2214.22 262.786 Q2216.6 265.078 2220.84 265.078 Q2223.29 265.078 2225.58 264.476 Q2227.9 263.874 2230.17 262.67 L2230.17 266.698 Q2227.87 267.67 2225.47 268.18 Q2223.06 268.689 2220.58 268.689 Q2214.38 268.689 2210.74 265.078 Q2207.13 261.467 2207.13 255.309 Q2207.13 248.944 2210.56 245.217 Q2214.01 241.467 2219.84 241.467 Q2225.07 241.467 2228.11 244.846 Q2231.16 248.203 2231.16 253.99 M2226.9 252.74 Q2226.86 249.245 2224.93 247.161 Q2223.04 245.078 2219.89 245.078 Q2216.32 245.078 2214.17 247.092 Q2212.04 249.106 2211.72 252.763 L2226.9 252.74 Z" fill="#000000" fill-rule="nonzero" fill-opacity="1" /><path clip-path="url(#clip080)" d="M2253.17 246.073 Q2252.46 245.657 2251.6 245.471 Q2250.77 245.263 2249.75 245.263 Q2246.14 245.263 2244.19 247.624 Q2242.27 249.962 2242.27 254.36 L2242.27 268.018 L2237.99 268.018 L2237.99 242.092 L2242.27 242.092 L2242.27 246.12 Q2243.61 243.758 2245.77 242.624 Q2247.92 241.467 2251 241.467 Q2251.44 241.467 2251.97 241.536 Q2252.5 241.583 2253.15 241.698 L2253.17 246.073 Z" fill="#000000" fill-rule="nonzero" fill-opacity="1" /></svg>
