<?xml version="1.0" encoding="utf-8"?>
<svg xmlns="http://www.w3.org/2000/svg" xmlns:xlink="http://www.w3.org/1999/xlink" width="600" height="400" viewBox="0 0 2400 1600">
<defs>
  <clipPath id="clip170">
    <rect x="0" y="0" width="2400" height="1600"/>
  </clipPath>
</defs>
<path clip-path="url(#clip170)" d="M0 1600 L2400 1600 L2400 0 L0 0  Z" fill="#ffffff" fill-rule="evenodd" fill-opacity="1"/>
<defs>
  <clipPath id="clip171">
    <rect x="480" y="0" width="1681" height="1600"/>
  </clipPath>
</defs>
<path clip-path="url(#clip170)" d="M112.177 1486.45 L2352.76 1486.45 L2352.76 47.2441 L112.177 47.2441  Z" fill="#ffffff" fill-rule="evenodd" fill-opacity="1"/>
<defs>
  <clipPath id="clip172">
    <rect x="112" y="47" width="2242" height="1440"/>
  </clipPath>
</defs>
<polyline clip-path="url(#clip172)" style="stroke:#000000; stroke-linecap:round; stroke-linejoin:round; stroke-width:2; stroke-opacity:0.1; fill:none" points="553.597,1486.45 553.597,47.2441 "/>
<polyline clip-path="url(#clip172)" style="stroke:#000000; stroke-linecap:round; stroke-linejoin:round; stroke-width:2; stroke-opacity:0.1; fill:none" points="747.56,1486.45 747.56,47.2441 "/>
<polyline clip-path="url(#clip172)" style="stroke:#000000; stroke-linecap:round; stroke-linejoin:round; stroke-width:2; stroke-opacity:0.1; fill:none" points="941.522,1486.45 941.522,47.2441 "/>
<polyline clip-path="url(#clip172)" style="stroke:#000000; stroke-linecap:round; stroke-linejoin:round; stroke-width:2; stroke-opacity:0.1; fill:none" points="1135.49,1486.45 1135.49,47.2441 "/>
<polyline clip-path="url(#clip172)" style="stroke:#000000; stroke-linecap:round; stroke-linejoin:round; stroke-width:2; stroke-opacity:0.1; fill:none" points="1329.45,1486.45 1329.45,47.2441 "/>
<polyline clip-path="url(#clip172)" style="stroke:#000000; stroke-linecap:round; stroke-linejoin:round; stroke-width:2; stroke-opacity:0.1; fill:none" points="1523.41,1486.45 1523.41,47.2441 "/>
<polyline clip-path="url(#clip172)" style="stroke:#000000; stroke-linecap:round; stroke-linejoin:round; stroke-width:2; stroke-opacity:0.1; fill:none" points="1717.37,1486.45 1717.37,47.2441 "/>
<polyline clip-path="url(#clip172)" style="stroke:#000000; stroke-linecap:round; stroke-linejoin:round; stroke-width:2; stroke-opacity:0.1; fill:none" points="1911.34,1486.45 1911.34,47.2441 "/>
<polyline clip-path="url(#clip170)" style="stroke:#000000; stroke-linecap:round; stroke-linejoin:round; stroke-width:4; stroke-opacity:1; fill:none" points="112.177,1486.45 2352.76,1486.45 "/>
<polyline clip-path="url(#clip170)" style="stroke:#000000; stroke-linecap:round; stroke-linejoin:round; stroke-width:4; stroke-opacity:1; fill:none" points="553.597,1486.45 553.597,1467.55 "/>
<polyline clip-path="url(#clip170)" style="stroke:#000000; stroke-linecap:round; stroke-linejoin:round; stroke-width:4; stroke-opacity:1; fill:none" points="747.56,1486.45 747.56,1467.55 "/>
<polyline clip-path="url(#clip170)" style="stroke:#000000; stroke-linecap:round; stroke-linejoin:round; stroke-width:4; stroke-opacity:1; fill:none" points="941.522,1486.45 941.522,1467.55 "/>
<polyline clip-path="url(#clip170)" style="stroke:#000000; stroke-linecap:round; stroke-linejoin:round; stroke-width:4; stroke-opacity:1; fill:none" points="1135.49,1486.45 1135.49,1467.55 "/>
<polyline clip-path="url(#clip170)" style="stroke:#000000; stroke-linecap:round; stroke-linejoin:round; stroke-width:4; stroke-opacity:1; fill:none" points="1329.45,1486.45 1329.45,1467.55 "/>
<polyline clip-path="url(#clip170)" style="stroke:#000000; stroke-linecap:round; stroke-linejoin:round; stroke-width:4; stroke-opacity:1; fill:none" points="1523.41,1486.45 1523.41,1467.55 "/>
<polyline clip-path="url(#clip170)" style="stroke:#000000; stroke-linecap:round; stroke-linejoin:round; stroke-width:4; stroke-opacity:1; fill:none" points="1717.37,1486.45 1717.37,1467.55 "/>
<polyline clip-path="url(#clip170)" style="stroke:#000000; stroke-linecap:round; stroke-linejoin:round; stroke-width:4; stroke-opacity:1; fill:none" points="1911.34,1486.45 1911.34,1467.55 "/>
<path clip-path="url(#clip170)" d="M553.597 1517.37 Q549.986 1517.37 548.157 1520.93 Q546.352 1524.47 546.352 1531.6 Q546.352 1538.71 548.157 1542.27 Q549.986 1545.82 553.597 1545.82 Q557.231 1545.82 559.037 1542.27 Q560.865 1538.71 560.865 1531.6 Q560.865 1524.47 559.037 1520.93 Q557.231 1517.37 553.597 1517.37 M553.597 1513.66 Q559.407 1513.66 562.463 1518.27 Q565.541 1522.85 565.541 1531.6 Q565.541 1540.33 562.463 1544.94 Q559.407 1549.52 553.597 1549.52 Q547.787 1549.52 544.708 1544.94 Q541.652 1540.33 541.652 1531.6 Q541.652 1522.85 544.708 1518.27 Q547.787 1513.66 553.597 1513.66 Z" fill="#000000" fill-rule="nonzero" fill-opacity="1" /><path clip-path="url(#clip170)" d="M737.942 1544.91 L745.58 1544.91 L745.58 1518.55 L737.27 1520.21 L737.27 1515.95 L745.534 1514.29 L750.21 1514.29 L750.21 1544.91 L757.849 1544.91 L757.849 1548.85 L737.942 1548.85 L737.942 1544.91 Z" fill="#000000" fill-rule="nonzero" fill-opacity="1" /><path clip-path="url(#clip170)" d="M936.175 1544.91 L952.495 1544.91 L952.495 1548.85 L930.55 1548.85 L930.55 1544.91 Q933.212 1542.16 937.796 1537.53 Q942.402 1532.88 943.583 1531.53 Q945.828 1529.01 946.708 1527.27 Q947.61 1525.51 947.61 1523.82 Q947.61 1521.07 945.666 1519.33 Q943.745 1517.6 940.643 1517.6 Q938.444 1517.6 935.99 1518.36 Q933.559 1519.13 930.782 1520.68 L930.782 1515.95 Q933.606 1514.82 936.059 1514.24 Q938.513 1513.66 940.55 1513.66 Q945.921 1513.66 949.115 1516.35 Q952.309 1519.03 952.309 1523.52 Q952.309 1525.65 951.499 1527.57 Q950.712 1529.47 948.606 1532.07 Q948.027 1532.74 944.925 1535.95 Q941.823 1539.15 936.175 1544.91 Z" fill="#000000" fill-rule="nonzero" fill-opacity="1" /><path clip-path="url(#clip170)" d="M1139.73 1530.21 Q1143.09 1530.93 1144.96 1533.2 Q1146.86 1535.47 1146.86 1538.8 Q1146.86 1543.92 1143.34 1546.72 Q1139.83 1549.52 1133.34 1549.52 Q1131.17 1549.52 1128.85 1549.08 Q1126.56 1548.66 1124.11 1547.81 L1124.11 1543.29 Q1126.05 1544.43 1128.37 1545.01 Q1130.68 1545.58 1133.21 1545.58 Q1137.6 1545.58 1139.89 1543.85 Q1142.21 1542.11 1142.21 1538.8 Q1142.21 1535.75 1140.06 1534.03 Q1137.93 1532.3 1134.11 1532.3 L1130.08 1532.3 L1130.08 1528.45 L1134.29 1528.45 Q1137.74 1528.45 1139.57 1527.09 Q1141.4 1525.7 1141.4 1523.11 Q1141.4 1520.45 1139.5 1519.03 Q1137.63 1517.6 1134.11 1517.6 Q1132.19 1517.6 1129.99 1518.01 Q1127.79 1518.43 1125.15 1519.31 L1125.15 1515.14 Q1127.81 1514.4 1130.13 1514.03 Q1132.46 1513.66 1134.52 1513.66 Q1139.85 1513.66 1142.95 1516.09 Q1146.05 1518.5 1146.05 1522.62 Q1146.05 1525.49 1144.41 1527.48 Q1142.77 1529.45 1139.73 1530.21 Z" fill="#000000" fill-rule="nonzero" fill-opacity="1" /><path clip-path="url(#clip170)" d="M1332.46 1518.36 L1320.65 1536.81 L1332.46 1536.81 L1332.46 1518.36 M1331.23 1514.29 L1337.11 1514.29 L1337.11 1536.81 L1342.04 1536.81 L1342.04 1540.7 L1337.11 1540.7 L1337.11 1548.85 L1332.46 1548.85 L1332.46 1540.7 L1316.86 1540.7 L1316.86 1536.19 L1331.23 1514.29 Z" fill="#000000" fill-rule="nonzero" fill-opacity="1" /><path clip-path="url(#clip170)" d="M1513.69 1514.29 L1532.04 1514.29 L1532.04 1518.22 L1517.97 1518.22 L1517.97 1526.7 Q1518.99 1526.35 1520.01 1526.19 Q1521.03 1526 1522.04 1526 Q1527.83 1526 1531.21 1529.17 Q1534.59 1532.34 1534.59 1537.76 Q1534.59 1543.34 1531.12 1546.44 Q1527.65 1549.52 1521.33 1549.52 Q1519.15 1549.52 1516.88 1549.15 Q1514.64 1548.78 1512.23 1548.04 L1512.23 1543.34 Q1514.31 1544.47 1516.54 1545.03 Q1518.76 1545.58 1521.23 1545.58 Q1525.24 1545.58 1527.58 1543.48 Q1529.92 1541.37 1529.92 1537.76 Q1529.92 1534.15 1527.58 1532.04 Q1525.24 1529.94 1521.23 1529.94 Q1519.36 1529.94 1517.48 1530.35 Q1515.63 1530.77 1513.69 1531.65 L1513.69 1514.29 Z" fill="#000000" fill-rule="nonzero" fill-opacity="1" /><path clip-path="url(#clip170)" d="M1717.78 1529.7 Q1714.63 1529.7 1712.78 1531.86 Q1710.95 1534.01 1710.95 1537.76 Q1710.95 1541.49 1712.78 1543.66 Q1714.63 1545.82 1717.78 1545.82 Q1720.93 1545.82 1722.76 1543.66 Q1724.61 1541.49 1724.61 1537.76 Q1724.61 1534.01 1722.76 1531.86 Q1720.93 1529.7 1717.78 1529.7 M1727.06 1515.05 L1727.06 1519.31 Q1725.3 1518.48 1723.5 1518.04 Q1721.71 1517.6 1719.95 1517.6 Q1715.32 1517.6 1712.87 1520.72 Q1710.44 1523.85 1710.09 1530.17 Q1711.46 1528.15 1713.52 1527.09 Q1715.58 1526 1718.06 1526 Q1723.26 1526 1726.27 1529.17 Q1729.31 1532.32 1729.31 1537.76 Q1729.31 1543.08 1726.16 1546.3 Q1723.01 1549.52 1717.78 1549.52 Q1711.78 1549.52 1708.61 1544.94 Q1705.44 1540.33 1705.44 1531.6 Q1705.44 1523.41 1709.33 1518.55 Q1713.22 1513.66 1719.77 1513.66 Q1721.53 1513.66 1723.31 1514.01 Q1725.12 1514.36 1727.06 1515.05 Z" fill="#000000" fill-rule="nonzero" fill-opacity="1" /><path clip-path="url(#clip170)" d="M1900.23 1514.29 L1922.45 1514.29 L1922.45 1516.28 L1909.9 1548.85 L1905.02 1548.85 L1916.82 1518.22 L1900.23 1518.22 L1900.23 1514.29 Z" fill="#000000" fill-rule="nonzero" fill-opacity="1" /><polyline clip-path="url(#clip172)" style="stroke:#000000; stroke-linecap:round; stroke-linejoin:round; stroke-width:2; stroke-opacity:0.1; fill:none" points="112.177,1445.72 2352.76,1445.72 "/>
<polyline clip-path="url(#clip172)" style="stroke:#000000; stroke-linecap:round; stroke-linejoin:round; stroke-width:2; stroke-opacity:0.1; fill:none" points="112.177,1251.75 2352.76,1251.75 "/>
<polyline clip-path="url(#clip172)" style="stroke:#000000; stroke-linecap:round; stroke-linejoin:round; stroke-width:2; stroke-opacity:0.1; fill:none" points="112.177,1057.79 2352.76,1057.79 "/>
<polyline clip-path="url(#clip172)" style="stroke:#000000; stroke-linecap:round; stroke-linejoin:round; stroke-width:2; stroke-opacity:0.1; fill:none" points="112.177,863.827 2352.76,863.827 "/>
<polyline clip-path="url(#clip172)" style="stroke:#000000; stroke-linecap:round; stroke-linejoin:round; stroke-width:2; stroke-opacity:0.1; fill:none" points="112.177,669.865 2352.76,669.865 "/>
<polyline clip-path="url(#clip172)" style="stroke:#000000; stroke-linecap:round; stroke-linejoin:round; stroke-width:2; stroke-opacity:0.1; fill:none" points="112.177,475.902 2352.76,475.902 "/>
<polyline clip-path="url(#clip172)" style="stroke:#000000; stroke-linecap:round; stroke-linejoin:round; stroke-width:2; stroke-opacity:0.1; fill:none" points="112.177,281.939 2352.76,281.939 "/>
<polyline clip-path="url(#clip172)" style="stroke:#000000; stroke-linecap:round; stroke-linejoin:round; stroke-width:2; stroke-opacity:0.1; fill:none" points="112.177,87.9763 2352.76,87.9763 "/>
<polyline clip-path="url(#clip170)" style="stroke:#000000; stroke-linecap:round; stroke-linejoin:round; stroke-width:4; stroke-opacity:1; fill:none" points="112.177,1486.45 112.177,47.2441 "/>
<polyline clip-path="url(#clip170)" style="stroke:#000000; stroke-linecap:round; stroke-linejoin:round; stroke-width:4; stroke-opacity:1; fill:none" points="112.177,1445.72 131.075,1445.72 "/>
<polyline clip-path="url(#clip170)" style="stroke:#000000; stroke-linecap:round; stroke-linejoin:round; stroke-width:4; stroke-opacity:1; fill:none" points="112.177,1251.75 131.075,1251.75 "/>
<polyline clip-path="url(#clip170)" style="stroke:#000000; stroke-linecap:round; stroke-linejoin:round; stroke-width:4; stroke-opacity:1; fill:none" points="112.177,1057.79 131.075,1057.79 "/>
<polyline clip-path="url(#clip170)" style="stroke:#000000; stroke-linecap:round; stroke-linejoin:round; stroke-width:4; stroke-opacity:1; fill:none" points="112.177,863.827 131.075,863.827 "/>
<polyline clip-path="url(#clip170)" style="stroke:#000000; stroke-linecap:round; stroke-linejoin:round; stroke-width:4; stroke-opacity:1; fill:none" points="112.177,669.865 131.075,669.865 "/>
<polyline clip-path="url(#clip170)" style="stroke:#000000; stroke-linecap:round; stroke-linejoin:round; stroke-width:4; stroke-opacity:1; fill:none" points="112.177,475.902 131.075,475.902 "/>
<polyline clip-path="url(#clip170)" style="stroke:#000000; stroke-linecap:round; stroke-linejoin:round; stroke-width:4; stroke-opacity:1; fill:none" points="112.177,281.939 131.075,281.939 "/>
<polyline clip-path="url(#clip170)" style="stroke:#000000; stroke-linecap:round; stroke-linejoin:round; stroke-width:4; stroke-opacity:1; fill:none" points="112.177,87.9763 131.075,87.9763 "/>
<path clip-path="url(#clip170)" d="M64.2328 1431.51 Q60.6217 1431.51 58.793 1435.08 Q56.9875 1438.62 56.9875 1445.75 Q56.9875 1452.86 58.793 1456.42 Q60.6217 1459.96 64.2328 1459.96 Q67.867 1459.96 69.6726 1456.42 Q71.5013 1452.86 71.5013 1445.75 Q71.5013 1438.62 69.6726 1435.08 Q67.867 1431.51 64.2328 1431.51 M64.2328 1427.81 Q70.0429 1427.81 73.0985 1432.42 Q76.1772 1437 76.1772 1445.75 Q76.1772 1454.48 73.0985 1459.08 Q70.0429 1463.67 64.2328 1463.67 Q58.4226 1463.67 55.344 1459.08 Q52.2884 1454.48 52.2884 1445.75 Q52.2884 1437 55.344 1432.42 Q58.4226 1427.81 64.2328 1427.81 Z" fill="#000000" fill-rule="nonzero" fill-opacity="1" /><path clip-path="url(#clip170)" d="M56.2699 1265.1 L63.9087 1265.1 L63.9087 1238.73 L55.5986 1240.4 L55.5986 1236.14 L63.8624 1234.47 L68.5383 1234.47 L68.5383 1265.1 L76.1772 1265.1 L76.1772 1269.03 L56.2699 1269.03 L56.2699 1265.1 Z" fill="#000000" fill-rule="nonzero" fill-opacity="1" /><path clip-path="url(#clip170)" d="M59.8578 1071.13 L76.1772 1071.13 L76.1772 1075.07 L54.2328 1075.07 L54.2328 1071.13 Q56.8949 1068.38 61.4782 1063.75 Q66.0846 1059.1 67.2652 1057.76 Q69.5105 1055.23 70.3902 1053.5 Q71.2929 1051.74 71.2929 1050.05 Q71.2929 1047.29 69.3485 1045.56 Q67.4272 1043.82 64.3254 1043.82 Q62.1263 1043.82 59.6726 1044.58 Q57.2421 1045.35 54.4643 1046.9 L54.4643 1042.18 Q57.2884 1041.04 59.7421 1040.46 Q62.1958 1039.89 64.2328 1039.89 Q69.6031 1039.89 72.7976 1042.57 Q75.992 1045.26 75.992 1049.75 Q75.992 1051.88 75.1818 1053.8 Q74.3948 1055.7 72.2883 1058.29 Q71.7096 1058.96 68.6078 1062.18 Q65.5059 1065.37 59.8578 1071.13 Z" fill="#000000" fill-rule="nonzero" fill-opacity="1" /><path clip-path="url(#clip170)" d="M69.0476 862.473 Q72.404 863.191 74.279 865.459 Q76.1772 867.728 76.1772 871.061 Q76.1772 876.177 72.6587 878.978 Q69.1402 881.779 62.6587 881.779 Q60.4828 881.779 58.168 881.339 Q55.8764 880.922 53.4227 880.066 L53.4227 875.552 Q55.3671 876.686 57.6819 877.265 Q59.9967 877.843 62.5198 877.843 Q66.918 877.843 69.2096 876.107 Q71.5244 874.371 71.5244 871.061 Q71.5244 868.006 69.3717 866.293 Q67.242 864.557 63.4226 864.557 L59.3949 864.557 L59.3949 860.714 L63.6078 860.714 Q67.0569 860.714 68.8855 859.348 Q70.7142 857.959 70.7142 855.367 Q70.7142 852.705 68.8161 851.293 Q66.9411 849.858 63.4226 849.858 Q61.5013 849.858 59.3023 850.274 Q57.1032 850.691 54.4643 851.57 L54.4643 847.404 Q57.1264 846.663 59.4412 846.293 Q61.7791 845.922 63.8393 845.922 Q69.1633 845.922 72.2652 848.353 Q75.367 850.76 75.367 854.881 Q75.367 857.751 73.7235 859.742 Q72.08 861.709 69.0476 862.473 Z" fill="#000000" fill-rule="nonzero" fill-opacity="1" /><path clip-path="url(#clip170)" d="M66.5939 656.659 L54.7884 675.108 L66.5939 675.108 L66.5939 656.659 M65.367 652.585 L71.2466 652.585 L71.2466 675.108 L76.1772 675.108 L76.1772 678.996 L71.2466 678.996 L71.2466 687.145 L66.5939 687.145 L66.5939 678.996 L50.9921 678.996 L50.9921 674.483 L65.367 652.585 Z" fill="#000000" fill-rule="nonzero" fill-opacity="1" /><path clip-path="url(#clip170)" d="M55.2745 458.622 L73.6309 458.622 L73.6309 462.557 L59.5569 462.557 L59.5569 471.029 Q60.5754 470.682 61.5939 470.52 Q62.6124 470.335 63.6309 470.335 Q69.418 470.335 72.7976 473.506 Q76.1772 476.677 76.1772 482.094 Q76.1772 487.673 72.705 490.774 Q69.2328 493.853 62.9134 493.853 Q60.7374 493.853 58.4689 493.483 Q56.2236 493.112 53.8162 492.372 L53.8162 487.673 Q55.8995 488.807 58.1217 489.362 Q60.3439 489.918 62.8208 489.918 Q66.8254 489.918 69.1633 487.811 Q71.5013 485.705 71.5013 482.094 Q71.5013 478.483 69.1633 476.376 Q66.8254 474.27 62.8208 474.27 Q60.9458 474.27 59.0708 474.687 Q57.2189 475.103 55.2745 475.983 L55.2745 458.622 Z" fill="#000000" fill-rule="nonzero" fill-opacity="1" /><path clip-path="url(#clip170)" d="M64.6495 280.076 Q61.5013 280.076 59.6495 282.228 Q57.8208 284.381 57.8208 288.131 Q57.8208 291.858 59.6495 294.034 Q61.5013 296.187 64.6495 296.187 Q67.7976 296.187 69.6263 294.034 Q71.4781 291.858 71.4781 288.131 Q71.4781 284.381 69.6263 282.228 Q67.7976 280.076 64.6495 280.076 M73.9318 265.423 L73.9318 269.682 Q72.1726 268.849 70.367 268.409 Q68.5846 267.969 66.8254 267.969 Q62.1958 267.969 59.7421 271.094 Q57.3115 274.219 56.9643 280.539 Q58.33 278.525 60.3902 277.46 Q62.4504 276.372 64.9272 276.372 Q70.1355 276.372 73.1448 279.543 Q76.1772 282.691 76.1772 288.131 Q76.1772 293.455 73.029 296.673 Q69.8809 299.89 64.6495 299.89 Q58.6541 299.89 55.4828 295.307 Q52.3116 290.701 52.3116 281.974 Q52.3116 273.779 56.2004 268.918 Q60.0893 264.034 66.6402 264.034 Q68.3994 264.034 70.1818 264.381 Q71.9874 264.728 73.9318 265.423 Z" fill="#000000" fill-rule="nonzero" fill-opacity="1" /><path clip-path="url(#clip170)" d="M53.9551 70.6963 L76.1772 70.6963 L76.1772 72.687 L63.6309 105.256 L58.7467 105.256 L70.5522 74.6314 L53.9551 74.6314 L53.9551 70.6963 Z" fill="#000000" fill-rule="nonzero" fill-opacity="1" /><circle clip-path="url(#clip172)" cx="941.522" cy="863.827" r="14.4" fill="#cb3c33" fill-rule="evenodd" fill-opacity="1" stroke="#000000" stroke-opacity="1" stroke-width="3.2"/>
<circle clip-path="url(#clip172)" cx="1135.49" cy="1057.79" r="14.4" fill="#cb3c33" fill-rule="evenodd" fill-opacity="1" stroke="#000000" stroke-opacity="1" stroke-width="3.2"/>
<circle clip-path="url(#clip172)" cx="1329.45" cy="1251.75" r="14.4" fill="#cb3c33" fill-rule="evenodd" fill-opacity="1" stroke="#000000" stroke-opacity="1" stroke-width="3.2"/>
<circle clip-path="url(#clip172)" cx="1523.41" cy="1445.72" r="14.4" fill="#cb3c33" fill-rule="evenodd" fill-opacity="1" stroke="#000000" stroke-opacity="1" stroke-width="3.2"/>
<circle clip-path="url(#clip172)" cx="1135.49" cy="863.827" r="14.4" fill="#cb3c33" fill-rule="evenodd" fill-opacity="1" stroke="#000000" stroke-opacity="1" stroke-width="3.2"/>
<circle clip-path="url(#clip172)" cx="1329.45" cy="1057.79" r="14.4" fill="#cb3c33" fill-rule="evenodd" fill-opacity="1" stroke="#000000" stroke-opacity="1" stroke-width="3.2"/>
<circle clip-path="url(#clip172)" cx="1523.41" cy="1251.75" r="14.4" fill="#cb3c33" fill-rule="evenodd" fill-opacity="1" stroke="#000000" stroke-opacity="1" stroke-width="3.2"/>
<circle clip-path="url(#clip172)" cx="1717.37" cy="1445.72" r="14.4" fill="#cb3c33" fill-rule="evenodd" fill-opacity="1" stroke="#000000" stroke-opacity="1" stroke-width="3.2"/>
<circle clip-path="url(#clip172)" cx="1329.45" cy="863.827" r="14.4" fill="#cb3c33" fill-rule="evenodd" fill-opacity="1" stroke="#000000" stroke-opacity="1" stroke-width="3.2"/>
<circle clip-path="url(#clip172)" cx="1523.41" cy="1057.79" r="14.4" fill="#cb3c33" fill-rule="evenodd" fill-opacity="1" stroke="#000000" stroke-opacity="1" stroke-width="3.2"/>
<circle clip-path="url(#clip172)" cx="1717.37" cy="1251.75" r="14.4" fill="#cb3c33" fill-rule="evenodd" fill-opacity="1" stroke="#000000" stroke-opacity="1" stroke-width="3.2"/>
<circle clip-path="url(#clip172)" cx="1911.34" cy="1445.72" r="14.4" fill="#cb3c33" fill-rule="evenodd" fill-opacity="1" stroke="#000000" stroke-opacity="1" stroke-width="3.2"/>
<circle clip-path="url(#clip172)" cx="553.597" cy="1445.72" r="14.4" fill="#cb3c33" fill-rule="evenodd" fill-opacity="1" stroke="none"/>
<circle clip-path="url(#clip172)" cx="553.597" cy="1251.75" r="14.4" fill="#cb3c33" fill-rule="evenodd" fill-opacity="1" stroke="none"/>
<circle clip-path="url(#clip172)" cx="553.597" cy="1057.79" r="14.4" fill="#cb3c33" fill-rule="evenodd" fill-opacity="1" stroke="none"/>
<circle clip-path="url(#clip172)" cx="553.597" cy="863.827" r="14.4" fill="#cb3c33" fill-rule="evenodd" fill-opacity="1" stroke="none"/>
<path clip-path="url(#clip172)" d="M731.56 653.865 L731.56 685.865 L763.56 685.865 L763.56 653.865 L731.56 653.865 Z" fill="#389826" fill-rule="evenodd" fill-opacity="1" stroke="#000000" stroke-opacity="1" stroke-width="3.2"/>
<path clip-path="url(#clip172)" d="M731.56 459.902 L731.56 491.902 L763.56 491.902 L763.56 459.902 L731.56 459.902 Z" fill="#389826" fill-rule="evenodd" fill-opacity="1" stroke="#000000" stroke-opacity="1" stroke-width="3.2"/>
<path clip-path="url(#clip172)" d="M925.522 653.865 L925.522 685.865 L957.522 685.865 L957.522 653.865 L925.522 653.865 Z" fill="#389826" fill-rule="evenodd" fill-opacity="1" stroke="#000000" stroke-opacity="1" stroke-width="3.2"/>
<path clip-path="url(#clip172)" d="M731.56 265.939 L731.56 297.939 L763.56 297.939 L763.56 265.939 L731.56 265.939 Z" fill="#389826" fill-rule="evenodd" fill-opacity="1" stroke="#000000" stroke-opacity="1" stroke-width="3.2"/>
<path clip-path="url(#clip172)" d="M925.522 459.902 L925.522 491.902 L957.522 491.902 L957.522 459.902 L925.522 459.902 Z" fill="#389826" fill-rule="evenodd" fill-opacity="1" stroke="#000000" stroke-opacity="1" stroke-width="3.2"/>
<path clip-path="url(#clip172)" d="M1119.49 653.865 L1119.49 685.865 L1151.49 685.865 L1151.49 653.865 L1119.49 653.865 Z" fill="#389826" fill-rule="evenodd" fill-opacity="1" stroke="#000000" stroke-opacity="1" stroke-width="3.2"/>
<path clip-path="url(#clip172)" d="M731.56 1429.72 L731.56 1461.72 L763.56 1461.72 L763.56 1429.72 L731.56 1429.72 Z" fill="#389826" fill-rule="evenodd" fill-opacity="1" stroke="none"/>
<path clip-path="url(#clip172)" d="M731.56 1235.75 L731.56 1267.75 L763.56 1267.75 L763.56 1235.75 L731.56 1235.75 Z" fill="#389826" fill-rule="evenodd" fill-opacity="1" stroke="none"/>
<path clip-path="url(#clip172)" d="M925.522 1429.72 L925.522 1461.72 L957.522 1461.72 L957.522 1429.72 L925.522 1429.72 Z" fill="#389826" fill-rule="evenodd" fill-opacity="1" stroke="none"/>
<path clip-path="url(#clip172)" d="M731.56 1041.79 L731.56 1073.79 L763.56 1073.79 L763.56 1041.79 L731.56 1041.79 Z" fill="#389826" fill-rule="evenodd" fill-opacity="1" stroke="none"/>
<path clip-path="url(#clip172)" d="M925.522 1235.75 L925.522 1267.75 L957.522 1267.75 L957.522 1235.75 L925.522 1235.75 Z" fill="#389826" fill-rule="evenodd" fill-opacity="1" stroke="none"/>
<path clip-path="url(#clip172)" d="M1119.49 1429.72 L1119.49 1461.72 L1151.49 1461.72 L1151.49 1429.72 L1119.49 1429.72 Z" fill="#389826" fill-rule="evenodd" fill-opacity="1" stroke="none"/>
<path clip-path="url(#clip172)" d="M537.597 653.865 L537.597 685.865 L569.597 685.865 L569.597 653.865 L537.597 653.865 Z" fill="#389826" fill-rule="evenodd" fill-opacity="1" stroke="none"/>
<path clip-path="url(#clip172)" d="M731.56 847.827 L731.56 879.827 L763.56 879.827 L763.56 847.827 L731.56 847.827 Z" fill="#389826" fill-rule="evenodd" fill-opacity="1" stroke="none"/>
<path clip-path="url(#clip172)" d="M925.522 1041.79 L925.522 1073.79 L957.522 1073.79 L957.522 1041.79 L925.522 1041.79 Z" fill="#389826" fill-rule="evenodd" fill-opacity="1" stroke="none"/>
<path clip-path="url(#clip172)" d="M1119.49 1235.75 L1119.49 1267.75 L1151.49 1267.75 L1151.49 1235.75 L1119.49 1235.75 Z" fill="#389826" fill-rule="evenodd" fill-opacity="1" stroke="none"/>
<path clip-path="url(#clip172)" d="M1313.45 1429.72 L1313.45 1461.72 L1345.45 1461.72 L1345.45 1429.72 L1313.45 1429.72 Z" fill="#389826" fill-rule="evenodd" fill-opacity="1" stroke="none"/>
<path clip-path="url(#clip172)" d="M537.597 459.902 L537.597 491.902 L569.597 491.902 L569.597 459.902 L537.597 459.902 Z" fill="#389826" fill-rule="evenodd" fill-opacity="1" stroke="none"/>
<path clip-path="url(#clip172)" d="M537.597 265.939 L537.597 297.939 L569.597 297.939 L569.597 265.939 L537.597 265.939 Z" fill="#389826" fill-rule="evenodd" fill-opacity="1" stroke="none"/>
<path clip-path="url(#clip172)" d="M537.597 71.9763 L537.597 103.976 L569.597 103.976 L569.597 71.9763 L537.597 71.9763 Z" fill="#389826" fill-rule="evenodd" fill-opacity="1" stroke="none"/>
<path clip-path="url(#clip170)" d="M1508.55 354.418 L2278.07 354.418 L2278.07 95.2176 L1508.55 95.2176  Z" fill="#ffffff" fill-rule="evenodd" fill-opacity="1"/>
<polyline clip-path="url(#clip170)" style="stroke:#000000; stroke-linecap:round; stroke-linejoin:round; stroke-width:4; stroke-opacity:1; fill:none" points="1508.55,354.418 2278.07,354.418 2278.07,95.2176 1508.55,95.2176 1508.55,354.418 "/>
<circle clip-path="url(#clip170)" cx="1608.13" cy="147.058" r="20.48" fill="#cb3c33" fill-rule="evenodd" fill-opacity="1" stroke="#000000" stroke-opacity="1" stroke-width="4.55111"/>
<path clip-path="url(#clip170)" d="M1707.71 129.778 L1712.39 129.778 L1712.39 164.338 L1707.71 164.338 L1707.71 129.778 Z" fill="#000000" fill-rule="nonzero" fill-opacity="1" /><path clip-path="url(#clip170)" d="M1743.06 148.689 L1743.06 164.338 L1738.8 164.338 L1738.8 148.828 Q1738.8 145.148 1737.37 143.319 Q1735.93 141.49 1733.06 141.49 Q1729.61 141.49 1727.62 143.69 Q1725.63 145.889 1725.63 149.685 L1725.63 164.338 L1721.35 164.338 L1721.35 138.412 L1725.63 138.412 L1725.63 142.44 Q1727.16 140.102 1729.22 138.944 Q1731.3 137.787 1734.01 137.787 Q1738.48 137.787 1740.77 140.565 Q1743.06 143.319 1743.06 148.689 Z" fill="#000000" fill-rule="nonzero" fill-opacity="1" /><path clip-path="url(#clip170)" d="M1768.62 142.347 L1768.62 128.319 L1772.88 128.319 L1772.88 164.338 L1768.62 164.338 L1768.62 160.449 Q1767.27 162.763 1765.21 163.898 Q1763.18 165.009 1760.31 165.009 Q1755.61 165.009 1752.64 161.259 Q1749.71 157.509 1749.71 151.398 Q1749.71 145.287 1752.64 141.537 Q1755.61 137.787 1760.31 137.787 Q1763.18 137.787 1765.21 138.921 Q1767.27 140.032 1768.62 142.347 M1754.1 151.398 Q1754.1 156.097 1756.02 158.782 Q1757.97 161.444 1761.35 161.444 Q1764.73 161.444 1766.67 158.782 Q1768.62 156.097 1768.62 151.398 Q1768.62 146.699 1766.67 144.037 Q1764.73 141.352 1761.35 141.352 Q1757.97 141.352 1756.02 144.037 Q1754.1 146.699 1754.1 151.398 Z" fill="#000000" fill-rule="nonzero" fill-opacity="1" /><path clip-path="url(#clip170)" d="M1803.83 150.31 L1803.83 152.393 L1784.24 152.393 Q1784.52 156.791 1786.88 159.106 Q1789.27 161.398 1793.5 161.398 Q1795.95 161.398 1798.25 160.796 Q1800.56 160.194 1802.83 158.99 L1802.83 163.018 Q1800.54 163.99 1798.13 164.5 Q1795.72 165.009 1793.25 165.009 Q1787.04 165.009 1783.41 161.398 Q1779.8 157.787 1779.8 151.629 Q1779.8 145.264 1783.22 141.537 Q1786.67 137.787 1792.51 137.787 Q1797.74 137.787 1800.77 141.166 Q1803.83 144.523 1803.83 150.31 M1799.57 149.06 Q1799.52 145.565 1797.6 143.481 Q1795.7 141.398 1792.55 141.398 Q1788.99 141.398 1786.83 143.412 Q1784.7 145.426 1784.38 149.083 L1799.57 149.06 Z" fill="#000000" fill-rule="nonzero" fill-opacity="1" /><path clip-path="url(#clip170)" d="M1814.94 160.449 L1814.94 174.199 L1810.65 174.199 L1810.65 138.412 L1814.94 138.412 L1814.94 142.347 Q1816.28 140.032 1818.32 138.921 Q1820.38 137.787 1823.22 137.787 Q1827.95 137.787 1830.89 141.537 Q1833.85 145.287 1833.85 151.398 Q1833.85 157.509 1830.89 161.259 Q1827.95 165.009 1823.22 165.009 Q1820.38 165.009 1818.32 163.898 Q1816.28 162.763 1814.94 160.449 M1829.43 151.398 Q1829.43 146.699 1827.48 144.037 Q1825.56 141.352 1822.18 141.352 Q1818.8 141.352 1816.86 144.037 Q1814.94 146.699 1814.94 151.398 Q1814.94 156.097 1816.86 158.782 Q1818.8 161.444 1822.18 161.444 Q1825.56 161.444 1827.48 158.782 Q1829.43 156.097 1829.43 151.398 Z" fill="#000000" fill-rule="nonzero" fill-opacity="1" /><path clip-path="url(#clip170)" d="M1863.08 150.31 L1863.08 152.393 L1843.5 152.393 Q1843.78 156.791 1846.14 159.106 Q1848.52 161.398 1852.76 161.398 Q1855.21 161.398 1857.51 160.796 Q1859.82 160.194 1862.09 158.99 L1862.09 163.018 Q1859.8 163.99 1857.39 164.5 Q1854.98 165.009 1852.51 165.009 Q1846.3 165.009 1842.67 161.398 Q1839.06 157.787 1839.06 151.629 Q1839.06 145.264 1842.48 141.537 Q1845.93 137.787 1851.76 137.787 Q1857 137.787 1860.03 141.166 Q1863.08 144.523 1863.08 150.31 M1858.82 149.06 Q1858.78 145.565 1856.86 143.481 Q1854.96 141.398 1851.81 141.398 Q1848.25 141.398 1846.09 143.412 Q1843.96 145.426 1843.64 149.083 L1858.82 149.06 Z" fill="#000000" fill-rule="nonzero" fill-opacity="1" /><path clip-path="url(#clip170)" d="M1891.63 148.689 L1891.63 164.338 L1887.37 164.338 L1887.37 148.828 Q1887.37 145.148 1885.93 143.319 Q1884.5 141.49 1881.63 141.49 Q1878.18 141.49 1876.19 143.69 Q1874.2 145.889 1874.2 149.685 L1874.2 164.338 L1869.91 164.338 L1869.91 138.412 L1874.2 138.412 L1874.2 142.44 Q1875.72 140.102 1877.78 138.944 Q1879.87 137.787 1882.57 137.787 Q1887.04 137.787 1889.33 140.565 Q1891.63 143.319 1891.63 148.689 Z" fill="#000000" fill-rule="nonzero" fill-opacity="1" /><path clip-path="url(#clip170)" d="M1917.18 142.347 L1917.18 128.319 L1921.44 128.319 L1921.44 164.338 L1917.18 164.338 L1917.18 160.449 Q1915.84 162.763 1913.78 163.898 Q1911.74 165.009 1908.87 165.009 Q1904.17 165.009 1901.21 161.259 Q1898.27 157.509 1898.27 151.398 Q1898.27 145.287 1901.21 141.537 Q1904.17 137.787 1908.87 137.787 Q1911.74 137.787 1913.78 138.921 Q1915.84 140.032 1917.18 142.347 M1902.67 151.398 Q1902.67 156.097 1904.59 158.782 Q1906.53 161.444 1909.91 161.444 Q1913.29 161.444 1915.24 158.782 Q1917.18 156.097 1917.18 151.398 Q1917.18 146.699 1915.24 144.037 Q1913.29 141.352 1909.91 141.352 Q1906.53 141.352 1904.59 144.037 Q1902.67 146.699 1902.67 151.398 Z" fill="#000000" fill-rule="nonzero" fill-opacity="1" /><path clip-path="url(#clip170)" d="M1952.39 150.31 L1952.39 152.393 L1932.81 152.393 Q1933.08 156.791 1935.44 159.106 Q1937.83 161.398 1942.07 161.398 Q1944.52 161.398 1946.81 160.796 Q1949.13 160.194 1951.39 158.99 L1951.39 163.018 Q1949.1 163.99 1946.69 164.5 Q1944.29 165.009 1941.81 165.009 Q1935.61 165.009 1931.97 161.398 Q1928.36 157.787 1928.36 151.629 Q1928.36 145.264 1931.79 141.537 Q1935.24 137.787 1941.07 137.787 Q1946.3 137.787 1949.33 141.166 Q1952.39 144.523 1952.39 150.31 M1948.13 149.06 Q1948.08 145.565 1946.16 143.481 Q1944.26 141.398 1941.12 141.398 Q1937.55 141.398 1935.4 143.412 Q1933.27 145.426 1932.94 149.083 L1948.13 149.06 Z" fill="#000000" fill-rule="nonzero" fill-opacity="1" /><path clip-path="url(#clip170)" d="M1980.93 148.689 L1980.93 164.338 L1976.67 164.338 L1976.67 148.828 Q1976.67 145.148 1975.24 143.319 Q1973.8 141.49 1970.93 141.49 Q1967.48 141.49 1965.49 143.69 Q1963.5 145.889 1963.5 149.685 L1963.5 164.338 L1959.22 164.338 L1959.22 138.412 L1963.5 138.412 L1963.5 142.44 Q1965.03 140.102 1967.09 138.944 Q1969.17 137.787 1971.88 137.787 Q1976.35 137.787 1978.64 140.565 Q1980.93 143.319 1980.93 148.689 Z" fill="#000000" fill-rule="nonzero" fill-opacity="1" /><path clip-path="url(#clip170)" d="M1993.64 131.051 L1993.64 138.412 L2002.41 138.412 L2002.41 141.722 L1993.64 141.722 L1993.64 155.796 Q1993.64 158.967 1994.5 159.87 Q1995.38 160.773 1998.04 160.773 L2002.41 160.773 L2002.41 164.338 L1998.04 164.338 Q1993.11 164.338 1991.23 162.509 Q1989.36 160.657 1989.36 155.796 L1989.36 141.722 L1986.23 141.722 L1986.23 138.412 L1989.36 138.412 L1989.36 131.051 L1993.64 131.051 Z" fill="#000000" fill-rule="nonzero" fill-opacity="1" /><circle clip-path="url(#clip170)" cx="1608.13" cy="198.898" r="23.04" fill="#cb3c33" fill-rule="evenodd" fill-opacity="1" stroke="none"/>
<path clip-path="url(#clip170)" d="M1729.96 182.752 L1729.96 187.312 Q1727.3 186.039 1724.94 185.414 Q1722.58 184.789 1720.38 184.789 Q1716.56 184.789 1714.47 186.27 Q1712.41 187.752 1712.41 190.483 Q1712.41 192.775 1713.78 193.955 Q1715.17 195.113 1719.01 195.83 L1721.83 196.409 Q1727.07 197.405 1729.54 199.928 Q1732.04 202.428 1732.04 206.641 Q1732.04 211.664 1728.66 214.256 Q1725.31 216.849 1718.8 216.849 Q1716.35 216.849 1713.57 216.293 Q1710.82 215.738 1707.85 214.65 L1707.85 209.835 Q1710.7 211.432 1713.43 212.242 Q1716.16 213.053 1718.8 213.053 Q1722.81 213.053 1724.98 211.479 Q1727.16 209.904 1727.16 206.988 Q1727.16 204.442 1725.58 203.006 Q1724.03 201.571 1720.47 200.854 L1717.62 200.298 Q1712.39 199.256 1710.05 197.034 Q1707.71 194.812 1707.71 190.854 Q1707.71 186.27 1710.93 183.631 Q1714.17 180.993 1719.84 180.993 Q1722.27 180.993 1724.8 181.432 Q1727.32 181.872 1729.96 182.752 Z" fill="#000000" fill-rule="nonzero" fill-opacity="1" /><path clip-path="url(#clip170)" d="M1750.93 203.145 Q1745.77 203.145 1743.78 204.326 Q1741.79 205.506 1741.79 208.354 Q1741.79 210.622 1743.27 211.965 Q1744.77 213.284 1747.34 213.284 Q1750.89 213.284 1753.02 210.784 Q1755.17 208.261 1755.17 204.094 L1755.17 203.145 L1750.93 203.145 M1759.43 201.386 L1759.43 216.178 L1755.17 216.178 L1755.17 212.242 Q1753.71 214.603 1751.53 215.738 Q1749.36 216.849 1746.21 216.849 Q1742.23 216.849 1739.87 214.627 Q1737.53 212.381 1737.53 208.631 Q1737.53 204.256 1740.45 202.034 Q1743.39 199.812 1749.2 199.812 L1755.17 199.812 L1755.17 199.395 Q1755.17 196.455 1753.22 194.858 Q1751.3 193.238 1747.81 193.238 Q1745.58 193.238 1743.48 193.77 Q1741.37 194.303 1739.43 195.367 L1739.43 191.432 Q1741.77 190.53 1743.96 190.09 Q1746.16 189.627 1748.25 189.627 Q1753.87 189.627 1756.65 192.543 Q1759.43 195.46 1759.43 201.386 Z" fill="#000000" fill-rule="nonzero" fill-opacity="1" /><path clip-path="url(#clip170)" d="M1772.41 182.891 L1772.41 190.252 L1781.19 190.252 L1781.19 193.562 L1772.41 193.562 L1772.41 207.636 Q1772.41 210.807 1773.27 211.71 Q1774.15 212.613 1776.81 212.613 L1781.19 212.613 L1781.19 216.178 L1776.81 216.178 Q1771.88 216.178 1770.01 214.349 Q1768.13 212.497 1768.13 207.636 L1768.13 193.562 L1765.01 193.562 L1765.01 190.252 L1768.13 190.252 L1768.13 182.891 L1772.41 182.891 Z" fill="#000000" fill-rule="nonzero" fill-opacity="1" /><path clip-path="url(#clip170)" d="M1786.35 205.946 L1786.35 190.252 L1790.61 190.252 L1790.61 205.784 Q1790.61 209.465 1792.04 211.316 Q1793.48 213.145 1796.35 213.145 Q1799.8 213.145 1801.79 210.946 Q1803.8 208.747 1803.8 204.951 L1803.8 190.252 L1808.06 190.252 L1808.06 216.178 L1803.8 216.178 L1803.8 212.196 Q1802.25 214.557 1800.19 215.715 Q1798.15 216.849 1795.45 216.849 Q1790.98 216.849 1788.66 214.071 Q1786.35 211.293 1786.35 205.946 M1797.07 189.627 L1797.07 189.627 Z" fill="#000000" fill-rule="nonzero" fill-opacity="1" /><path clip-path="url(#clip170)" d="M1831.86 194.233 Q1831.14 193.817 1830.28 193.631 Q1829.45 193.423 1828.43 193.423 Q1824.82 193.423 1822.88 195.784 Q1820.95 198.122 1820.95 202.52 L1820.95 216.178 L1816.67 216.178 L1816.67 190.252 L1820.95 190.252 L1820.95 194.28 Q1822.3 191.918 1824.45 190.784 Q1826.6 189.627 1829.68 189.627 Q1830.12 189.627 1830.65 189.696 Q1831.19 189.743 1831.83 189.858 L1831.86 194.233 Z" fill="#000000" fill-rule="nonzero" fill-opacity="1" /><path clip-path="url(#clip170)" d="M1848.11 203.145 Q1842.95 203.145 1840.95 204.326 Q1838.96 205.506 1838.96 208.354 Q1838.96 210.622 1840.45 211.965 Q1841.95 213.284 1844.52 213.284 Q1848.06 213.284 1850.19 210.784 Q1852.34 208.261 1852.34 204.094 L1852.34 203.145 L1848.11 203.145 M1856.6 201.386 L1856.6 216.178 L1852.34 216.178 L1852.34 212.242 Q1850.89 214.603 1848.71 215.738 Q1846.53 216.849 1843.39 216.849 Q1839.4 216.849 1837.04 214.627 Q1834.7 212.381 1834.7 208.631 Q1834.7 204.256 1837.62 202.034 Q1840.56 199.812 1846.37 199.812 L1852.34 199.812 L1852.34 199.395 Q1852.34 196.455 1850.4 194.858 Q1848.48 193.238 1844.98 193.238 Q1842.76 193.238 1840.65 193.77 Q1838.55 194.303 1836.6 195.367 L1836.6 191.432 Q1838.94 190.53 1841.14 190.09 Q1843.34 189.627 1845.42 189.627 Q1851.05 189.627 1853.82 192.543 Q1856.6 195.46 1856.6 201.386 Z" fill="#000000" fill-rule="nonzero" fill-opacity="1" /><path clip-path="url(#clip170)" d="M1869.59 182.891 L1869.59 190.252 L1878.36 190.252 L1878.36 193.562 L1869.59 193.562 L1869.59 207.636 Q1869.59 210.807 1870.45 211.71 Q1871.32 212.613 1873.99 212.613 L1878.36 212.613 L1878.36 216.178 L1873.99 216.178 Q1869.06 216.178 1867.18 214.349 Q1865.31 212.497 1865.31 207.636 L1865.31 193.562 L1862.18 193.562 L1862.18 190.252 L1865.31 190.252 L1865.31 182.891 L1869.59 182.891 Z" fill="#000000" fill-rule="nonzero" fill-opacity="1" /><path clip-path="url(#clip170)" d="M1906.14 202.15 L1906.14 204.233 L1886.56 204.233 Q1886.83 208.631 1889.2 210.946 Q1891.58 213.238 1895.82 213.238 Q1898.27 213.238 1900.56 212.636 Q1902.88 212.034 1905.14 210.83 L1905.14 214.858 Q1902.85 215.83 1900.45 216.34 Q1898.04 216.849 1895.56 216.849 Q1889.36 216.849 1885.72 213.238 Q1882.11 209.627 1882.11 203.469 Q1882.11 197.104 1885.54 193.377 Q1888.99 189.627 1894.82 189.627 Q1900.05 189.627 1903.08 193.006 Q1906.14 196.363 1906.14 202.15 M1901.88 200.9 Q1901.83 197.405 1899.91 195.321 Q1898.01 193.238 1894.87 193.238 Q1891.3 193.238 1889.15 195.252 Q1887.02 197.266 1886.7 200.923 L1901.88 200.9 Z" fill="#000000" fill-rule="nonzero" fill-opacity="1" /><path clip-path="url(#clip170)" d="M1930.19 194.187 L1930.19 180.159 L1934.45 180.159 L1934.45 216.178 L1930.19 216.178 L1930.19 212.289 Q1928.85 214.603 1926.79 215.738 Q1924.75 216.849 1921.88 216.849 Q1917.18 216.849 1914.22 213.099 Q1911.28 209.349 1911.28 203.238 Q1911.28 197.127 1914.22 193.377 Q1917.18 189.627 1921.88 189.627 Q1924.75 189.627 1926.79 190.761 Q1928.85 191.872 1930.19 194.187 M1915.68 203.238 Q1915.68 207.937 1917.6 210.622 Q1919.54 213.284 1922.92 213.284 Q1926.3 213.284 1928.25 210.622 Q1930.19 207.937 1930.19 203.238 Q1930.19 198.539 1928.25 195.877 Q1926.3 193.192 1922.92 193.192 Q1919.54 193.192 1917.6 195.877 Q1915.68 198.539 1915.68 203.238 Z" fill="#000000" fill-rule="nonzero" fill-opacity="1" /><path clip-path="url(#clip170)" d="M1958.48 181.618 L1963.15 181.618 L1963.15 216.178 L1958.48 216.178 L1958.48 181.618 Z" fill="#000000" fill-rule="nonzero" fill-opacity="1" /><path clip-path="url(#clip170)" d="M1993.82 200.529 L1993.82 216.178 L1989.56 216.178 L1989.56 200.668 Q1989.56 196.988 1988.13 195.159 Q1986.69 193.33 1983.82 193.33 Q1980.38 193.33 1978.38 195.53 Q1976.39 197.729 1976.39 201.525 L1976.39 216.178 L1972.11 216.178 L1972.11 190.252 L1976.39 190.252 L1976.39 194.28 Q1977.92 191.942 1979.98 190.784 Q1982.06 189.627 1984.77 189.627 Q1989.24 189.627 1991.53 192.405 Q1993.82 195.159 1993.82 200.529 Z" fill="#000000" fill-rule="nonzero" fill-opacity="1" /><path clip-path="url(#clip170)" d="M2019.38 194.187 L2019.38 180.159 L2023.64 180.159 L2023.64 216.178 L2019.38 216.178 L2019.38 212.289 Q2018.04 214.603 2015.98 215.738 Q2013.94 216.849 2011.07 216.849 Q2006.37 216.849 2003.41 213.099 Q2000.47 209.349 2000.47 203.238 Q2000.47 197.127 2003.41 193.377 Q2006.37 189.627 2011.07 189.627 Q2013.94 189.627 2015.98 190.761 Q2018.04 191.872 2019.38 194.187 M2004.87 203.238 Q2004.87 207.937 2006.79 210.622 Q2008.73 213.284 2012.11 213.284 Q2015.49 213.284 2017.44 210.622 Q2019.38 207.937 2019.38 203.238 Q2019.38 198.539 2017.44 195.877 Q2015.49 193.192 2012.11 193.192 Q2008.73 193.192 2006.79 195.877 Q2004.87 198.539 2004.87 203.238 Z" fill="#000000" fill-rule="nonzero" fill-opacity="1" /><path clip-path="url(#clip170)" d="M2054.59 202.15 L2054.59 204.233 L2035 204.233 Q2035.28 208.631 2037.64 210.946 Q2040.03 213.238 2044.26 213.238 Q2046.72 213.238 2049.01 212.636 Q2051.32 212.034 2053.59 210.83 L2053.59 214.858 Q2051.3 215.83 2048.89 216.34 Q2046.49 216.849 2044.01 216.849 Q2037.81 216.849 2034.17 213.238 Q2030.56 209.627 2030.56 203.469 Q2030.56 197.104 2033.99 193.377 Q2037.44 189.627 2043.27 189.627 Q2048.5 189.627 2051.53 193.006 Q2054.59 196.363 2054.59 202.15 M2050.33 200.9 Q2050.28 197.405 2048.36 195.321 Q2046.46 193.238 2043.31 193.238 Q2039.75 193.238 2037.6 195.252 Q2035.47 197.266 2035.14 200.923 L2050.33 200.9 Z" fill="#000000" fill-rule="nonzero" fill-opacity="1" /><path clip-path="url(#clip170)" d="M2065.7 212.289 L2065.7 226.039 L2061.42 226.039 L2061.42 190.252 L2065.7 190.252 L2065.7 194.187 Q2067.04 191.872 2069.08 190.761 Q2071.14 189.627 2073.99 189.627 Q2078.71 189.627 2081.65 193.377 Q2084.61 197.127 2084.61 203.238 Q2084.61 209.349 2081.65 213.099 Q2078.71 216.849 2073.99 216.849 Q2071.14 216.849 2069.08 215.738 Q2067.04 214.603 2065.7 212.289 M2080.19 203.238 Q2080.19 198.539 2078.25 195.877 Q2076.32 193.192 2072.94 193.192 Q2069.56 193.192 2067.62 195.877 Q2065.7 198.539 2065.7 203.238 Q2065.7 207.937 2067.62 210.622 Q2069.56 213.284 2072.94 213.284 Q2076.32 213.284 2078.25 210.622 Q2080.19 207.937 2080.19 203.238 Z" fill="#000000" fill-rule="nonzero" fill-opacity="1" /><path clip-path="url(#clip170)" d="M2113.85 202.15 L2113.85 204.233 L2094.26 204.233 Q2094.54 208.631 2096.9 210.946 Q2099.29 213.238 2103.52 213.238 Q2105.98 213.238 2108.27 212.636 Q2110.58 212.034 2112.85 210.83 L2112.85 214.858 Q2110.56 215.83 2108.15 216.34 Q2105.74 216.849 2103.27 216.849 Q2097.06 216.849 2093.43 213.238 Q2089.82 209.627 2089.82 203.469 Q2089.82 197.104 2093.24 193.377 Q2096.69 189.627 2102.53 189.627 Q2107.76 189.627 2110.79 193.006 Q2113.85 196.363 2113.85 202.15 M2109.59 200.9 Q2109.54 197.405 2107.62 195.321 Q2105.72 193.238 2102.57 193.238 Q2099.01 193.238 2096.86 195.252 Q2094.73 197.266 2094.4 200.923 L2109.59 200.9 Z" fill="#000000" fill-rule="nonzero" fill-opacity="1" /><path clip-path="url(#clip170)" d="M2142.39 200.529 L2142.39 216.178 L2138.13 216.178 L2138.13 200.668 Q2138.13 196.988 2136.69 195.159 Q2135.26 193.33 2132.39 193.33 Q2128.94 193.33 2126.95 195.53 Q2124.96 197.729 2124.96 201.525 L2124.96 216.178 L2120.68 216.178 L2120.68 190.252 L2124.96 190.252 L2124.96 194.28 Q2126.49 191.942 2128.55 190.784 Q2130.63 189.627 2133.34 189.627 Q2137.8 189.627 2140.1 192.405 Q2142.39 195.159 2142.39 200.529 Z" fill="#000000" fill-rule="nonzero" fill-opacity="1" /><path clip-path="url(#clip170)" d="M2167.94 194.187 L2167.94 180.159 L2172.2 180.159 L2172.2 216.178 L2167.94 216.178 L2167.94 212.289 Q2166.6 214.603 2164.54 215.738 Q2162.5 216.849 2159.63 216.849 Q2154.93 216.849 2151.97 213.099 Q2149.03 209.349 2149.03 203.238 Q2149.03 197.127 2151.97 193.377 Q2154.93 189.627 2159.63 189.627 Q2162.5 189.627 2164.54 190.761 Q2166.6 191.872 2167.94 194.187 M2153.43 203.238 Q2153.43 207.937 2155.35 210.622 Q2157.3 213.284 2160.68 213.284 Q2164.05 213.284 2166 210.622 Q2167.94 207.937 2167.94 203.238 Q2167.94 198.539 2166 195.877 Q2164.05 193.192 2160.68 193.192 Q2157.3 193.192 2155.35 195.877 Q2153.43 198.539 2153.43 203.238 Z" fill="#000000" fill-rule="nonzero" fill-opacity="1" /><path clip-path="url(#clip170)" d="M2203.15 202.15 L2203.15 204.233 L2183.57 204.233 Q2183.85 208.631 2186.21 210.946 Q2188.59 213.238 2192.83 213.238 Q2195.28 213.238 2197.57 212.636 Q2199.89 212.034 2202.16 210.83 L2202.16 214.858 Q2199.86 215.83 2197.46 216.34 Q2195.05 216.849 2192.57 216.849 Q2186.37 216.849 2182.74 213.238 Q2179.12 209.627 2179.12 203.469 Q2179.12 197.104 2182.55 193.377 Q2186 189.627 2191.83 189.627 Q2197.06 189.627 2200.1 193.006 Q2203.15 196.363 2203.15 202.15 M2198.89 200.9 Q2198.85 197.405 2196.92 195.321 Q2195.03 193.238 2191.88 193.238 Q2188.31 193.238 2186.16 195.252 Q2184.03 197.266 2183.71 200.923 L2198.89 200.9 Z" fill="#000000" fill-rule="nonzero" fill-opacity="1" /><path clip-path="url(#clip170)" d="M2231.69 200.529 L2231.69 216.178 L2227.43 216.178 L2227.43 200.668 Q2227.43 196.988 2226 195.159 Q2224.56 193.33 2221.69 193.33 Q2218.24 193.33 2216.25 195.53 Q2214.26 197.729 2214.26 201.525 L2214.26 216.178 L2209.98 216.178 L2209.98 190.252 L2214.26 190.252 L2214.26 194.28 Q2215.79 191.942 2217.85 190.784 Q2219.93 189.627 2222.64 189.627 Q2227.11 189.627 2229.4 192.405 Q2231.69 195.159 2231.69 200.529 Z" fill="#000000" fill-rule="nonzero" fill-opacity="1" /><path clip-path="url(#clip170)" d="M2244.4 182.891 L2244.4 190.252 L2253.17 190.252 L2253.17 193.562 L2244.4 193.562 L2244.4 207.636 Q2244.4 210.807 2245.26 211.71 Q2246.14 212.613 2248.8 212.613 L2253.17 212.613 L2253.17 216.178 L2248.8 216.178 Q2243.87 216.178 2241.99 214.349 Q2240.12 212.497 2240.12 207.636 L2240.12 193.562 L2236.99 193.562 L2236.99 190.252 L2240.12 190.252 L2240.12 182.891 L2244.4 182.891 Z" fill="#000000" fill-rule="nonzero" fill-opacity="1" /><path clip-path="url(#clip170)" d="M1585.38 227.982 L1585.38 273.493 L1630.89 273.493 L1630.89 227.982 L1585.38 227.982 Z" fill="#389826" fill-rule="evenodd" fill-opacity="1" stroke="#000000" stroke-opacity="1" stroke-width="4.55111"/>
<path clip-path="url(#clip170)" d="M1712.39 237.3 L1712.39 264.175 L1718.04 264.175 Q1725.19 264.175 1728.5 260.934 Q1731.83 257.694 1731.83 250.703 Q1731.83 243.758 1728.5 240.541 Q1725.19 237.3 1718.04 237.3 L1712.39 237.3 M1707.71 233.458 L1717.32 233.458 Q1727.37 233.458 1732.07 237.647 Q1736.77 241.814 1736.77 250.703 Q1736.77 259.638 1732.04 263.828 Q1727.32 268.018 1717.32 268.018 L1707.71 268.018 L1707.71 233.458 Z" fill="#000000" fill-rule="nonzero" fill-opacity="1" /><path clip-path="url(#clip170)" d="M1766.21 253.99 L1766.21 256.073 L1746.63 256.073 Q1746.9 260.471 1749.27 262.786 Q1751.65 265.078 1755.89 265.078 Q1758.34 265.078 1760.63 264.476 Q1762.95 263.874 1765.21 262.67 L1765.21 266.698 Q1762.92 267.67 1760.52 268.18 Q1758.11 268.689 1755.63 268.689 Q1749.43 268.689 1745.79 265.078 Q1742.18 261.467 1742.18 255.309 Q1742.18 248.944 1745.61 245.217 Q1749.06 241.467 1754.89 241.467 Q1760.12 241.467 1763.15 244.846 Q1766.21 248.203 1766.21 253.99 M1761.95 252.74 Q1761.9 249.245 1759.98 247.161 Q1758.08 245.078 1754.94 245.078 Q1751.37 245.078 1749.22 247.092 Q1747.09 249.106 1746.77 252.763 L1761.95 252.74 Z" fill="#000000" fill-rule="nonzero" fill-opacity="1" /><path clip-path="url(#clip170)" d="M1777.32 264.129 L1777.32 277.879 L1773.04 277.879 L1773.04 242.092 L1777.32 242.092 L1777.32 246.027 Q1778.66 243.712 1780.7 242.601 Q1782.76 241.467 1785.61 241.467 Q1790.33 241.467 1793.27 245.217 Q1796.23 248.967 1796.23 255.078 Q1796.23 261.189 1793.27 264.939 Q1790.33 268.689 1785.61 268.689 Q1782.76 268.689 1780.7 267.578 Q1778.66 266.443 1777.32 264.129 M1791.81 255.078 Q1791.81 250.379 1789.87 247.717 Q1787.95 245.032 1784.57 245.032 Q1781.19 245.032 1779.24 247.717 Q1777.32 250.379 1777.32 255.078 Q1777.32 259.777 1779.24 262.462 Q1781.19 265.124 1784.57 265.124 Q1787.95 265.124 1789.87 262.462 Q1791.81 259.777 1791.81 255.078 Z" fill="#000000" fill-rule="nonzero" fill-opacity="1" /><path clip-path="url(#clip170)" d="M1825.47 253.99 L1825.47 256.073 L1805.89 256.073 Q1806.16 260.471 1808.52 262.786 Q1810.91 265.078 1815.14 265.078 Q1817.6 265.078 1819.89 264.476 Q1822.2 263.874 1824.47 262.67 L1824.47 266.698 Q1822.18 267.67 1819.77 268.18 Q1817.37 268.689 1814.89 268.689 Q1808.69 268.689 1805.05 265.078 Q1801.44 261.467 1801.44 255.309 Q1801.44 248.944 1804.87 245.217 Q1808.32 241.467 1814.15 241.467 Q1819.38 241.467 1822.41 244.846 Q1825.47 248.203 1825.47 253.99 M1821.21 252.74 Q1821.16 249.245 1819.24 247.161 Q1817.34 245.078 1814.2 245.078 Q1810.63 245.078 1808.48 247.092 Q1806.35 249.106 1806.02 252.763 L1821.21 252.74 Z" fill="#000000" fill-rule="nonzero" fill-opacity="1" /><path clip-path="url(#clip170)" d="M1854.01 252.369 L1854.01 268.018 L1849.75 268.018 L1849.75 252.508 Q1849.75 248.828 1848.32 246.999 Q1846.88 245.17 1844.01 245.17 Q1840.56 245.17 1838.57 247.37 Q1836.58 249.569 1836.58 253.365 L1836.58 268.018 L1832.3 268.018 L1832.3 242.092 L1836.58 242.092 L1836.58 246.12 Q1838.11 243.782 1840.17 242.624 Q1842.25 241.467 1844.96 241.467 Q1849.43 241.467 1851.72 244.245 Q1854.01 246.999 1854.01 252.369 Z" fill="#000000" fill-rule="nonzero" fill-opacity="1" /><path clip-path="url(#clip170)" d="M1879.57 246.027 L1879.57 231.999 L1883.82 231.999 L1883.82 268.018 L1879.57 268.018 L1879.57 264.129 Q1878.22 266.443 1876.16 267.578 Q1874.13 268.689 1871.26 268.689 Q1866.56 268.689 1863.59 264.939 Q1860.65 261.189 1860.65 255.078 Q1860.65 248.967 1863.59 245.217 Q1866.56 241.467 1871.26 241.467 Q1874.13 241.467 1876.16 242.601 Q1878.22 243.712 1879.57 246.027 M1865.05 255.078 Q1865.05 259.777 1866.97 262.462 Q1868.92 265.124 1872.3 265.124 Q1875.68 265.124 1877.62 262.462 Q1879.57 259.777 1879.57 255.078 Q1879.57 250.379 1877.62 247.717 Q1875.68 245.032 1872.3 245.032 Q1868.92 245.032 1866.97 247.717 Q1865.05 250.379 1865.05 255.078 Z" fill="#000000" fill-rule="nonzero" fill-opacity="1" /><path clip-path="url(#clip170)" d="M1914.77 253.99 L1914.77 256.073 L1895.19 256.073 Q1895.47 260.471 1897.83 262.786 Q1900.21 265.078 1904.45 265.078 Q1906.9 265.078 1909.19 264.476 Q1911.51 263.874 1913.78 262.67 L1913.78 266.698 Q1911.49 267.67 1909.08 268.18 Q1906.67 268.689 1904.2 268.689 Q1897.99 268.689 1894.36 265.078 Q1890.75 261.467 1890.75 255.309 Q1890.75 248.944 1894.17 245.217 Q1897.62 241.467 1903.45 241.467 Q1908.69 241.467 1911.72 244.846 Q1914.77 248.203 1914.77 253.99 M1910.51 252.74 Q1910.47 249.245 1908.55 247.161 Q1906.65 245.078 1903.5 245.078 Q1899.94 245.078 1897.78 247.092 Q1895.65 249.106 1895.33 252.763 L1910.51 252.74 Z" fill="#000000" fill-rule="nonzero" fill-opacity="1" /><path clip-path="url(#clip170)" d="M1943.32 252.369 L1943.32 268.018 L1939.06 268.018 L1939.06 252.508 Q1939.06 248.828 1937.62 246.999 Q1936.19 245.17 1933.32 245.17 Q1929.87 245.17 1927.88 247.37 Q1925.88 249.569 1925.88 253.365 L1925.88 268.018 L1921.6 268.018 L1921.6 242.092 L1925.88 242.092 L1925.88 246.12 Q1927.41 243.782 1929.47 242.624 Q1931.56 241.467 1934.26 241.467 Q1938.73 241.467 1941.02 244.245 Q1943.32 246.999 1943.32 252.369 Z" fill="#000000" fill-rule="nonzero" fill-opacity="1" /><path clip-path="url(#clip170)" d="M1956.02 234.731 L1956.02 242.092 L1964.8 242.092 L1964.8 245.402 L1956.02 245.402 L1956.02 259.476 Q1956.02 262.647 1956.88 263.55 Q1957.76 264.453 1960.42 264.453 L1964.8 264.453 L1964.8 268.018 L1960.42 268.018 Q1955.49 268.018 1953.62 266.189 Q1951.74 264.337 1951.74 259.476 L1951.74 245.402 L1948.62 245.402 L1948.62 242.092 L1951.74 242.092 L1951.74 234.731 L1956.02 234.731 Z" fill="#000000" fill-rule="nonzero" fill-opacity="1" /><path clip-path="url(#clip170)" d="M1582.53 276.978 L1582.53 328.178 L1633.73 328.178 L1633.73 276.978 L1582.53 276.978 Z" fill="#389826" fill-rule="evenodd" fill-opacity="1" stroke="none"/>
<path clip-path="url(#clip170)" d="M1729.96 286.432 L1729.96 290.992 Q1727.3 289.719 1724.94 289.094 Q1722.58 288.469 1720.38 288.469 Q1716.56 288.469 1714.47 289.95 Q1712.41 291.432 1712.41 294.163 Q1712.41 296.455 1713.78 297.635 Q1715.17 298.793 1719.01 299.51 L1721.83 300.089 Q1727.07 301.085 1729.54 303.608 Q1732.04 306.108 1732.04 310.321 Q1732.04 315.344 1728.66 317.936 Q1725.31 320.529 1718.8 320.529 Q1716.35 320.529 1713.57 319.973 Q1710.82 319.418 1707.85 318.33 L1707.85 313.515 Q1710.7 315.112 1713.43 315.922 Q1716.16 316.733 1718.8 316.733 Q1722.81 316.733 1724.98 315.159 Q1727.16 313.584 1727.16 310.668 Q1727.16 308.122 1725.58 306.686 Q1724.03 305.251 1720.47 304.534 L1717.62 303.978 Q1712.39 302.936 1710.05 300.714 Q1707.71 298.492 1707.71 294.534 Q1707.71 289.95 1710.93 287.311 Q1714.17 284.673 1719.84 284.673 Q1722.27 284.673 1724.8 285.112 Q1727.32 285.552 1729.96 286.432 Z" fill="#000000" fill-rule="nonzero" fill-opacity="1" /><path clip-path="url(#clip170)" d="M1750.93 306.825 Q1745.77 306.825 1743.78 308.006 Q1741.79 309.186 1741.79 312.034 Q1741.79 314.302 1743.27 315.645 Q1744.77 316.964 1747.34 316.964 Q1750.89 316.964 1753.02 314.464 Q1755.17 311.941 1755.17 307.774 L1755.17 306.825 L1750.93 306.825 M1759.43 305.066 L1759.43 319.858 L1755.17 319.858 L1755.17 315.922 Q1753.71 318.283 1751.53 319.418 Q1749.36 320.529 1746.21 320.529 Q1742.23 320.529 1739.87 318.307 Q1737.53 316.061 1737.53 312.311 Q1737.53 307.936 1740.45 305.714 Q1743.39 303.492 1749.2 303.492 L1755.17 303.492 L1755.17 303.075 Q1755.17 300.135 1753.22 298.538 Q1751.3 296.918 1747.81 296.918 Q1745.58 296.918 1743.48 297.45 Q1741.37 297.983 1739.43 299.047 L1739.43 295.112 Q1741.77 294.21 1743.96 293.77 Q1746.16 293.307 1748.25 293.307 Q1753.87 293.307 1756.65 296.223 Q1759.43 299.14 1759.43 305.066 Z" fill="#000000" fill-rule="nonzero" fill-opacity="1" /><path clip-path="url(#clip170)" d="M1772.41 286.571 L1772.41 293.932 L1781.19 293.932 L1781.19 297.242 L1772.41 297.242 L1772.41 311.316 Q1772.41 314.487 1773.27 315.39 Q1774.15 316.293 1776.81 316.293 L1781.19 316.293 L1781.19 319.858 L1776.81 319.858 Q1771.88 319.858 1770.01 318.029 Q1768.13 316.177 1768.13 311.316 L1768.13 297.242 L1765.01 297.242 L1765.01 293.932 L1768.13 293.932 L1768.13 286.571 L1772.41 286.571 Z" fill="#000000" fill-rule="nonzero" fill-opacity="1" /><path clip-path="url(#clip170)" d="M1786.35 309.626 L1786.35 293.932 L1790.61 293.932 L1790.61 309.464 Q1790.61 313.145 1792.04 314.996 Q1793.48 316.825 1796.35 316.825 Q1799.8 316.825 1801.79 314.626 Q1803.8 312.427 1803.8 308.631 L1803.8 293.932 L1808.06 293.932 L1808.06 319.858 L1803.8 319.858 L1803.8 315.876 Q1802.25 318.237 1800.19 319.395 Q1798.15 320.529 1795.45 320.529 Q1790.98 320.529 1788.66 317.751 Q1786.35 314.973 1786.35 309.626 M1797.07 293.307 L1797.07 293.307 Z" fill="#000000" fill-rule="nonzero" fill-opacity="1" /><path clip-path="url(#clip170)" d="M1831.86 297.913 Q1831.14 297.497 1830.28 297.311 Q1829.45 297.103 1828.43 297.103 Q1824.82 297.103 1822.88 299.464 Q1820.95 301.802 1820.95 306.2 L1820.95 319.858 L1816.67 319.858 L1816.67 293.932 L1820.95 293.932 L1820.95 297.96 Q1822.3 295.598 1824.45 294.464 Q1826.6 293.307 1829.68 293.307 Q1830.12 293.307 1830.65 293.376 Q1831.19 293.423 1831.83 293.538 L1831.86 297.913 Z" fill="#000000" fill-rule="nonzero" fill-opacity="1" /><path clip-path="url(#clip170)" d="M1848.11 306.825 Q1842.95 306.825 1840.95 308.006 Q1838.96 309.186 1838.96 312.034 Q1838.96 314.302 1840.45 315.645 Q1841.95 316.964 1844.52 316.964 Q1848.06 316.964 1850.19 314.464 Q1852.34 311.941 1852.34 307.774 L1852.34 306.825 L1848.11 306.825 M1856.6 305.066 L1856.6 319.858 L1852.34 319.858 L1852.34 315.922 Q1850.89 318.283 1848.71 319.418 Q1846.53 320.529 1843.39 320.529 Q1839.4 320.529 1837.04 318.307 Q1834.7 316.061 1834.7 312.311 Q1834.7 307.936 1837.62 305.714 Q1840.56 303.492 1846.37 303.492 L1852.34 303.492 L1852.34 303.075 Q1852.34 300.135 1850.4 298.538 Q1848.48 296.918 1844.98 296.918 Q1842.76 296.918 1840.65 297.45 Q1838.55 297.983 1836.6 299.047 L1836.6 295.112 Q1838.94 294.21 1841.14 293.77 Q1843.34 293.307 1845.42 293.307 Q1851.05 293.307 1853.82 296.223 Q1856.6 299.14 1856.6 305.066 Z" fill="#000000" fill-rule="nonzero" fill-opacity="1" /><path clip-path="url(#clip170)" d="M1869.59 286.571 L1869.59 293.932 L1878.36 293.932 L1878.36 297.242 L1869.59 297.242 L1869.59 311.316 Q1869.59 314.487 1870.45 315.39 Q1871.32 316.293 1873.99 316.293 L1878.36 316.293 L1878.36 319.858 L1873.99 319.858 Q1869.06 319.858 1867.18 318.029 Q1865.31 316.177 1865.31 311.316 L1865.31 297.242 L1862.18 297.242 L1862.18 293.932 L1865.31 293.932 L1865.31 286.571 L1869.59 286.571 Z" fill="#000000" fill-rule="nonzero" fill-opacity="1" /><path clip-path="url(#clip170)" d="M1906.14 305.83 L1906.14 307.913 L1886.56 307.913 Q1886.83 312.311 1889.2 314.626 Q1891.58 316.918 1895.82 316.918 Q1898.27 316.918 1900.56 316.316 Q1902.88 315.714 1905.14 314.51 L1905.14 318.538 Q1902.85 319.51 1900.45 320.02 Q1898.04 320.529 1895.56 320.529 Q1889.36 320.529 1885.72 316.918 Q1882.11 313.307 1882.11 307.149 Q1882.11 300.784 1885.54 297.057 Q1888.99 293.307 1894.82 293.307 Q1900.05 293.307 1903.08 296.686 Q1906.14 300.043 1906.14 305.83 M1901.88 304.58 Q1901.83 301.085 1899.91 299.001 Q1898.01 296.918 1894.87 296.918 Q1891.3 296.918 1889.15 298.932 Q1887.02 300.946 1886.7 304.603 L1901.88 304.58 Z" fill="#000000" fill-rule="nonzero" fill-opacity="1" /><path clip-path="url(#clip170)" d="M1930.19 297.867 L1930.19 283.839 L1934.45 283.839 L1934.45 319.858 L1930.19 319.858 L1930.19 315.969 Q1928.85 318.283 1926.79 319.418 Q1924.75 320.529 1921.88 320.529 Q1917.18 320.529 1914.22 316.779 Q1911.28 313.029 1911.28 306.918 Q1911.28 300.807 1914.22 297.057 Q1917.18 293.307 1921.88 293.307 Q1924.75 293.307 1926.79 294.441 Q1928.85 295.552 1930.19 297.867 M1915.68 306.918 Q1915.68 311.617 1917.6 314.302 Q1919.54 316.964 1922.92 316.964 Q1926.3 316.964 1928.25 314.302 Q1930.19 311.617 1930.19 306.918 Q1930.19 302.219 1928.25 299.557 Q1926.3 296.872 1922.92 296.872 Q1919.54 296.872 1917.6 299.557 Q1915.68 302.219 1915.68 306.918 Z" fill="#000000" fill-rule="nonzero" fill-opacity="1" /><path clip-path="url(#clip170)" d="M1963.15 289.14 L1963.15 316.015 L1968.8 316.015 Q1975.95 316.015 1979.26 312.774 Q1982.6 309.534 1982.6 302.543 Q1982.6 295.598 1979.26 292.381 Q1975.95 289.14 1968.8 289.14 L1963.15 289.14 M1958.48 285.298 L1968.08 285.298 Q1978.13 285.298 1982.83 289.487 Q1987.53 293.654 1987.53 302.543 Q1987.53 311.478 1982.81 315.668 Q1978.08 319.858 1968.08 319.858 L1958.48 319.858 L1958.48 285.298 Z" fill="#000000" fill-rule="nonzero" fill-opacity="1" /><path clip-path="url(#clip170)" d="M2016.97 305.83 L2016.97 307.913 L1997.39 307.913 Q1997.67 312.311 2000.03 314.626 Q2002.41 316.918 2006.65 316.918 Q2009.1 316.918 2011.39 316.316 Q2013.71 315.714 2015.98 314.51 L2015.98 318.538 Q2013.69 319.51 2011.28 320.02 Q2008.87 320.529 2006.39 320.529 Q2000.19 320.529 1996.56 316.918 Q1992.94 313.307 1992.94 307.149 Q1992.94 300.784 1996.37 297.057 Q1999.82 293.307 2005.65 293.307 Q2010.88 293.307 2013.92 296.686 Q2016.97 300.043 2016.97 305.83 M2012.71 304.58 Q2012.67 301.085 2010.75 299.001 Q2008.85 296.918 2005.7 296.918 Q2002.13 296.918 1999.98 298.932 Q1997.85 300.946 1997.53 304.603 L2012.71 304.58 Z" fill="#000000" fill-rule="nonzero" fill-opacity="1" /><path clip-path="url(#clip170)" d="M2028.08 315.969 L2028.08 329.719 L2023.8 329.719 L2023.8 293.932 L2028.08 293.932 L2028.08 297.867 Q2029.43 295.552 2031.46 294.441 Q2033.52 293.307 2036.37 293.307 Q2041.09 293.307 2044.03 297.057 Q2047 300.807 2047 306.918 Q2047 313.029 2044.03 316.779 Q2041.09 320.529 2036.37 320.529 Q2033.52 320.529 2031.46 319.418 Q2029.43 318.283 2028.08 315.969 M2042.57 306.918 Q2042.57 302.219 2040.63 299.557 Q2038.71 296.872 2035.33 296.872 Q2031.95 296.872 2030 299.557 Q2028.08 302.219 2028.08 306.918 Q2028.08 311.617 2030 314.302 Q2031.95 316.964 2035.33 316.964 Q2038.71 316.964 2040.63 314.302 Q2042.57 311.617 2042.57 306.918 Z" fill="#000000" fill-rule="nonzero" fill-opacity="1" /><path clip-path="url(#clip170)" d="M2076.23 305.83 L2076.23 307.913 L2056.65 307.913 Q2056.93 312.311 2059.29 314.626 Q2061.67 316.918 2065.91 316.918 Q2068.36 316.918 2070.65 316.316 Q2072.97 315.714 2075.24 314.51 L2075.24 318.538 Q2072.94 319.51 2070.54 320.02 Q2068.13 320.529 2065.65 320.529 Q2059.45 320.529 2055.81 316.918 Q2052.2 313.307 2052.2 307.149 Q2052.2 300.784 2055.63 297.057 Q2059.08 293.307 2064.91 293.307 Q2070.14 293.307 2073.18 296.686 Q2076.23 300.043 2076.23 305.83 M2071.97 304.58 Q2071.93 301.085 2070 299.001 Q2068.11 296.918 2064.96 296.918 Q2061.39 296.918 2059.24 298.932 Q2057.11 300.946 2056.79 304.603 L2071.97 304.58 Z" fill="#000000" fill-rule="nonzero" fill-opacity="1" /><path clip-path="url(#clip170)" d="M2104.77 304.209 L2104.77 319.858 L2100.51 319.858 L2100.51 304.348 Q2100.51 300.668 2099.08 298.839 Q2097.64 297.01 2094.77 297.01 Q2091.32 297.01 2089.33 299.21 Q2087.34 301.409 2087.34 305.205 L2087.34 319.858 L2083.06 319.858 L2083.06 293.932 L2087.34 293.932 L2087.34 297.96 Q2088.87 295.622 2090.93 294.464 Q2093.01 293.307 2095.72 293.307 Q2100.19 293.307 2102.48 296.085 Q2104.77 298.839 2104.77 304.209 Z" fill="#000000" fill-rule="nonzero" fill-opacity="1" /><path clip-path="url(#clip170)" d="M2130.33 297.867 L2130.33 283.839 L2134.59 283.839 L2134.59 319.858 L2130.33 319.858 L2130.33 315.969 Q2128.99 318.283 2126.93 319.418 Q2124.89 320.529 2122.02 320.529 Q2117.32 320.529 2114.36 316.779 Q2111.42 313.029 2111.42 306.918 Q2111.42 300.807 2114.36 297.057 Q2117.32 293.307 2122.02 293.307 Q2124.89 293.307 2126.93 294.441 Q2128.99 295.552 2130.33 297.867 M2115.81 306.918 Q2115.81 311.617 2117.74 314.302 Q2119.68 316.964 2123.06 316.964 Q2126.44 316.964 2128.38 314.302 Q2130.33 311.617 2130.33 306.918 Q2130.33 302.219 2128.38 299.557 Q2126.44 296.872 2123.06 296.872 Q2119.68 296.872 2117.74 299.557 Q2115.81 302.219 2115.81 306.918 Z" fill="#000000" fill-rule="nonzero" fill-opacity="1" /><path clip-path="url(#clip170)" d="M2165.54 305.83 L2165.54 307.913 L2145.95 307.913 Q2146.23 312.311 2148.59 314.626 Q2150.98 316.918 2155.21 316.918 Q2157.67 316.918 2159.96 316.316 Q2162.27 315.714 2164.54 314.51 L2164.54 318.538 Q2162.25 319.51 2159.84 320.02 Q2157.43 320.529 2154.96 320.529 Q2148.75 320.529 2145.12 316.918 Q2141.51 313.307 2141.51 307.149 Q2141.51 300.784 2144.93 297.057 Q2148.38 293.307 2154.22 293.307 Q2159.45 293.307 2162.48 296.686 Q2165.54 300.043 2165.54 305.83 M2161.28 304.58 Q2161.23 301.085 2159.31 299.001 Q2157.41 296.918 2154.26 296.918 Q2150.7 296.918 2148.55 298.932 Q2146.42 300.946 2146.09 304.603 L2161.28 304.58 Z" fill="#000000" fill-rule="nonzero" fill-opacity="1" /><path clip-path="url(#clip170)" d="M2194.08 304.209 L2194.08 319.858 L2189.82 319.858 L2189.82 304.348 Q2189.82 300.668 2188.38 298.839 Q2186.95 297.01 2184.08 297.01 Q2180.63 297.01 2178.64 299.21 Q2176.65 301.409 2176.65 305.205 L2176.65 319.858 L2172.36 319.858 L2172.36 293.932 L2176.65 293.932 L2176.65 297.96 Q2178.18 295.622 2180.24 294.464 Q2182.32 293.307 2185.03 293.307 Q2189.49 293.307 2191.79 296.085 Q2194.08 298.839 2194.08 304.209 Z" fill="#000000" fill-rule="nonzero" fill-opacity="1" /><path clip-path="url(#clip170)" d="M2206.79 286.571 L2206.79 293.932 L2215.56 293.932 L2215.56 297.242 L2206.79 297.242 L2206.79 311.316 Q2206.79 314.487 2207.64 315.39 Q2208.52 316.293 2211.18 316.293 L2215.56 316.293 L2215.56 319.858 L2211.18 319.858 Q2206.25 319.858 2204.38 318.029 Q2202.5 316.177 2202.5 311.316 L2202.5 297.242 L2199.38 297.242 L2199.38 293.932 L2202.5 293.932 L2202.5 286.571 L2206.79 286.571 Z" fill="#000000" fill-rule="nonzero" fill-opacity="1" /></svg>
