<?xml version="1.0" encoding="utf-8"?>
<svg xmlns="http://www.w3.org/2000/svg" xmlns:xlink="http://www.w3.org/1999/xlink" width="600" height="400" viewBox="0 0 2400 1600">
<defs>
  <clipPath id="clip820">
    <rect x="0" y="0" width="2400" height="1600"/>
  </clipPath>
</defs>
<path clip-path="url(#clip820)" d="M0 1600 L2400 1600 L2400 0 L0 0  Z" fill="#ffffff" fill-rule="evenodd" fill-opacity="1"/>
<defs>
  <clipPath id="clip821">
    <rect x="480" y="0" width="1681" height="1600"/>
  </clipPath>
</defs>
<path clip-path="url(#clip820)" d="M112.177 1486.45 L2352.76 1486.45 L2352.76 47.2441 L112.177 47.2441  Z" fill="#ffffff" fill-rule="evenodd" fill-opacity="1"/>
<defs>
  <clipPath id="clip822">
    <rect x="112" y="47" width="2242" height="1440"/>
  </clipPath>
</defs>
<polyline clip-path="url(#clip822)" style="stroke:#000000; stroke-linecap:round; stroke-linejoin:round; stroke-width:2; stroke-opacity:0.1; fill:none" points="1062.75,1486.45 1062.75,47.2441 "/>
<polyline clip-path="url(#clip822)" style="stroke:#000000; stroke-linecap:round; stroke-linejoin:round; stroke-width:2; stroke-opacity:0.1; fill:none" points="1402.18,1486.45 1402.18,47.2441 "/>
<polyline clip-path="url(#clip820)" style="stroke:#000000; stroke-linecap:round; stroke-linejoin:round; stroke-width:4; stroke-opacity:1; fill:none" points="112.177,1486.45 2352.76,1486.45 "/>
<polyline clip-path="url(#clip820)" style="stroke:#000000; stroke-linecap:round; stroke-linejoin:round; stroke-width:4; stroke-opacity:1; fill:none" points="1062.75,1486.45 1062.75,1467.55 "/>
<polyline clip-path="url(#clip820)" style="stroke:#000000; stroke-linecap:round; stroke-linejoin:round; stroke-width:4; stroke-opacity:1; fill:none" points="1402.18,1486.45 1402.18,1467.55 "/>
<path clip-path="url(#clip820)" d="M1062.75 1517.37 Q1059.14 1517.37 1057.31 1520.93 Q1055.5 1524.47 1055.5 1531.6 Q1055.5 1538.71 1057.31 1542.27 Q1059.14 1545.82 1062.75 1545.82 Q1066.38 1545.82 1068.19 1542.27 Q1070.02 1538.71 1070.02 1531.6 Q1070.02 1524.47 1068.19 1520.93 Q1066.38 1517.37 1062.75 1517.37 M1062.75 1513.66 Q1068.56 1513.66 1071.61 1518.27 Q1074.69 1522.85 1074.69 1531.6 Q1074.69 1540.33 1071.61 1544.94 Q1068.56 1549.52 1062.75 1549.52 Q1056.94 1549.52 1053.86 1544.94 Q1050.8 1540.33 1050.8 1531.6 Q1050.8 1522.85 1053.86 1518.27 Q1056.94 1513.66 1062.75 1513.66 Z" fill="#000000" fill-rule="nonzero" fill-opacity="1" /><path clip-path="url(#clip820)" d="M1392.57 1544.91 L1400.2 1544.91 L1400.2 1518.55 L1391.89 1520.21 L1391.89 1515.95 L1400.16 1514.29 L1404.83 1514.29 L1404.83 1544.91 L1412.47 1544.91 L1412.47 1548.85 L1392.57 1548.85 L1392.57 1544.91 Z" fill="#000000" fill-rule="nonzero" fill-opacity="1" /><polyline clip-path="url(#clip822)" style="stroke:#000000; stroke-linecap:round; stroke-linejoin:round; stroke-width:2; stroke-opacity:0.1; fill:none" points="112.177,1445.72 2352.76,1445.72 "/>
<polyline clip-path="url(#clip822)" style="stroke:#000000; stroke-linecap:round; stroke-linejoin:round; stroke-width:2; stroke-opacity:0.1; fill:none" points="112.177,1106.28 2352.76,1106.28 "/>
<polyline clip-path="url(#clip822)" style="stroke:#000000; stroke-linecap:round; stroke-linejoin:round; stroke-width:2; stroke-opacity:0.1; fill:none" points="112.177,766.846 2352.76,766.846 "/>
<polyline clip-path="url(#clip822)" style="stroke:#000000; stroke-linecap:round; stroke-linejoin:round; stroke-width:2; stroke-opacity:0.1; fill:none" points="112.177,427.411 2352.76,427.411 "/>
<polyline clip-path="url(#clip822)" style="stroke:#000000; stroke-linecap:round; stroke-linejoin:round; stroke-width:2; stroke-opacity:0.1; fill:none" points="112.177,87.9763 2352.76,87.9763 "/>
<polyline clip-path="url(#clip820)" style="stroke:#000000; stroke-linecap:round; stroke-linejoin:round; stroke-width:4; stroke-opacity:1; fill:none" points="112.177,1486.45 112.177,47.2441 "/>
<polyline clip-path="url(#clip820)" style="stroke:#000000; stroke-linecap:round; stroke-linejoin:round; stroke-width:4; stroke-opacity:1; fill:none" points="112.177,1445.72 131.075,1445.72 "/>
<polyline clip-path="url(#clip820)" style="stroke:#000000; stroke-linecap:round; stroke-linejoin:round; stroke-width:4; stroke-opacity:1; fill:none" points="112.177,1106.28 131.075,1106.28 "/>
<polyline clip-path="url(#clip820)" style="stroke:#000000; stroke-linecap:round; stroke-linejoin:round; stroke-width:4; stroke-opacity:1; fill:none" points="112.177,766.846 131.075,766.846 "/>
<polyline clip-path="url(#clip820)" style="stroke:#000000; stroke-linecap:round; stroke-linejoin:round; stroke-width:4; stroke-opacity:1; fill:none" points="112.177,427.411 131.075,427.411 "/>
<polyline clip-path="url(#clip820)" style="stroke:#000000; stroke-linecap:round; stroke-linejoin:round; stroke-width:4; stroke-opacity:1; fill:none" points="112.177,87.9763 131.075,87.9763 "/>
<path clip-path="url(#clip820)" d="M64.2328 1431.51 Q60.6217 1431.51 58.793 1435.08 Q56.9875 1438.62 56.9875 1445.75 Q56.9875 1452.86 58.793 1456.42 Q60.6217 1459.96 64.2328 1459.96 Q67.867 1459.96 69.6726 1456.42 Q71.5013 1452.86 71.5013 1445.75 Q71.5013 1438.62 69.6726 1435.08 Q67.867 1431.51 64.2328 1431.51 M64.2328 1427.81 Q70.0429 1427.81 73.0985 1432.42 Q76.1772 1437 76.1772 1445.75 Q76.1772 1454.48 73.0985 1459.08 Q70.0429 1463.67 64.2328 1463.67 Q58.4226 1463.67 55.344 1459.08 Q52.2884 1454.48 52.2884 1445.75 Q52.2884 1437 55.344 1432.42 Q58.4226 1427.81 64.2328 1427.81 Z" fill="#000000" fill-rule="nonzero" fill-opacity="1" /><path clip-path="url(#clip820)" d="M56.2699 1119.63 L63.9087 1119.63 L63.9087 1093.26 L55.5986 1094.93 L55.5986 1090.67 L63.8624 1089 L68.5383 1089 L68.5383 1119.63 L76.1772 1119.63 L76.1772 1123.56 L56.2699 1123.56 L56.2699 1119.63 Z" fill="#000000" fill-rule="nonzero" fill-opacity="1" /><path clip-path="url(#clip820)" d="M59.8578 780.191 L76.1772 780.191 L76.1772 784.126 L54.2328 784.126 L54.2328 780.191 Q56.8949 777.436 61.4782 772.807 Q66.0846 768.154 67.2652 766.811 Q69.5105 764.288 70.3902 762.552 Q71.2929 760.793 71.2929 759.103 Q71.2929 756.348 69.3485 754.612 Q67.4272 752.876 64.3254 752.876 Q62.1263 752.876 59.6726 753.64 Q57.2421 754.404 54.4643 755.955 L54.4643 751.233 Q57.2884 750.098 59.7421 749.52 Q62.1958 748.941 64.2328 748.941 Q69.6031 748.941 72.7976 751.626 Q75.992 754.311 75.992 758.802 Q75.992 760.932 75.1818 762.853 Q74.3948 764.751 72.2883 767.344 Q71.7096 768.015 68.6078 771.233 Q65.5059 774.427 59.8578 780.191 Z" fill="#000000" fill-rule="nonzero" fill-opacity="1" /><path clip-path="url(#clip820)" d="M69.0476 426.057 Q72.404 426.775 74.279 429.043 Q76.1772 431.312 76.1772 434.645 Q76.1772 439.761 72.6587 442.562 Q69.1402 445.362 62.6587 445.362 Q60.4828 445.362 58.168 444.923 Q55.8764 444.506 53.4227 443.649 L53.4227 439.136 Q55.3671 440.27 57.6819 440.849 Q59.9967 441.427 62.5198 441.427 Q66.918 441.427 69.2096 439.691 Q71.5244 437.955 71.5244 434.645 Q71.5244 431.589 69.3717 429.876 Q67.242 428.14 63.4226 428.14 L59.3949 428.14 L59.3949 424.298 L63.6078 424.298 Q67.0569 424.298 68.8855 422.932 Q70.7142 421.543 70.7142 418.951 Q70.7142 416.289 68.8161 414.876 Q66.9411 413.441 63.4226 413.441 Q61.5013 413.441 59.3023 413.858 Q57.1032 414.275 54.4643 415.154 L54.4643 410.988 Q57.1264 410.247 59.4412 409.877 Q61.7791 409.506 63.8393 409.506 Q69.1633 409.506 72.2652 411.937 Q75.367 414.344 75.367 418.464 Q75.367 421.335 73.7235 423.326 Q72.08 425.293 69.0476 426.057 Z" fill="#000000" fill-rule="nonzero" fill-opacity="1" /><path clip-path="url(#clip820)" d="M66.5939 74.7703 L54.7884 93.2193 L66.5939 93.2193 L66.5939 74.7703 M65.367 70.6963 L71.2466 70.6963 L71.2466 93.2193 L76.1772 93.2193 L76.1772 97.1082 L71.2466 97.1082 L71.2466 105.256 L66.5939 105.256 L66.5939 97.1082 L50.9921 97.1082 L50.9921 92.5943 L65.367 70.6963 Z" fill="#000000" fill-rule="nonzero" fill-opacity="1" /><circle clip-path="url(#clip822)" cx="1062.75" cy="1445.72" r="14.4" fill="#4063d8" fill-rule="evenodd" fill-opacity="1" stroke="none"/>
<circle clip-path="url(#clip822)" cx="1062.75" cy="1106.28" r="14.4" fill="#4063d8" fill-rule="evenodd" fill-opacity="1" stroke="none"/>
<circle clip-path="url(#clip822)" cx="1062.75" cy="766.846" r="14.4" fill="#4063d8" fill-rule="evenodd" fill-opacity="1" stroke="none"/>
<circle clip-path="url(#clip822)" cx="1062.75" cy="427.411" r="14.4" fill="#4063d8" fill-rule="evenodd" fill-opacity="1" stroke="none"/>
<path clip-path="url(#clip822)" d="M1402.18 1429.72 L1386.18 1445.72 L1402.18 1461.72 L1418.18 1445.72 L1402.18 1429.72 Z" fill="#389826" fill-rule="evenodd" fill-opacity="1" stroke="none"/>
<path clip-path="url(#clip822)" d="M1062.75 71.9763 L1046.75 87.9763 L1062.75 103.976 L1078.75 87.9763 L1062.75 71.9763 Z" fill="#389826" fill-rule="evenodd" fill-opacity="1" stroke="none"/>
<path clip-path="url(#clip822)" d="M1386.18 1090.28 L1386.18 1122.28 L1418.18 1122.28 L1418.18 1090.28 L1386.18 1090.28 Z" fill="#4063d8" fill-rule="evenodd" fill-opacity="1" stroke="#000000" stroke-opacity="1" stroke-width="3.2"/>
<path clip-path="url(#clip822)" d="M1386.18 750.846 L1386.18 782.846 L1418.18 782.846 L1418.18 750.846 L1386.18 750.846 Z" fill="#4063d8" fill-rule="evenodd" fill-opacity="1" stroke="#000000" stroke-opacity="1" stroke-width="3.2"/>
<path clip-path="url(#clip822)" d="M1386.18 411.411 L1386.18 443.411 L1418.18 443.411 L1418.18 411.411 L1386.18 411.411 Z" fill="#4063d8" fill-rule="evenodd" fill-opacity="1" stroke="#000000" stroke-opacity="1" stroke-width="3.2"/>
<path clip-path="url(#clip820)" d="M1426.21 302.578 L2278.07 302.578 L2278.07 95.2176 L1426.21 95.2176  Z" fill="#ffffff" fill-rule="evenodd" fill-opacity="1"/>
<polyline clip-path="url(#clip820)" style="stroke:#000000; stroke-linecap:round; stroke-linejoin:round; stroke-width:4; stroke-opacity:1; fill:none" points="1426.21,302.578 2278.07,302.578 2278.07,95.2176 1426.21,95.2176 1426.21,302.578 "/>
<circle clip-path="url(#clip820)" cx="1525.8" cy="147.058" r="23.04" fill="#4063d8" fill-rule="evenodd" fill-opacity="1" stroke="none"/>
<path clip-path="url(#clip820)" d="M1647.62 130.912 L1647.62 135.472 Q1644.96 134.199 1642.6 133.574 Q1640.24 132.949 1638.04 132.949 Q1634.22 132.949 1632.14 134.43 Q1630.08 135.912 1630.08 138.643 Q1630.08 140.935 1631.44 142.115 Q1632.83 143.273 1636.67 143.99 L1639.5 144.569 Q1644.73 145.565 1647.21 148.088 Q1649.71 150.588 1649.71 154.801 Q1649.71 159.824 1646.33 162.416 Q1642.97 165.009 1636.46 165.009 Q1634.01 165.009 1631.23 164.453 Q1628.48 163.898 1625.52 162.81 L1625.52 157.995 Q1628.36 159.592 1631.09 160.402 Q1633.83 161.213 1636.46 161.213 Q1640.47 161.213 1642.65 159.639 Q1644.82 158.064 1644.82 155.148 Q1644.82 152.602 1643.25 151.166 Q1641.7 149.731 1638.13 149.014 L1635.28 148.458 Q1630.05 147.416 1627.72 145.194 Q1625.38 142.972 1625.38 139.014 Q1625.38 134.43 1628.59 131.791 Q1631.84 129.153 1637.51 129.153 Q1639.94 129.153 1642.46 129.592 Q1644.98 130.032 1647.62 130.912 Z" fill="#000000" fill-rule="nonzero" fill-opacity="1" /><path clip-path="url(#clip820)" d="M1668.59 151.305 Q1663.43 151.305 1661.44 152.486 Q1659.45 153.666 1659.45 156.514 Q1659.45 158.782 1660.93 160.125 Q1662.44 161.444 1665.01 161.444 Q1668.55 161.444 1670.68 158.944 Q1672.83 156.421 1672.83 152.254 L1672.83 151.305 L1668.59 151.305 M1677.09 149.546 L1677.09 164.338 L1672.83 164.338 L1672.83 160.402 Q1671.37 162.763 1669.2 163.898 Q1667.02 165.009 1663.87 165.009 Q1659.89 165.009 1657.53 162.787 Q1655.19 160.541 1655.19 156.791 Q1655.19 152.416 1658.11 150.194 Q1661.05 147.972 1666.86 147.972 L1672.83 147.972 L1672.83 147.555 Q1672.83 144.615 1670.89 143.018 Q1668.96 141.398 1665.47 141.398 Q1663.25 141.398 1661.14 141.93 Q1659.03 142.463 1657.09 143.527 L1657.09 139.592 Q1659.43 138.69 1661.63 138.25 Q1663.83 137.787 1665.91 137.787 Q1671.53 137.787 1674.31 140.703 Q1677.09 143.62 1677.09 149.546 Z" fill="#000000" fill-rule="nonzero" fill-opacity="1" /><path clip-path="url(#clip820)" d="M1690.08 131.051 L1690.08 138.412 L1698.85 138.412 L1698.85 141.722 L1690.08 141.722 L1690.08 155.796 Q1690.08 158.967 1690.93 159.87 Q1691.81 160.773 1694.47 160.773 L1698.85 160.773 L1698.85 164.338 L1694.47 164.338 Q1689.54 164.338 1687.67 162.509 Q1685.79 160.657 1685.79 155.796 L1685.79 141.722 L1682.67 141.722 L1682.67 138.412 L1685.79 138.412 L1685.79 131.051 L1690.08 131.051 Z" fill="#000000" fill-rule="nonzero" fill-opacity="1" /><path clip-path="url(#clip820)" d="M1704.01 154.106 L1704.01 138.412 L1708.27 138.412 L1708.27 153.944 Q1708.27 157.625 1709.71 159.476 Q1711.14 161.305 1714.01 161.305 Q1717.46 161.305 1719.45 159.106 Q1721.46 156.907 1721.46 153.111 L1721.46 138.412 L1725.72 138.412 L1725.72 164.338 L1721.46 164.338 L1721.46 160.356 Q1719.91 162.717 1717.85 163.875 Q1715.82 165.009 1713.11 165.009 Q1708.64 165.009 1706.33 162.231 Q1704.01 159.453 1704.01 154.106 M1714.73 137.787 L1714.73 137.787 Z" fill="#000000" fill-rule="nonzero" fill-opacity="1" /><path clip-path="url(#clip820)" d="M1749.52 142.393 Q1748.8 141.977 1747.95 141.791 Q1747.11 141.583 1746.09 141.583 Q1742.48 141.583 1740.54 143.944 Q1738.62 146.282 1738.62 150.68 L1738.62 164.338 L1734.33 164.338 L1734.33 138.412 L1738.62 138.412 L1738.62 142.44 Q1739.96 140.078 1742.11 138.944 Q1744.27 137.787 1747.34 137.787 Q1747.78 137.787 1748.32 137.856 Q1748.85 137.903 1749.5 138.018 L1749.52 142.393 Z" fill="#000000" fill-rule="nonzero" fill-opacity="1" /><path clip-path="url(#clip820)" d="M1765.77 151.305 Q1760.61 151.305 1758.62 152.486 Q1756.63 153.666 1756.63 156.514 Q1756.63 158.782 1758.11 160.125 Q1759.61 161.444 1762.18 161.444 Q1765.72 161.444 1767.85 158.944 Q1770.01 156.421 1770.01 152.254 L1770.01 151.305 L1765.77 151.305 M1774.27 149.546 L1774.27 164.338 L1770.01 164.338 L1770.01 160.402 Q1768.55 162.763 1766.37 163.898 Q1764.2 165.009 1761.05 165.009 Q1757.07 165.009 1754.71 162.787 Q1752.37 160.541 1752.37 156.791 Q1752.37 152.416 1755.28 150.194 Q1758.22 147.972 1764.03 147.972 L1770.01 147.972 L1770.01 147.555 Q1770.01 144.615 1768.06 143.018 Q1766.14 141.398 1762.64 141.398 Q1760.42 141.398 1758.32 141.93 Q1756.21 142.463 1754.27 143.527 L1754.27 139.592 Q1756.6 138.69 1758.8 138.25 Q1761 137.787 1763.08 137.787 Q1768.71 137.787 1771.49 140.703 Q1774.27 143.62 1774.27 149.546 Z" fill="#000000" fill-rule="nonzero" fill-opacity="1" /><path clip-path="url(#clip820)" d="M1787.25 131.051 L1787.25 138.412 L1796.02 138.412 L1796.02 141.722 L1787.25 141.722 L1787.25 155.796 Q1787.25 158.967 1788.11 159.87 Q1788.99 160.773 1791.65 160.773 L1796.02 160.773 L1796.02 164.338 L1791.65 164.338 Q1786.72 164.338 1784.84 162.509 Q1782.97 160.657 1782.97 155.796 L1782.97 141.722 L1779.84 141.722 L1779.84 138.412 L1782.97 138.412 L1782.97 131.051 L1787.25 131.051 Z" fill="#000000" fill-rule="nonzero" fill-opacity="1" /><path clip-path="url(#clip820)" d="M1823.8 150.31 L1823.8 152.393 L1804.22 152.393 Q1804.5 156.791 1806.86 159.106 Q1809.24 161.398 1813.48 161.398 Q1815.93 161.398 1818.22 160.796 Q1820.54 160.194 1822.81 158.99 L1822.81 163.018 Q1820.51 163.99 1818.11 164.5 Q1815.7 165.009 1813.22 165.009 Q1807.02 165.009 1803.39 161.398 Q1799.77 157.787 1799.77 151.629 Q1799.77 145.264 1803.2 141.537 Q1806.65 137.787 1812.48 137.787 Q1817.71 137.787 1820.75 141.166 Q1823.8 144.523 1823.8 150.31 M1819.54 149.06 Q1819.5 145.565 1817.58 143.481 Q1815.68 141.398 1812.53 141.398 Q1808.96 141.398 1806.81 143.412 Q1804.68 145.426 1804.36 149.083 L1819.54 149.06 Z" fill="#000000" fill-rule="nonzero" fill-opacity="1" /><path clip-path="url(#clip820)" d="M1847.85 142.347 L1847.85 128.319 L1852.11 128.319 L1852.11 164.338 L1847.85 164.338 L1847.85 160.449 Q1846.51 162.763 1844.45 163.898 Q1842.41 165.009 1839.54 165.009 Q1834.84 165.009 1831.88 161.259 Q1828.94 157.509 1828.94 151.398 Q1828.94 145.287 1831.88 141.537 Q1834.84 137.787 1839.54 137.787 Q1842.41 137.787 1844.45 138.921 Q1846.51 140.032 1847.85 142.347 M1833.34 151.398 Q1833.34 156.097 1835.26 158.782 Q1837.2 161.444 1840.58 161.444 Q1843.96 161.444 1845.91 158.782 Q1847.85 156.097 1847.85 151.398 Q1847.85 146.699 1845.91 144.037 Q1843.96 141.352 1840.58 141.352 Q1837.2 141.352 1835.26 144.037 Q1833.34 146.699 1833.34 151.398 Z" fill="#000000" fill-rule="nonzero" fill-opacity="1" /><path clip-path="url(#clip820)" d="M1871.35 129.778 L1900.58 129.778 L1900.58 133.713 L1888.32 133.713 L1888.32 164.338 L1883.62 164.338 L1883.62 133.713 L1871.35 133.713 L1871.35 129.778 Z" fill="#000000" fill-rule="nonzero" fill-opacity="1" /><path clip-path="url(#clip820)" d="M1912.97 142.393 Q1912.25 141.977 1911.39 141.791 Q1910.56 141.583 1909.54 141.583 Q1905.93 141.583 1903.99 143.944 Q1902.07 146.282 1902.07 150.68 L1902.07 164.338 L1897.78 164.338 L1897.78 138.412 L1902.07 138.412 L1902.07 142.44 Q1903.41 140.078 1905.56 138.944 Q1907.71 137.787 1910.79 137.787 Q1911.23 137.787 1911.76 137.856 Q1912.3 137.903 1912.94 138.018 L1912.97 142.393 Z" fill="#000000" fill-rule="nonzero" fill-opacity="1" /><path clip-path="url(#clip820)" d="M1917.44 138.412 L1921.69 138.412 L1921.69 164.338 L1917.44 164.338 L1917.44 138.412 M1917.44 128.319 L1921.69 128.319 L1921.69 133.713 L1917.44 133.713 L1917.44 128.319 Z" fill="#000000" fill-rule="nonzero" fill-opacity="1" /><path clip-path="url(#clip820)" d="M1927.55 138.412 L1932.07 138.412 L1940.17 160.171 L1948.27 138.412 L1952.78 138.412 L1943.06 164.338 L1937.27 164.338 L1927.55 138.412 Z" fill="#000000" fill-rule="nonzero" fill-opacity="1" /><path clip-path="url(#clip820)" d="M1958.66 138.412 L1962.92 138.412 L1962.92 164.338 L1958.66 164.338 L1958.66 138.412 M1958.66 128.319 L1962.92 128.319 L1962.92 133.713 L1958.66 133.713 L1958.66 128.319 Z" fill="#000000" fill-rule="nonzero" fill-opacity="1" /><path clip-path="url(#clip820)" d="M1983.62 151.305 Q1978.45 151.305 1976.46 152.486 Q1974.47 153.666 1974.47 156.514 Q1974.47 158.782 1975.95 160.125 Q1977.46 161.444 1980.03 161.444 Q1983.57 161.444 1985.7 158.944 Q1987.85 156.421 1987.85 152.254 L1987.85 151.305 L1983.62 151.305 M1992.11 149.546 L1992.11 164.338 L1987.85 164.338 L1987.85 160.402 Q1986.39 162.763 1984.22 163.898 Q1982.04 165.009 1978.89 165.009 Q1974.91 165.009 1972.55 162.787 Q1970.21 160.541 1970.21 156.791 Q1970.21 152.416 1973.13 150.194 Q1976.07 147.972 1981.88 147.972 L1987.85 147.972 L1987.85 147.555 Q1987.85 144.615 1985.91 143.018 Q1983.99 141.398 1980.49 141.398 Q1978.27 141.398 1976.16 141.93 Q1974.06 142.463 1972.11 143.527 L1972.11 139.592 Q1974.45 138.69 1976.65 138.25 Q1978.85 137.787 1980.93 137.787 Q1986.56 137.787 1989.33 140.703 Q1992.11 143.62 1992.11 149.546 Z" fill="#000000" fill-rule="nonzero" fill-opacity="1" /><path clip-path="url(#clip820)" d="M2000.88 128.319 L2005.14 128.319 L2005.14 164.338 L2000.88 164.338 L2000.88 128.319 Z" fill="#000000" fill-rule="nonzero" fill-opacity="1" /><path clip-path="url(#clip820)" d="M2050.03 130.912 L2050.03 135.472 Q2047.37 134.199 2045 133.574 Q2042.64 132.949 2040.44 132.949 Q2036.62 132.949 2034.54 134.43 Q2032.48 135.912 2032.48 138.643 Q2032.48 140.935 2033.85 142.115 Q2035.24 143.273 2039.08 143.99 L2041.9 144.569 Q2047.13 145.565 2049.61 148.088 Q2052.11 150.588 2052.11 154.801 Q2052.11 159.824 2048.73 162.416 Q2045.37 165.009 2038.87 165.009 Q2036.42 165.009 2033.64 164.453 Q2030.88 163.898 2027.92 162.81 L2027.92 157.995 Q2030.77 159.592 2033.5 160.402 Q2036.23 161.213 2038.87 161.213 Q2042.87 161.213 2045.05 159.639 Q2047.23 158.064 2047.23 155.148 Q2047.23 152.602 2045.65 151.166 Q2044.1 149.731 2040.54 149.014 L2037.69 148.458 Q2032.46 147.416 2030.12 145.194 Q2027.78 142.972 2027.78 139.014 Q2027.78 134.43 2031 131.791 Q2034.24 129.153 2039.91 129.153 Q2042.34 129.153 2044.87 129.592 Q2047.39 130.032 2050.03 130.912 Z" fill="#000000" fill-rule="nonzero" fill-opacity="1" /><path clip-path="url(#clip820)" d="M2063.43 131.051 L2063.43 138.412 L2072.2 138.412 L2072.2 141.722 L2063.43 141.722 L2063.43 155.796 Q2063.43 158.967 2064.29 159.87 Q2065.17 160.773 2067.83 160.773 L2072.2 160.773 L2072.2 164.338 L2067.83 164.338 Q2062.9 164.338 2061.02 162.509 Q2059.15 160.657 2059.15 155.796 L2059.15 141.722 L2056.02 141.722 L2056.02 138.412 L2059.15 138.412 L2059.15 131.051 L2063.43 131.051 Z" fill="#000000" fill-rule="nonzero" fill-opacity="1" /><path clip-path="url(#clip820)" d="M2089.59 151.305 Q2084.43 151.305 2082.43 152.486 Q2080.44 153.666 2080.44 156.514 Q2080.44 158.782 2081.93 160.125 Q2083.43 161.444 2086 161.444 Q2089.54 161.444 2091.67 158.944 Q2093.82 156.421 2093.82 152.254 L2093.82 151.305 L2089.59 151.305 M2098.08 149.546 L2098.08 164.338 L2093.82 164.338 L2093.82 160.402 Q2092.37 162.763 2090.19 163.898 Q2088.01 165.009 2084.87 165.009 Q2080.88 165.009 2078.52 162.787 Q2076.18 160.541 2076.18 156.791 Q2076.18 152.416 2079.1 150.194 Q2082.04 147.972 2087.85 147.972 L2093.82 147.972 L2093.82 147.555 Q2093.82 144.615 2091.88 143.018 Q2089.96 141.398 2086.46 141.398 Q2084.24 141.398 2082.13 141.93 Q2080.03 142.463 2078.08 143.527 L2078.08 139.592 Q2080.42 138.69 2082.62 138.25 Q2084.82 137.787 2086.9 137.787 Q2092.53 137.787 2095.31 140.703 Q2098.08 143.62 2098.08 149.546 Z" fill="#000000" fill-rule="nonzero" fill-opacity="1" /><path clip-path="url(#clip820)" d="M2128.41 148.689 L2128.41 164.338 L2124.15 164.338 L2124.15 148.828 Q2124.15 145.148 2122.71 143.319 Q2121.28 141.49 2118.41 141.49 Q2114.96 141.49 2112.97 143.69 Q2110.98 145.889 2110.98 149.685 L2110.98 164.338 L2106.69 164.338 L2106.69 138.412 L2110.98 138.412 L2110.98 142.44 Q2112.5 140.102 2114.56 138.944 Q2116.65 137.787 2119.36 137.787 Q2123.82 137.787 2126.12 140.565 Q2128.41 143.319 2128.41 148.689 Z" fill="#000000" fill-rule="nonzero" fill-opacity="1" /><path clip-path="url(#clip820)" d="M2153.96 142.347 L2153.96 128.319 L2158.22 128.319 L2158.22 164.338 L2153.96 164.338 L2153.96 160.449 Q2152.62 162.763 2150.56 163.898 Q2148.52 165.009 2145.65 165.009 Q2140.95 165.009 2137.99 161.259 Q2135.05 157.509 2135.05 151.398 Q2135.05 145.287 2137.99 141.537 Q2140.95 137.787 2145.65 137.787 Q2148.52 137.787 2150.56 138.921 Q2152.62 140.032 2153.96 142.347 M2139.45 151.398 Q2139.45 156.097 2141.37 158.782 Q2143.31 161.444 2146.69 161.444 Q2150.07 161.444 2152.02 158.782 Q2153.96 156.097 2153.96 151.398 Q2153.96 146.699 2152.02 144.037 Q2150.07 141.352 2146.69 141.352 Q2143.31 141.352 2141.37 144.037 Q2139.45 146.699 2139.45 151.398 Z" fill="#000000" fill-rule="nonzero" fill-opacity="1" /><path clip-path="url(#clip820)" d="M2178.78 151.305 Q2173.61 151.305 2171.62 152.486 Q2169.63 153.666 2169.63 156.514 Q2169.63 158.782 2171.11 160.125 Q2172.62 161.444 2175.19 161.444 Q2178.73 161.444 2180.86 158.944 Q2183.01 156.421 2183.01 152.254 L2183.01 151.305 L2178.78 151.305 M2187.27 149.546 L2187.27 164.338 L2183.01 164.338 L2183.01 160.402 Q2181.55 162.763 2179.38 163.898 Q2177.2 165.009 2174.05 165.009 Q2170.07 165.009 2167.71 162.787 Q2165.37 160.541 2165.37 156.791 Q2165.37 152.416 2168.29 150.194 Q2171.23 147.972 2177.04 147.972 L2183.01 147.972 L2183.01 147.555 Q2183.01 144.615 2181.07 143.018 Q2179.15 141.398 2175.65 141.398 Q2173.43 141.398 2171.32 141.93 Q2169.22 142.463 2167.27 143.527 L2167.27 139.592 Q2169.61 138.69 2171.81 138.25 Q2174.01 137.787 2176.09 137.787 Q2181.72 137.787 2184.49 140.703 Q2187.27 143.62 2187.27 149.546 Z" fill="#000000" fill-rule="nonzero" fill-opacity="1" /><path clip-path="url(#clip820)" d="M2211.07 142.393 Q2210.35 141.977 2209.49 141.791 Q2208.66 141.583 2207.64 141.583 Q2204.03 141.583 2202.09 143.944 Q2200.17 146.282 2200.17 150.68 L2200.17 164.338 L2195.88 164.338 L2195.88 138.412 L2200.17 138.412 L2200.17 142.44 Q2201.51 140.078 2203.66 138.944 Q2205.81 137.787 2208.89 137.787 Q2209.33 137.787 2209.86 137.856 Q2210.4 137.903 2211.05 138.018 L2211.07 142.393 Z" fill="#000000" fill-rule="nonzero" fill-opacity="1" /><path clip-path="url(#clip820)" d="M2231.76 142.347 L2231.76 128.319 L2236.02 128.319 L2236.02 164.338 L2231.76 164.338 L2231.76 160.449 Q2230.42 162.763 2228.36 163.898 Q2226.32 165.009 2223.45 165.009 Q2218.75 165.009 2215.79 161.259 Q2212.85 157.509 2212.85 151.398 Q2212.85 145.287 2215.79 141.537 Q2218.75 137.787 2223.45 137.787 Q2226.32 137.787 2228.36 138.921 Q2230.42 140.032 2231.76 142.347 M2217.25 151.398 Q2217.25 156.097 2219.17 158.782 Q2221.11 161.444 2224.49 161.444 Q2227.87 161.444 2229.82 158.782 Q2231.76 156.097 2231.76 151.398 Q2231.76 146.699 2229.82 144.037 Q2227.87 141.352 2224.49 141.352 Q2221.11 141.352 2219.17 144.037 Q2217.25 146.699 2217.25 151.398 Z" fill="#000000" fill-rule="nonzero" fill-opacity="1" /><path clip-path="url(#clip820)" d="M1525.8 173.298 L1500.2 198.898 L1525.8 224.498 L1551.4 198.898 L1525.8 173.298 Z" fill="#389826" fill-rule="evenodd" fill-opacity="1" stroke="none"/>
<path clip-path="url(#clip820)" d="M1647.62 182.752 L1647.62 187.312 Q1644.96 186.039 1642.6 185.414 Q1640.24 184.789 1638.04 184.789 Q1634.22 184.789 1632.14 186.27 Q1630.08 187.752 1630.08 190.483 Q1630.08 192.775 1631.44 193.955 Q1632.83 195.113 1636.67 195.83 L1639.5 196.409 Q1644.73 197.405 1647.21 199.928 Q1649.71 202.428 1649.71 206.641 Q1649.71 211.664 1646.33 214.256 Q1642.97 216.849 1636.46 216.849 Q1634.01 216.849 1631.23 216.293 Q1628.48 215.738 1625.52 214.65 L1625.52 209.835 Q1628.36 211.432 1631.09 212.242 Q1633.83 213.053 1636.46 213.053 Q1640.47 213.053 1642.65 211.479 Q1644.82 209.904 1644.82 206.988 Q1644.82 204.442 1643.25 203.006 Q1641.7 201.571 1638.13 200.854 L1635.28 200.298 Q1630.05 199.256 1627.72 197.034 Q1625.38 194.812 1625.38 190.854 Q1625.38 186.27 1628.59 183.631 Q1631.84 180.993 1637.51 180.993 Q1639.94 180.993 1642.46 181.432 Q1644.98 181.872 1647.62 182.752 Z" fill="#000000" fill-rule="nonzero" fill-opacity="1" /><path clip-path="url(#clip820)" d="M1668.59 203.145 Q1663.43 203.145 1661.44 204.326 Q1659.45 205.506 1659.45 208.354 Q1659.45 210.622 1660.93 211.965 Q1662.44 213.284 1665.01 213.284 Q1668.55 213.284 1670.68 210.784 Q1672.83 208.261 1672.83 204.094 L1672.83 203.145 L1668.59 203.145 M1677.09 201.386 L1677.09 216.178 L1672.83 216.178 L1672.83 212.242 Q1671.37 214.603 1669.2 215.738 Q1667.02 216.849 1663.87 216.849 Q1659.89 216.849 1657.53 214.627 Q1655.19 212.381 1655.19 208.631 Q1655.19 204.256 1658.11 202.034 Q1661.05 199.812 1666.86 199.812 L1672.83 199.812 L1672.83 199.395 Q1672.83 196.455 1670.89 194.858 Q1668.96 193.238 1665.47 193.238 Q1663.25 193.238 1661.14 193.77 Q1659.03 194.303 1657.09 195.367 L1657.09 191.432 Q1659.43 190.53 1661.63 190.09 Q1663.83 189.627 1665.91 189.627 Q1671.53 189.627 1674.31 192.543 Q1677.09 195.46 1677.09 201.386 Z" fill="#000000" fill-rule="nonzero" fill-opacity="1" /><path clip-path="url(#clip820)" d="M1690.08 182.891 L1690.08 190.252 L1698.85 190.252 L1698.85 193.562 L1690.08 193.562 L1690.08 207.636 Q1690.08 210.807 1690.93 211.71 Q1691.81 212.613 1694.47 212.613 L1698.85 212.613 L1698.85 216.178 L1694.47 216.178 Q1689.54 216.178 1687.67 214.349 Q1685.79 212.497 1685.79 207.636 L1685.79 193.562 L1682.67 193.562 L1682.67 190.252 L1685.79 190.252 L1685.79 182.891 L1690.08 182.891 Z" fill="#000000" fill-rule="nonzero" fill-opacity="1" /><path clip-path="url(#clip820)" d="M1704.01 205.946 L1704.01 190.252 L1708.27 190.252 L1708.27 205.784 Q1708.27 209.465 1709.71 211.316 Q1711.14 213.145 1714.01 213.145 Q1717.46 213.145 1719.45 210.946 Q1721.46 208.747 1721.46 204.951 L1721.46 190.252 L1725.72 190.252 L1725.72 216.178 L1721.46 216.178 L1721.46 212.196 Q1719.91 214.557 1717.85 215.715 Q1715.82 216.849 1713.11 216.849 Q1708.64 216.849 1706.33 214.071 Q1704.01 211.293 1704.01 205.946 M1714.73 189.627 L1714.73 189.627 Z" fill="#000000" fill-rule="nonzero" fill-opacity="1" /><path clip-path="url(#clip820)" d="M1749.52 194.233 Q1748.8 193.817 1747.95 193.631 Q1747.11 193.423 1746.09 193.423 Q1742.48 193.423 1740.54 195.784 Q1738.62 198.122 1738.62 202.52 L1738.62 216.178 L1734.33 216.178 L1734.33 190.252 L1738.62 190.252 L1738.62 194.28 Q1739.96 191.918 1742.11 190.784 Q1744.27 189.627 1747.34 189.627 Q1747.78 189.627 1748.32 189.696 Q1748.85 189.743 1749.5 189.858 L1749.52 194.233 Z" fill="#000000" fill-rule="nonzero" fill-opacity="1" /><path clip-path="url(#clip820)" d="M1765.77 203.145 Q1760.61 203.145 1758.62 204.326 Q1756.63 205.506 1756.63 208.354 Q1756.63 210.622 1758.11 211.965 Q1759.61 213.284 1762.18 213.284 Q1765.72 213.284 1767.85 210.784 Q1770.01 208.261 1770.01 204.094 L1770.01 203.145 L1765.77 203.145 M1774.27 201.386 L1774.27 216.178 L1770.01 216.178 L1770.01 212.242 Q1768.55 214.603 1766.37 215.738 Q1764.2 216.849 1761.05 216.849 Q1757.07 216.849 1754.71 214.627 Q1752.37 212.381 1752.37 208.631 Q1752.37 204.256 1755.28 202.034 Q1758.22 199.812 1764.03 199.812 L1770.01 199.812 L1770.01 199.395 Q1770.01 196.455 1768.06 194.858 Q1766.14 193.238 1762.64 193.238 Q1760.42 193.238 1758.32 193.77 Q1756.21 194.303 1754.27 195.367 L1754.27 191.432 Q1756.6 190.53 1758.8 190.09 Q1761 189.627 1763.08 189.627 Q1768.71 189.627 1771.49 192.543 Q1774.27 195.46 1774.27 201.386 Z" fill="#000000" fill-rule="nonzero" fill-opacity="1" /><path clip-path="url(#clip820)" d="M1787.25 182.891 L1787.25 190.252 L1796.02 190.252 L1796.02 193.562 L1787.25 193.562 L1787.25 207.636 Q1787.25 210.807 1788.11 211.71 Q1788.99 212.613 1791.65 212.613 L1796.02 212.613 L1796.02 216.178 L1791.65 216.178 Q1786.72 216.178 1784.84 214.349 Q1782.97 212.497 1782.97 207.636 L1782.97 193.562 L1779.84 193.562 L1779.84 190.252 L1782.97 190.252 L1782.97 182.891 L1787.25 182.891 Z" fill="#000000" fill-rule="nonzero" fill-opacity="1" /><path clip-path="url(#clip820)" d="M1823.8 202.15 L1823.8 204.233 L1804.22 204.233 Q1804.5 208.631 1806.86 210.946 Q1809.24 213.238 1813.48 213.238 Q1815.93 213.238 1818.22 212.636 Q1820.54 212.034 1822.81 210.83 L1822.81 214.858 Q1820.51 215.83 1818.11 216.34 Q1815.7 216.849 1813.22 216.849 Q1807.02 216.849 1803.39 213.238 Q1799.77 209.627 1799.77 203.469 Q1799.77 197.104 1803.2 193.377 Q1806.65 189.627 1812.48 189.627 Q1817.71 189.627 1820.75 193.006 Q1823.8 196.363 1823.8 202.15 M1819.54 200.9 Q1819.5 197.405 1817.58 195.321 Q1815.68 193.238 1812.53 193.238 Q1808.96 193.238 1806.81 195.252 Q1804.68 197.266 1804.36 200.923 L1819.54 200.9 Z" fill="#000000" fill-rule="nonzero" fill-opacity="1" /><path clip-path="url(#clip820)" d="M1847.85 194.187 L1847.85 180.159 L1852.11 180.159 L1852.11 216.178 L1847.85 216.178 L1847.85 212.289 Q1846.51 214.603 1844.45 215.738 Q1842.41 216.849 1839.54 216.849 Q1834.84 216.849 1831.88 213.099 Q1828.94 209.349 1828.94 203.238 Q1828.94 197.127 1831.88 193.377 Q1834.84 189.627 1839.54 189.627 Q1842.41 189.627 1844.45 190.761 Q1846.51 191.872 1847.85 194.187 M1833.34 203.238 Q1833.34 207.937 1835.26 210.622 Q1837.2 213.284 1840.58 213.284 Q1843.96 213.284 1845.91 210.622 Q1847.85 207.937 1847.85 203.238 Q1847.85 198.539 1845.91 195.877 Q1843.96 193.192 1840.58 193.192 Q1837.2 193.192 1835.26 195.877 Q1833.34 198.539 1833.34 203.238 Z" fill="#000000" fill-rule="nonzero" fill-opacity="1" /><path clip-path="url(#clip820)" d="M1902.02 184.28 L1902.02 189.21 Q1899.66 187.011 1896.97 185.923 Q1894.31 184.835 1891.3 184.835 Q1885.38 184.835 1882.23 188.469 Q1879.08 192.08 1879.08 198.932 Q1879.08 205.761 1882.23 209.395 Q1885.38 213.006 1891.3 213.006 Q1894.31 213.006 1896.97 211.918 Q1899.66 210.83 1902.02 208.631 L1902.02 213.516 Q1899.57 215.182 1896.81 216.016 Q1894.08 216.849 1891.02 216.849 Q1883.18 216.849 1878.66 212.057 Q1874.15 207.242 1874.15 198.932 Q1874.15 190.599 1878.66 185.807 Q1883.18 180.993 1891.02 180.993 Q1894.13 180.993 1896.86 181.826 Q1899.61 182.636 1902.02 184.28 Z" fill="#000000" fill-rule="nonzero" fill-opacity="1" /><path clip-path="url(#clip820)" d="M1919.1 193.238 Q1915.68 193.238 1913.69 195.923 Q1911.69 198.585 1911.69 203.238 Q1911.69 207.891 1913.66 210.576 Q1915.65 213.238 1919.1 213.238 Q1922.51 213.238 1924.5 210.553 Q1926.49 207.867 1926.49 203.238 Q1926.49 198.631 1924.5 195.946 Q1922.51 193.238 1919.1 193.238 M1919.1 189.627 Q1924.66 189.627 1927.83 193.238 Q1931 196.849 1931 203.238 Q1931 209.604 1927.83 213.238 Q1924.66 216.849 1919.1 216.849 Q1913.52 216.849 1910.35 213.238 Q1907.2 209.604 1907.2 203.238 Q1907.2 196.849 1910.35 193.238 Q1913.52 189.627 1919.1 189.627 Z" fill="#000000" fill-rule="nonzero" fill-opacity="1" /><path clip-path="url(#clip820)" d="M1953.08 194.233 Q1952.37 193.817 1951.51 193.631 Q1950.68 193.423 1949.66 193.423 Q1946.05 193.423 1944.1 195.784 Q1942.18 198.122 1942.18 202.52 L1942.18 216.178 L1937.9 216.178 L1937.9 190.252 L1942.18 190.252 L1942.18 194.28 Q1943.52 191.918 1945.68 190.784 Q1947.83 189.627 1950.91 189.627 Q1951.35 189.627 1951.88 189.696 Q1952.41 189.743 1953.06 189.858 L1953.08 194.233 Z" fill="#000000" fill-rule="nonzero" fill-opacity="1" /><path clip-path="url(#clip820)" d="M1978.27 200.529 L1978.27 216.178 L1974.01 216.178 L1974.01 200.668 Q1974.01 196.988 1972.57 195.159 Q1971.14 193.33 1968.27 193.33 Q1964.82 193.33 1962.83 195.53 Q1960.84 197.729 1960.84 201.525 L1960.84 216.178 L1956.56 216.178 L1956.56 190.252 L1960.84 190.252 L1960.84 194.28 Q1962.37 191.942 1964.43 190.784 Q1966.51 189.627 1969.22 189.627 Q1973.69 189.627 1975.98 192.405 Q1978.27 195.159 1978.27 200.529 Z" fill="#000000" fill-rule="nonzero" fill-opacity="1" /><path clip-path="url(#clip820)" d="M2008.94 202.15 L2008.94 204.233 L1989.36 204.233 Q1989.63 208.631 1992 210.946 Q1994.38 213.238 1998.62 213.238 Q2001.07 213.238 2003.36 212.636 Q2005.68 212.034 2007.94 210.83 L2007.94 214.858 Q2005.65 215.83 2003.25 216.34 Q2000.84 216.849 1998.36 216.849 Q1992.16 216.849 1988.52 213.238 Q1984.91 209.627 1984.91 203.469 Q1984.91 197.104 1988.34 193.377 Q1991.79 189.627 1997.62 189.627 Q2002.85 189.627 2005.88 193.006 Q2008.94 196.363 2008.94 202.15 M2004.68 200.9 Q2004.63 197.405 2002.71 195.321 Q2000.81 193.238 1997.67 193.238 Q1994.1 193.238 1991.95 195.252 Q1989.82 197.266 1989.5 200.923 L2004.68 200.9 Z" fill="#000000" fill-rule="nonzero" fill-opacity="1" /><path clip-path="url(#clip820)" d="M2030.95 194.233 Q2030.24 193.817 2029.38 193.631 Q2028.55 193.423 2027.53 193.423 Q2023.92 193.423 2021.97 195.784 Q2020.05 198.122 2020.05 202.52 L2020.05 216.178 L2015.77 216.178 L2015.77 190.252 L2020.05 190.252 L2020.05 194.28 Q2021.39 191.918 2023.55 190.784 Q2025.7 189.627 2028.78 189.627 Q2029.22 189.627 2029.75 189.696 Q2030.28 189.743 2030.93 189.858 L2030.95 194.233 Z" fill="#000000" fill-rule="nonzero" fill-opacity="1" /><path clip-path="url(#clip820)" d="M2051.95 191.016 L2051.95 195.043 Q2050.14 194.117 2048.2 193.655 Q2046.25 193.192 2044.17 193.192 Q2041 193.192 2039.4 194.164 Q2037.83 195.136 2037.83 197.08 Q2037.83 198.562 2038.96 199.418 Q2040.1 200.252 2043.52 201.016 L2044.98 201.34 Q2049.52 202.312 2051.42 204.094 Q2053.34 205.854 2053.34 209.025 Q2053.34 212.636 2050.47 214.742 Q2047.62 216.849 2042.62 216.849 Q2040.54 216.849 2038.27 216.432 Q2036.02 216.039 2033.52 215.228 L2033.52 210.83 Q2035.88 212.057 2038.18 212.682 Q2040.47 213.284 2042.71 213.284 Q2045.72 213.284 2047.34 212.266 Q2048.96 211.224 2048.96 209.349 Q2048.96 207.613 2047.78 206.687 Q2046.62 205.761 2042.67 204.904 L2041.19 204.557 Q2037.23 203.724 2035.47 202.011 Q2033.71 200.275 2033.71 197.266 Q2033.71 193.608 2036.3 191.618 Q2038.89 189.627 2043.66 189.627 Q2046.02 189.627 2048.11 189.974 Q2050.19 190.321 2051.95 191.016 Z" fill="#000000" fill-rule="nonzero" fill-opacity="1" /><path clip-path="url(#clip820)" d="M1503.04 227.982 L1503.04 273.493 L1548.55 273.493 L1548.55 227.982 L1503.04 227.982 Z" fill="#4063d8" fill-rule="evenodd" fill-opacity="1" stroke="#000000" stroke-opacity="1" stroke-width="4.55111"/>
<path clip-path="url(#clip820)" d="M1625.38 233.458 L1654.61 233.458 L1654.61 237.393 L1642.34 237.393 L1642.34 268.018 L1637.65 268.018 L1637.65 237.393 L1625.38 237.393 L1625.38 233.458 Z" fill="#000000" fill-rule="nonzero" fill-opacity="1" /><path clip-path="url(#clip820)" d="M1667 246.073 Q1666.28 245.657 1665.42 245.471 Q1664.59 245.263 1663.57 245.263 Q1659.96 245.263 1658.02 247.624 Q1656.09 249.962 1656.09 254.36 L1656.09 268.018 L1651.81 268.018 L1651.81 242.092 L1656.09 242.092 L1656.09 246.12 Q1657.44 243.758 1659.59 242.624 Q1661.74 241.467 1664.82 241.467 Q1665.26 241.467 1665.79 241.536 Q1666.33 241.583 1666.97 241.698 L1667 246.073 Z" fill="#000000" fill-rule="nonzero" fill-opacity="1" /><path clip-path="url(#clip820)" d="M1671.46 242.092 L1675.72 242.092 L1675.72 268.018 L1671.46 268.018 L1671.46 242.092 M1671.46 231.999 L1675.72 231.999 L1675.72 237.393 L1671.46 237.393 L1671.46 231.999 Z" fill="#000000" fill-rule="nonzero" fill-opacity="1" /><path clip-path="url(#clip820)" d="M1681.58 242.092 L1686.09 242.092 L1694.2 263.851 L1702.3 242.092 L1706.81 242.092 L1697.09 268.018 L1691.3 268.018 L1681.58 242.092 Z" fill="#000000" fill-rule="nonzero" fill-opacity="1" /><path clip-path="url(#clip820)" d="M1712.69 242.092 L1716.95 242.092 L1716.95 268.018 L1712.69 268.018 L1712.69 242.092 M1712.69 231.999 L1716.95 231.999 L1716.95 237.393 L1712.69 237.393 L1712.69 231.999 Z" fill="#000000" fill-rule="nonzero" fill-opacity="1" /><path clip-path="url(#clip820)" d="M1737.64 254.985 Q1732.48 254.985 1730.49 256.166 Q1728.5 257.346 1728.5 260.194 Q1728.5 262.462 1729.98 263.805 Q1731.49 265.124 1734.06 265.124 Q1737.6 265.124 1739.73 262.624 Q1741.88 260.101 1741.88 255.934 L1741.88 254.985 L1737.64 254.985 M1746.14 253.226 L1746.14 268.018 L1741.88 268.018 L1741.88 264.082 Q1740.42 266.443 1738.25 267.578 Q1736.07 268.689 1732.92 268.689 Q1728.94 268.689 1726.58 266.467 Q1724.24 264.221 1724.24 260.471 Q1724.24 256.096 1727.16 253.874 Q1730.1 251.652 1735.91 251.652 L1741.88 251.652 L1741.88 251.235 Q1741.88 248.295 1739.94 246.698 Q1738.02 245.078 1734.52 245.078 Q1732.3 245.078 1730.19 245.61 Q1728.08 246.143 1726.14 247.207 L1726.14 243.272 Q1728.48 242.37 1730.68 241.93 Q1732.88 241.467 1734.96 241.467 Q1740.58 241.467 1743.36 244.383 Q1746.14 247.3 1746.14 253.226 Z" fill="#000000" fill-rule="nonzero" fill-opacity="1" /><path clip-path="url(#clip820)" d="M1754.91 231.999 L1759.17 231.999 L1759.17 268.018 L1754.91 268.018 L1754.91 231.999 Z" fill="#000000" fill-rule="nonzero" fill-opacity="1" /><path clip-path="url(#clip820)" d="M1783.34 233.458 L1788.02 233.458 L1788.02 268.018 L1783.34 268.018 L1783.34 233.458 Z" fill="#000000" fill-rule="nonzero" fill-opacity="1" /><path clip-path="url(#clip820)" d="M1818.69 252.369 L1818.69 268.018 L1814.43 268.018 L1814.43 252.508 Q1814.43 248.828 1812.99 246.999 Q1811.56 245.17 1808.69 245.17 Q1805.24 245.17 1803.25 247.37 Q1801.26 249.569 1801.26 253.365 L1801.26 268.018 L1796.97 268.018 L1796.97 242.092 L1801.26 242.092 L1801.26 246.12 Q1802.78 243.782 1804.84 242.624 Q1806.93 241.467 1809.64 241.467 Q1814.1 241.467 1816.39 244.245 Q1818.69 246.999 1818.69 252.369 Z" fill="#000000" fill-rule="nonzero" fill-opacity="1" /><path clip-path="url(#clip820)" d="M1844.24 246.027 L1844.24 231.999 L1848.5 231.999 L1848.5 268.018 L1844.24 268.018 L1844.24 264.129 Q1842.9 266.443 1840.84 267.578 Q1838.8 268.689 1835.93 268.689 Q1831.23 268.689 1828.27 264.939 Q1825.33 261.189 1825.33 255.078 Q1825.33 248.967 1828.27 245.217 Q1831.23 241.467 1835.93 241.467 Q1838.8 241.467 1840.84 242.601 Q1842.9 243.712 1844.24 246.027 M1829.73 255.078 Q1829.73 259.777 1831.65 262.462 Q1833.59 265.124 1836.97 265.124 Q1840.35 265.124 1842.3 262.462 Q1844.24 259.777 1844.24 255.078 Q1844.24 250.379 1842.3 247.717 Q1840.35 245.032 1836.97 245.032 Q1833.59 245.032 1831.65 247.717 Q1829.73 250.379 1829.73 255.078 Z" fill="#000000" fill-rule="nonzero" fill-opacity="1" /><path clip-path="url(#clip820)" d="M1879.45 253.99 L1879.45 256.073 L1859.87 256.073 Q1860.14 260.471 1862.51 262.786 Q1864.89 265.078 1869.13 265.078 Q1871.58 265.078 1873.87 264.476 Q1876.19 263.874 1878.45 262.67 L1878.45 266.698 Q1876.16 267.67 1873.76 268.18 Q1871.35 268.689 1868.87 268.689 Q1862.67 268.689 1859.03 265.078 Q1855.42 261.467 1855.42 255.309 Q1855.42 248.944 1858.85 245.217 Q1862.3 241.467 1868.13 241.467 Q1873.36 241.467 1876.39 244.846 Q1879.45 248.203 1879.45 253.99 M1875.19 252.74 Q1875.14 249.245 1873.22 247.161 Q1871.32 245.078 1868.18 245.078 Q1864.61 245.078 1862.46 247.092 Q1860.33 249.106 1860.01 252.763 L1875.19 252.74 Z" fill="#000000" fill-rule="nonzero" fill-opacity="1" /><path clip-path="url(#clip820)" d="M1890.56 264.129 L1890.56 277.879 L1886.28 277.879 L1886.28 242.092 L1890.56 242.092 L1890.56 246.027 Q1891.9 243.712 1893.94 242.601 Q1896 241.467 1898.85 241.467 Q1903.57 241.467 1906.51 245.217 Q1909.47 248.967 1909.47 255.078 Q1909.47 261.189 1906.51 264.939 Q1903.57 268.689 1898.85 268.689 Q1896 268.689 1893.94 267.578 Q1891.9 266.443 1890.56 264.129 M1905.05 255.078 Q1905.05 250.379 1903.11 247.717 Q1901.19 245.032 1897.81 245.032 Q1894.43 245.032 1892.48 247.717 Q1890.56 250.379 1890.56 255.078 Q1890.56 259.777 1892.48 262.462 Q1894.43 265.124 1897.81 265.124 Q1901.19 265.124 1903.11 262.462 Q1905.05 259.777 1905.05 255.078 Z" fill="#000000" fill-rule="nonzero" fill-opacity="1" /><path clip-path="url(#clip820)" d="M1938.71 253.99 L1938.71 256.073 L1919.13 256.073 Q1919.4 260.471 1921.76 262.786 Q1924.15 265.078 1928.38 265.078 Q1930.84 265.078 1933.13 264.476 Q1935.44 263.874 1937.71 262.67 L1937.71 266.698 Q1935.42 267.67 1933.01 268.18 Q1930.61 268.689 1928.13 268.689 Q1921.93 268.689 1918.29 265.078 Q1914.68 261.467 1914.68 255.309 Q1914.68 248.944 1918.11 245.217 Q1921.56 241.467 1927.39 241.467 Q1932.62 241.467 1935.65 244.846 Q1938.71 248.203 1938.71 253.99 M1934.45 252.74 Q1934.4 249.245 1932.48 247.161 Q1930.58 245.078 1927.44 245.078 Q1923.87 245.078 1921.72 247.092 Q1919.59 249.106 1919.26 252.763 L1934.45 252.74 Z" fill="#000000" fill-rule="nonzero" fill-opacity="1" /><path clip-path="url(#clip820)" d="M1967.25 252.369 L1967.25 268.018 L1962.99 268.018 L1962.99 252.508 Q1962.99 248.828 1961.56 246.999 Q1960.12 245.17 1957.25 245.17 Q1953.8 245.17 1951.81 247.37 Q1949.82 249.569 1949.82 253.365 L1949.82 268.018 L1945.54 268.018 L1945.54 242.092 L1949.82 242.092 L1949.82 246.12 Q1951.35 243.782 1953.41 242.624 Q1955.49 241.467 1958.2 241.467 Q1962.67 241.467 1964.96 244.245 Q1967.25 246.999 1967.25 252.369 Z" fill="#000000" fill-rule="nonzero" fill-opacity="1" /><path clip-path="url(#clip820)" d="M1992.81 246.027 L1992.81 231.999 L1997.06 231.999 L1997.06 268.018 L1992.81 268.018 L1992.81 264.129 Q1991.46 266.443 1989.4 267.578 Q1987.37 268.689 1984.5 268.689 Q1979.8 268.689 1976.83 264.939 Q1973.89 261.189 1973.89 255.078 Q1973.89 248.967 1976.83 245.217 Q1979.8 241.467 1984.5 241.467 Q1987.37 241.467 1989.4 242.601 Q1991.46 243.712 1992.81 246.027 M1978.29 255.078 Q1978.29 259.777 1980.21 262.462 Q1982.16 265.124 1985.54 265.124 Q1988.92 265.124 1990.86 262.462 Q1992.81 259.777 1992.81 255.078 Q1992.81 250.379 1990.86 247.717 Q1988.92 245.032 1985.54 245.032 Q1982.16 245.032 1980.21 247.717 Q1978.29 250.379 1978.29 255.078 Z" fill="#000000" fill-rule="nonzero" fill-opacity="1" /><path clip-path="url(#clip820)" d="M2028.01 253.99 L2028.01 256.073 L2008.43 256.073 Q2008.71 260.471 2011.07 262.786 Q2013.45 265.078 2017.69 265.078 Q2020.14 265.078 2022.44 264.476 Q2024.75 263.874 2027.02 262.67 L2027.02 266.698 Q2024.73 267.67 2022.32 268.18 Q2019.91 268.689 2017.44 268.689 Q2011.23 268.689 2007.6 265.078 Q2003.99 261.467 2003.99 255.309 Q2003.99 248.944 2007.41 245.217 Q2010.86 241.467 2016.69 241.467 Q2021.93 241.467 2024.96 244.846 Q2028.01 248.203 2028.01 253.99 M2023.75 252.74 Q2023.71 249.245 2021.79 247.161 Q2019.89 245.078 2016.74 245.078 Q2013.18 245.078 2011.02 247.092 Q2008.89 249.106 2008.57 252.763 L2023.75 252.74 Z" fill="#000000" fill-rule="nonzero" fill-opacity="1" /><path clip-path="url(#clip820)" d="M2056.56 252.369 L2056.56 268.018 L2052.3 268.018 L2052.3 252.508 Q2052.3 248.828 2050.86 246.999 Q2049.43 245.17 2046.56 245.17 Q2043.11 245.17 2041.12 247.37 Q2039.12 249.569 2039.12 253.365 L2039.12 268.018 L2034.84 268.018 L2034.84 242.092 L2039.12 242.092 L2039.12 246.12 Q2040.65 243.782 2042.71 242.624 Q2044.8 241.467 2047.5 241.467 Q2051.97 241.467 2054.26 244.245 Q2056.56 246.999 2056.56 252.369 Z" fill="#000000" fill-rule="nonzero" fill-opacity="1" /><path clip-path="url(#clip820)" d="M2069.26 234.731 L2069.26 242.092 L2078.04 242.092 L2078.04 245.402 L2069.26 245.402 L2069.26 259.476 Q2069.26 262.647 2070.12 263.55 Q2071 264.453 2073.66 264.453 L2078.04 264.453 L2078.04 268.018 L2073.66 268.018 Q2068.73 268.018 2066.86 266.189 Q2064.98 264.337 2064.98 259.476 L2064.98 245.402 L2061.86 245.402 L2061.86 242.092 L2064.98 242.092 L2064.98 234.731 L2069.26 234.731 Z" fill="#000000" fill-rule="nonzero" fill-opacity="1" /><path clip-path="url(#clip820)" d="M2103.57 251.513 L2103.57 264.175 L2111.07 264.175 Q2114.84 264.175 2116.65 262.624 Q2118.48 261.05 2118.48 257.832 Q2118.48 254.592 2116.65 253.064 Q2114.84 251.513 2111.07 251.513 L2103.57 251.513 M2103.57 237.3 L2103.57 247.717 L2110.49 247.717 Q2113.92 247.717 2115.58 246.444 Q2117.27 245.147 2117.27 242.508 Q2117.27 239.893 2115.58 238.596 Q2113.92 237.3 2110.49 237.3 L2103.57 237.3 M2098.89 233.458 L2110.84 233.458 Q2116.18 233.458 2119.08 235.68 Q2121.97 237.902 2121.97 241.999 Q2121.97 245.17 2120.49 247.045 Q2119.01 248.92 2116.14 249.383 Q2119.59 250.124 2121.49 252.485 Q2123.41 254.823 2123.41 258.342 Q2123.41 262.971 2120.26 265.494 Q2117.11 268.018 2111.3 268.018 L2098.89 268.018 L2098.89 233.458 Z" fill="#000000" fill-rule="nonzero" fill-opacity="1" /><path clip-path="url(#clip820)" d="M2141.28 245.078 Q2137.85 245.078 2135.86 247.763 Q2133.87 250.425 2133.87 255.078 Q2133.87 259.731 2135.84 262.416 Q2137.83 265.078 2141.28 265.078 Q2144.68 265.078 2146.67 262.393 Q2148.66 259.707 2148.66 255.078 Q2148.66 250.471 2146.67 247.786 Q2144.68 245.078 2141.28 245.078 M2141.28 241.467 Q2146.83 241.467 2150 245.078 Q2153.18 248.689 2153.18 255.078 Q2153.18 261.444 2150 265.078 Q2146.83 268.689 2141.28 268.689 Q2135.7 268.689 2132.53 265.078 Q2129.38 261.444 2129.38 255.078 Q2129.38 248.689 2132.53 245.078 Q2135.7 241.467 2141.28 241.467 Z" fill="#000000" fill-rule="nonzero" fill-opacity="1" /><path clip-path="url(#clip820)" d="M2175.26 246.073 Q2174.54 245.657 2173.68 245.471 Q2172.85 245.263 2171.83 245.263 Q2168.22 245.263 2166.28 247.624 Q2164.36 249.962 2164.36 254.36 L2164.36 268.018 L2160.07 268.018 L2160.07 242.092 L2164.36 242.092 L2164.36 246.12 Q2165.7 243.758 2167.85 242.624 Q2170 241.467 2173.08 241.467 Q2173.52 241.467 2174.05 241.536 Q2174.59 241.583 2175.24 241.698 L2175.26 246.073 Z" fill="#000000" fill-rule="nonzero" fill-opacity="1" /><path clip-path="url(#clip820)" d="M2195.95 246.027 L2195.95 231.999 L2200.21 231.999 L2200.21 268.018 L2195.95 268.018 L2195.95 264.129 Q2194.61 266.443 2192.55 267.578 Q2190.51 268.689 2187.64 268.689 Q2182.94 268.689 2179.98 264.939 Q2177.04 261.189 2177.04 255.078 Q2177.04 248.967 2179.98 245.217 Q2182.94 241.467 2187.64 241.467 Q2190.51 241.467 2192.55 242.601 Q2194.61 243.712 2195.95 246.027 M2181.44 255.078 Q2181.44 259.777 2183.36 262.462 Q2185.3 265.124 2188.68 265.124 Q2192.06 265.124 2194.01 262.462 Q2195.95 259.777 2195.95 255.078 Q2195.95 250.379 2194.01 247.717 Q2192.06 245.032 2188.68 245.032 Q2185.3 245.032 2183.36 247.717 Q2181.44 250.379 2181.44 255.078 Z" fill="#000000" fill-rule="nonzero" fill-opacity="1" /><path clip-path="url(#clip820)" d="M2231.16 253.99 L2231.16 256.073 L2211.58 256.073 Q2211.86 260.471 2214.22 262.786 Q2216.6 265.078 2220.84 265.078 Q2223.29 265.078 2225.58 264.476 Q2227.9 263.874 2230.17 262.67 L2230.17 266.698 Q2227.87 267.67 2225.47 268.18 Q2223.06 268.689 2220.58 268.689 Q2214.38 268.689 2210.74 265.078 Q2207.13 261.467 2207.13 255.309 Q2207.13 248.944 2210.56 245.217 Q2214.01 241.467 2219.84 241.467 Q2225.07 241.467 2228.11 244.846 Q2231.16 248.203 2231.16 253.99 M2226.9 252.74 Q2226.86 249.245 2224.93 247.161 Q2223.04 245.078 2219.89 245.078 Q2216.32 245.078 2214.17 247.092 Q2212.04 249.106 2211.72 252.763 L2226.9 252.74 Z" fill="#000000" fill-rule="nonzero" fill-opacity="1" /><path clip-path="url(#clip820)" d="M2253.17 246.073 Q2252.46 245.657 2251.6 245.471 Q2250.77 245.263 2249.75 245.263 Q2246.14 245.263 2244.19 247.624 Q2242.27 249.962 2242.27 254.36 L2242.27 268.018 L2237.99 268.018 L2237.99 242.092 L2242.27 242.092 L2242.27 246.12 Q2243.61 243.758 2245.77 242.624 Q2247.92 241.467 2251 241.467 Q2251.44 241.467 2251.97 241.536 Q2252.5 241.583 2253.15 241.698 L2253.17 246.073 Z" fill="#000000" fill-rule="nonzero" fill-opacity="1" /></svg>
